%TF.GenerationSoftware,KiCad,Pcbnew,8.0.6*%
%TF.CreationDate,2025-05-14T01:22:40+09:00*%
%TF.ProjectId,denko_test,64656e6b-6f5f-4746-9573-742e6b696361,rev?*%
%TF.SameCoordinates,Original*%
%TF.FileFunction,Soldermask,Bot*%
%TF.FilePolarity,Negative*%
%FSLAX46Y46*%
G04 Gerber Fmt 4.6, Leading zero omitted, Abs format (unit mm)*
G04 Created by KiCad (PCBNEW 8.0.6) date 2025-05-14 01:22:40*
%MOMM*%
%LPD*%
G01*
G04 APERTURE LIST*
G04 Aperture macros list*
%AMRoundRect*
0 Rectangle with rounded corners*
0 $1 Rounding radius*
0 $2 $3 $4 $5 $6 $7 $8 $9 X,Y pos of 4 corners*
0 Add a 4 corners polygon primitive as box body*
4,1,4,$2,$3,$4,$5,$6,$7,$8,$9,$2,$3,0*
0 Add four circle primitives for the rounded corners*
1,1,$1+$1,$2,$3*
1,1,$1+$1,$4,$5*
1,1,$1+$1,$6,$7*
1,1,$1+$1,$8,$9*
0 Add four rect primitives between the rounded corners*
20,1,$1+$1,$2,$3,$4,$5,0*
20,1,$1+$1,$4,$5,$6,$7,0*
20,1,$1+$1,$6,$7,$8,$9,0*
20,1,$1+$1,$8,$9,$2,$3,0*%
%AMFreePoly0*
4,1,19,0.500000,-0.750000,0.000000,-0.750000,0.000000,-0.744911,-0.071157,-0.744911,-0.207708,-0.704816,-0.327430,-0.627875,-0.420627,-0.520320,-0.479746,-0.390866,-0.500000,-0.250000,-0.500000,0.250000,-0.479746,0.390866,-0.420627,0.520320,-0.327430,0.627875,-0.207708,0.704816,-0.071157,0.744911,0.000000,0.744911,0.000000,0.750000,0.500000,0.750000,0.500000,-0.750000,0.500000,-0.750000,
$1*%
%AMFreePoly1*
4,1,19,0.000000,0.744911,0.071157,0.744911,0.207708,0.704816,0.327430,0.627875,0.420627,0.520320,0.479746,0.390866,0.500000,0.250000,0.500000,-0.250000,0.479746,-0.390866,0.420627,-0.520320,0.327430,-0.627875,0.207708,-0.704816,0.071157,-0.744911,0.000000,-0.744911,0.000000,-0.750000,-0.500000,-0.750000,-0.500000,0.750000,0.000000,0.750000,0.000000,0.744911,0.000000,0.744911,
$1*%
G04 Aperture macros list end*
%ADD10C,1.500000*%
%ADD11C,1.300000*%
%ADD12R,2.000000X4.600000*%
%ADD13O,2.000000X4.200000*%
%ADD14O,4.200000X2.000000*%
%ADD15RoundRect,0.250000X0.350000X0.625000X-0.350000X0.625000X-0.350000X-0.625000X0.350000X-0.625000X0*%
%ADD16O,1.200000X1.750000*%
%ADD17C,3.200000*%
%ADD18RoundRect,0.250000X0.625000X-0.350000X0.625000X0.350000X-0.625000X0.350000X-0.625000X-0.350000X0*%
%ADD19O,1.750000X1.200000*%
%ADD20C,1.600000*%
%ADD21RoundRect,0.250000X-0.350000X-0.625000X0.350000X-0.625000X0.350000X0.625000X-0.350000X0.625000X0*%
%ADD22C,2.000000*%
%ADD23C,3.000000*%
%ADD24FreePoly0,180.000000*%
%ADD25FreePoly1,180.000000*%
G04 APERTURE END LIST*
D10*
%TO.C,U40*%
X510280000Y-316000000D03*
X495280000Y-301000000D03*
X525280000Y-301000000D03*
X510280000Y-286000000D03*
D11*
X500280000Y-283500000D03*
X500280000Y-286000000D03*
X500280000Y-288500000D03*
X500280000Y-291000000D03*
X500280000Y-293500000D03*
X500280000Y-296000000D03*
X500280000Y-298500000D03*
X500280000Y-301000000D03*
X492780000Y-311000000D03*
X495280000Y-311000000D03*
X497780000Y-311000000D03*
X500280000Y-311000000D03*
X502780000Y-311000000D03*
X505280000Y-311000000D03*
X507780000Y-311000000D03*
X510280000Y-311000000D03*
X520280000Y-318500000D03*
X520280000Y-316000000D03*
X520280000Y-313500000D03*
X520280000Y-311000000D03*
X520280000Y-308500000D03*
X520280000Y-306000000D03*
X520280000Y-303500000D03*
X520280000Y-301000000D03*
X527780000Y-291000000D03*
X525280000Y-291000000D03*
X522780000Y-291000000D03*
X520280000Y-291000000D03*
X517780000Y-291000000D03*
X515280000Y-291000000D03*
X512780000Y-291000000D03*
X510280000Y-291000000D03*
X492780000Y-318500000D03*
X495280000Y-318500000D03*
X497780000Y-318500000D03*
X500280000Y-318500000D03*
X502780000Y-318500000D03*
X505280000Y-318500000D03*
X507780000Y-318500000D03*
X510280000Y-318500000D03*
X527780000Y-283500000D03*
X525280000Y-283500000D03*
X522780000Y-283500000D03*
X520280000Y-283500000D03*
X517780000Y-283500000D03*
X515280000Y-283500000D03*
X512780000Y-283500000D03*
X510280000Y-283500000D03*
%TD*%
D10*
%TO.C,U49*%
X550280000Y-276000000D03*
X535280000Y-261000000D03*
X565280000Y-261000000D03*
X550280000Y-246000000D03*
D11*
X540280000Y-243500000D03*
X540280000Y-246000000D03*
X540280000Y-248500000D03*
X540280000Y-251000000D03*
X540280000Y-253500000D03*
X540280000Y-256000000D03*
X540280000Y-258500000D03*
X540280000Y-261000000D03*
X532780000Y-271000000D03*
X535280000Y-271000000D03*
X537780000Y-271000000D03*
X540280000Y-271000000D03*
X542780000Y-271000000D03*
X545280000Y-271000000D03*
X547780000Y-271000000D03*
X550280000Y-271000000D03*
X560280000Y-278500000D03*
X560280000Y-276000000D03*
X560280000Y-273500000D03*
X560280000Y-271000000D03*
X560280000Y-268500000D03*
X560280000Y-266000000D03*
X560280000Y-263500000D03*
X560280000Y-261000000D03*
X567780000Y-251000000D03*
X565280000Y-251000000D03*
X562780000Y-251000000D03*
X560280000Y-251000000D03*
X557780000Y-251000000D03*
X555280000Y-251000000D03*
X552780000Y-251000000D03*
X550280000Y-251000000D03*
X532780000Y-278500000D03*
X535280000Y-278500000D03*
X537780000Y-278500000D03*
X540280000Y-278500000D03*
X542780000Y-278500000D03*
X545280000Y-278500000D03*
X547780000Y-278500000D03*
X550280000Y-278500000D03*
X567780000Y-243500000D03*
X565280000Y-243500000D03*
X562780000Y-243500000D03*
X560280000Y-243500000D03*
X557780000Y-243500000D03*
X555280000Y-243500000D03*
X552780000Y-243500000D03*
X550280000Y-243500000D03*
%TD*%
D10*
%TO.C,U33*%
X470280000Y-276000000D03*
X455280000Y-261000000D03*
X485280000Y-261000000D03*
X470280000Y-246000000D03*
D11*
X460280000Y-243500000D03*
X460280000Y-246000000D03*
X460280000Y-248500000D03*
X460280000Y-251000000D03*
X460280000Y-253500000D03*
X460280000Y-256000000D03*
X460280000Y-258500000D03*
X460280000Y-261000000D03*
X452780000Y-271000000D03*
X455280000Y-271000000D03*
X457780000Y-271000000D03*
X460280000Y-271000000D03*
X462780000Y-271000000D03*
X465280000Y-271000000D03*
X467780000Y-271000000D03*
X470280000Y-271000000D03*
X480280000Y-278500000D03*
X480280000Y-276000000D03*
X480280000Y-273500000D03*
X480280000Y-271000000D03*
X480280000Y-268500000D03*
X480280000Y-266000000D03*
X480280000Y-263500000D03*
X480280000Y-261000000D03*
X487780000Y-251000000D03*
X485280000Y-251000000D03*
X482780000Y-251000000D03*
X480280000Y-251000000D03*
X477780000Y-251000000D03*
X475280000Y-251000000D03*
X472780000Y-251000000D03*
X470280000Y-251000000D03*
X452780000Y-278500000D03*
X455280000Y-278500000D03*
X457780000Y-278500000D03*
X460280000Y-278500000D03*
X462780000Y-278500000D03*
X465280000Y-278500000D03*
X467780000Y-278500000D03*
X470280000Y-278500000D03*
X487780000Y-243500000D03*
X485280000Y-243500000D03*
X482780000Y-243500000D03*
X480280000Y-243500000D03*
X477780000Y-243500000D03*
X475280000Y-243500000D03*
X472780000Y-243500000D03*
X470280000Y-243500000D03*
%TD*%
D12*
%TO.C,J2*%
X188000000Y-224000000D03*
D13*
X181700000Y-224000000D03*
D14*
X185100000Y-228800000D03*
%TD*%
D15*
%TO.C,J5*%
X186700000Y-245100000D03*
D16*
X184700000Y-245100000D03*
X182700000Y-245100000D03*
%TD*%
D10*
%TO.C,U39*%
X510280000Y-276000000D03*
X495280000Y-261000000D03*
X525280000Y-261000000D03*
X510280000Y-246000000D03*
D11*
X500280000Y-243500000D03*
X500280000Y-246000000D03*
X500280000Y-248500000D03*
X500280000Y-251000000D03*
X500280000Y-253500000D03*
X500280000Y-256000000D03*
X500280000Y-258500000D03*
X500280000Y-261000000D03*
X492780000Y-271000000D03*
X495280000Y-271000000D03*
X497780000Y-271000000D03*
X500280000Y-271000000D03*
X502780000Y-271000000D03*
X505280000Y-271000000D03*
X507780000Y-271000000D03*
X510280000Y-271000000D03*
X520280000Y-278500000D03*
X520280000Y-276000000D03*
X520280000Y-273500000D03*
X520280000Y-271000000D03*
X520280000Y-268500000D03*
X520280000Y-266000000D03*
X520280000Y-263500000D03*
X520280000Y-261000000D03*
X527780000Y-251000000D03*
X525280000Y-251000000D03*
X522780000Y-251000000D03*
X520280000Y-251000000D03*
X517780000Y-251000000D03*
X515280000Y-251000000D03*
X512780000Y-251000000D03*
X510280000Y-251000000D03*
X492780000Y-278500000D03*
X495280000Y-278500000D03*
X497780000Y-278500000D03*
X500280000Y-278500000D03*
X502780000Y-278500000D03*
X505280000Y-278500000D03*
X507780000Y-278500000D03*
X510280000Y-278500000D03*
X527780000Y-243500000D03*
X525280000Y-243500000D03*
X522780000Y-243500000D03*
X520280000Y-243500000D03*
X517780000Y-243500000D03*
X515280000Y-243500000D03*
X512780000Y-243500000D03*
X510280000Y-243500000D03*
%TD*%
D17*
%TO.C,H5*%
X177000000Y-345000000D03*
%TD*%
D10*
%TO.C,U34*%
X470280000Y-316000000D03*
X455280000Y-301000000D03*
X485280000Y-301000000D03*
X470280000Y-286000000D03*
D11*
X460280000Y-283500000D03*
X460280000Y-286000000D03*
X460280000Y-288500000D03*
X460280000Y-291000000D03*
X460280000Y-293500000D03*
X460280000Y-296000000D03*
X460280000Y-298500000D03*
X460280000Y-301000000D03*
X452780000Y-311000000D03*
X455280000Y-311000000D03*
X457780000Y-311000000D03*
X460280000Y-311000000D03*
X462780000Y-311000000D03*
X465280000Y-311000000D03*
X467780000Y-311000000D03*
X470280000Y-311000000D03*
X480280000Y-318500000D03*
X480280000Y-316000000D03*
X480280000Y-313500000D03*
X480280000Y-311000000D03*
X480280000Y-308500000D03*
X480280000Y-306000000D03*
X480280000Y-303500000D03*
X480280000Y-301000000D03*
X487780000Y-291000000D03*
X485280000Y-291000000D03*
X482780000Y-291000000D03*
X480280000Y-291000000D03*
X477780000Y-291000000D03*
X475280000Y-291000000D03*
X472780000Y-291000000D03*
X470280000Y-291000000D03*
X452780000Y-318500000D03*
X455280000Y-318500000D03*
X457780000Y-318500000D03*
X460280000Y-318500000D03*
X462780000Y-318500000D03*
X465280000Y-318500000D03*
X467780000Y-318500000D03*
X470280000Y-318500000D03*
X487780000Y-283500000D03*
X485280000Y-283500000D03*
X482780000Y-283500000D03*
X480280000Y-283500000D03*
X477780000Y-283500000D03*
X475280000Y-283500000D03*
X472780000Y-283500000D03*
X470280000Y-283500000D03*
%TD*%
D18*
%TO.C,J1*%
X214300000Y-243500000D03*
D19*
X214300000Y-241500000D03*
X214300000Y-239500000D03*
%TD*%
D17*
%TO.C,H8*%
X277000000Y-213000000D03*
%TD*%
D10*
%TO.C,U6*%
X310280000Y-316000000D03*
X295280000Y-301000000D03*
X325280000Y-301000000D03*
X310280000Y-286000000D03*
D11*
X300280000Y-283500000D03*
X300280000Y-286000000D03*
X300280000Y-288500000D03*
X300280000Y-291000000D03*
X300280000Y-293500000D03*
X300280000Y-296000000D03*
X300280000Y-298500000D03*
X300280000Y-301000000D03*
X292780000Y-311000000D03*
X295280000Y-311000000D03*
X297780000Y-311000000D03*
X300280000Y-311000000D03*
X302780000Y-311000000D03*
X305280000Y-311000000D03*
X307780000Y-311000000D03*
X310280000Y-311000000D03*
X320280000Y-318500000D03*
X320280000Y-316000000D03*
X320280000Y-313500000D03*
X320280000Y-311000000D03*
X320280000Y-308500000D03*
X320280000Y-306000000D03*
X320280000Y-303500000D03*
X320280000Y-301000000D03*
X327780000Y-291000000D03*
X325280000Y-291000000D03*
X322780000Y-291000000D03*
X320280000Y-291000000D03*
X317780000Y-291000000D03*
X315280000Y-291000000D03*
X312780000Y-291000000D03*
X310280000Y-291000000D03*
X292780000Y-318500000D03*
X295280000Y-318500000D03*
X297780000Y-318500000D03*
X300280000Y-318500000D03*
X302780000Y-318500000D03*
X305280000Y-318500000D03*
X307780000Y-318500000D03*
X310280000Y-318500000D03*
X327780000Y-283500000D03*
X325280000Y-283500000D03*
X322780000Y-283500000D03*
X320280000Y-283500000D03*
X317780000Y-283500000D03*
X315280000Y-283500000D03*
X312780000Y-283500000D03*
X310280000Y-283500000D03*
%TD*%
D20*
%TO.C,C1*%
X185000000Y-215500000D03*
X185000000Y-213000000D03*
%TD*%
D10*
%TO.C,U21*%
X390280000Y-276000000D03*
X375280000Y-261000000D03*
X405280000Y-261000000D03*
X390280000Y-246000000D03*
D11*
X380280000Y-243500000D03*
X380280000Y-246000000D03*
X380280000Y-248500000D03*
X380280000Y-251000000D03*
X380280000Y-253500000D03*
X380280000Y-256000000D03*
X380280000Y-258500000D03*
X380280000Y-261000000D03*
X372780000Y-271000000D03*
X375280000Y-271000000D03*
X377780000Y-271000000D03*
X380280000Y-271000000D03*
X382780000Y-271000000D03*
X385280000Y-271000000D03*
X387780000Y-271000000D03*
X390280000Y-271000000D03*
X400280000Y-278500000D03*
X400280000Y-276000000D03*
X400280000Y-273500000D03*
X400280000Y-271000000D03*
X400280000Y-268500000D03*
X400280000Y-266000000D03*
X400280000Y-263500000D03*
X400280000Y-261000000D03*
X407780000Y-251000000D03*
X405280000Y-251000000D03*
X402780000Y-251000000D03*
X400280000Y-251000000D03*
X397780000Y-251000000D03*
X395280000Y-251000000D03*
X392780000Y-251000000D03*
X390280000Y-251000000D03*
X372780000Y-278500000D03*
X375280000Y-278500000D03*
X377780000Y-278500000D03*
X380280000Y-278500000D03*
X382780000Y-278500000D03*
X385280000Y-278500000D03*
X387780000Y-278500000D03*
X390280000Y-278500000D03*
X407780000Y-243500000D03*
X405280000Y-243500000D03*
X402780000Y-243500000D03*
X400280000Y-243500000D03*
X397780000Y-243500000D03*
X395280000Y-243500000D03*
X392780000Y-243500000D03*
X390280000Y-243500000D03*
%TD*%
D10*
%TO.C,U3*%
X270280000Y-276000000D03*
X255280000Y-261000000D03*
X285280000Y-261000000D03*
X270280000Y-246000000D03*
D11*
X260280000Y-243500000D03*
X260280000Y-246000000D03*
X260280000Y-248500000D03*
X260280000Y-251000000D03*
X260280000Y-253500000D03*
X260280000Y-256000000D03*
X260280000Y-258500000D03*
X260280000Y-261000000D03*
X252780000Y-271000000D03*
X255280000Y-271000000D03*
X257780000Y-271000000D03*
X260280000Y-271000000D03*
X262780000Y-271000000D03*
X265280000Y-271000000D03*
X267780000Y-271000000D03*
X270280000Y-271000000D03*
X280280000Y-278500000D03*
X280280000Y-276000000D03*
X280280000Y-273500000D03*
X280280000Y-271000000D03*
X280280000Y-268500000D03*
X280280000Y-266000000D03*
X280280000Y-263500000D03*
X280280000Y-261000000D03*
X287780000Y-251000000D03*
X285280000Y-251000000D03*
X282780000Y-251000000D03*
X280280000Y-251000000D03*
X277780000Y-251000000D03*
X275280000Y-251000000D03*
X272780000Y-251000000D03*
X270280000Y-251000000D03*
X252780000Y-278500000D03*
X255280000Y-278500000D03*
X257780000Y-278500000D03*
X260280000Y-278500000D03*
X262780000Y-278500000D03*
X265280000Y-278500000D03*
X267780000Y-278500000D03*
X270280000Y-278500000D03*
X287780000Y-243500000D03*
X285280000Y-243500000D03*
X282780000Y-243500000D03*
X280280000Y-243500000D03*
X277780000Y-243500000D03*
X275280000Y-243500000D03*
X272780000Y-243500000D03*
X270280000Y-243500000D03*
%TD*%
D10*
%TO.C,U28*%
X430280000Y-316000000D03*
X415280000Y-301000000D03*
X445280000Y-301000000D03*
X430280000Y-286000000D03*
D11*
X420280000Y-283500000D03*
X420280000Y-286000000D03*
X420280000Y-288500000D03*
X420280000Y-291000000D03*
X420280000Y-293500000D03*
X420280000Y-296000000D03*
X420280000Y-298500000D03*
X420280000Y-301000000D03*
X412780000Y-311000000D03*
X415280000Y-311000000D03*
X417780000Y-311000000D03*
X420280000Y-311000000D03*
X422780000Y-311000000D03*
X425280000Y-311000000D03*
X427780000Y-311000000D03*
X430280000Y-311000000D03*
X440280000Y-318500000D03*
X440280000Y-316000000D03*
X440280000Y-313500000D03*
X440280000Y-311000000D03*
X440280000Y-308500000D03*
X440280000Y-306000000D03*
X440280000Y-303500000D03*
X440280000Y-301000000D03*
X447780000Y-291000000D03*
X445280000Y-291000000D03*
X442780000Y-291000000D03*
X440280000Y-291000000D03*
X437780000Y-291000000D03*
X435280000Y-291000000D03*
X432780000Y-291000000D03*
X430280000Y-291000000D03*
X412780000Y-318500000D03*
X415280000Y-318500000D03*
X417780000Y-318500000D03*
X420280000Y-318500000D03*
X422780000Y-318500000D03*
X425280000Y-318500000D03*
X427780000Y-318500000D03*
X430280000Y-318500000D03*
X447780000Y-283500000D03*
X445280000Y-283500000D03*
X442780000Y-283500000D03*
X440280000Y-283500000D03*
X437780000Y-283500000D03*
X435280000Y-283500000D03*
X432780000Y-283500000D03*
X430280000Y-283500000D03*
%TD*%
D10*
%TO.C,U27*%
X430280000Y-276000000D03*
X415280000Y-261000000D03*
X445280000Y-261000000D03*
X430280000Y-246000000D03*
D11*
X420280000Y-243500000D03*
X420280000Y-246000000D03*
X420280000Y-248500000D03*
X420280000Y-251000000D03*
X420280000Y-253500000D03*
X420280000Y-256000000D03*
X420280000Y-258500000D03*
X420280000Y-261000000D03*
X412780000Y-271000000D03*
X415280000Y-271000000D03*
X417780000Y-271000000D03*
X420280000Y-271000000D03*
X422780000Y-271000000D03*
X425280000Y-271000000D03*
X427780000Y-271000000D03*
X430280000Y-271000000D03*
X440280000Y-278500000D03*
X440280000Y-276000000D03*
X440280000Y-273500000D03*
X440280000Y-271000000D03*
X440280000Y-268500000D03*
X440280000Y-266000000D03*
X440280000Y-263500000D03*
X440280000Y-261000000D03*
X447780000Y-251000000D03*
X445280000Y-251000000D03*
X442780000Y-251000000D03*
X440280000Y-251000000D03*
X437780000Y-251000000D03*
X435280000Y-251000000D03*
X432780000Y-251000000D03*
X430280000Y-251000000D03*
X412780000Y-278500000D03*
X415280000Y-278500000D03*
X417780000Y-278500000D03*
X420280000Y-278500000D03*
X422780000Y-278500000D03*
X425280000Y-278500000D03*
X427780000Y-278500000D03*
X430280000Y-278500000D03*
X447780000Y-243500000D03*
X445280000Y-243500000D03*
X442780000Y-243500000D03*
X440280000Y-243500000D03*
X437780000Y-243500000D03*
X435280000Y-243500000D03*
X432780000Y-243500000D03*
X430280000Y-243500000D03*
%TD*%
D10*
%TO.C,U22*%
X390280000Y-316000000D03*
X375280000Y-301000000D03*
X405280000Y-301000000D03*
X390280000Y-286000000D03*
D11*
X380280000Y-283500000D03*
X380280000Y-286000000D03*
X380280000Y-288500000D03*
X380280000Y-291000000D03*
X380280000Y-293500000D03*
X380280000Y-296000000D03*
X380280000Y-298500000D03*
X380280000Y-301000000D03*
X372780000Y-311000000D03*
X375280000Y-311000000D03*
X377780000Y-311000000D03*
X380280000Y-311000000D03*
X382780000Y-311000000D03*
X385280000Y-311000000D03*
X387780000Y-311000000D03*
X390280000Y-311000000D03*
X400280000Y-318500000D03*
X400280000Y-316000000D03*
X400280000Y-313500000D03*
X400280000Y-311000000D03*
X400280000Y-308500000D03*
X400280000Y-306000000D03*
X400280000Y-303500000D03*
X400280000Y-301000000D03*
X407780000Y-291000000D03*
X405280000Y-291000000D03*
X402780000Y-291000000D03*
X400280000Y-291000000D03*
X397780000Y-291000000D03*
X395280000Y-291000000D03*
X392780000Y-291000000D03*
X390280000Y-291000000D03*
X372780000Y-318500000D03*
X375280000Y-318500000D03*
X377780000Y-318500000D03*
X380280000Y-318500000D03*
X382780000Y-318500000D03*
X385280000Y-318500000D03*
X387780000Y-318500000D03*
X390280000Y-318500000D03*
X407780000Y-283500000D03*
X405280000Y-283500000D03*
X402780000Y-283500000D03*
X400280000Y-283500000D03*
X397780000Y-283500000D03*
X395280000Y-283500000D03*
X392780000Y-283500000D03*
X390280000Y-283500000D03*
%TD*%
D21*
%TO.C,J4*%
X204500000Y-243900000D03*
D16*
X206500000Y-243900000D03*
X208500000Y-243900000D03*
%TD*%
D17*
%TO.C,H7*%
X277000000Y-345000000D03*
%TD*%
%TO.C,H1*%
X477000000Y-345000000D03*
%TD*%
D22*
%TO.C,J6*%
X246275000Y-220340000D03*
D23*
X245550000Y-215500000D03*
X230750000Y-215500000D03*
D22*
X230025000Y-220340000D03*
D10*
X234580000Y-220340000D03*
X235600000Y-217800000D03*
X236620000Y-220340000D03*
X237640000Y-217800000D03*
X238660000Y-220340000D03*
X239680000Y-217800000D03*
X240700000Y-220340000D03*
X241720000Y-217800000D03*
%TD*%
D17*
%TO.C,H10*%
X569000000Y-213000000D03*
%TD*%
%TO.C,H3*%
X477000000Y-213000000D03*
%TD*%
D10*
%TO.C,U4*%
X270280000Y-316000000D03*
X255280000Y-301000000D03*
X285280000Y-301000000D03*
X270280000Y-286000000D03*
D11*
X260280000Y-283500000D03*
X260280000Y-286000000D03*
X260280000Y-288500000D03*
X260280000Y-291000000D03*
X260280000Y-293500000D03*
X260280000Y-296000000D03*
X260280000Y-298500000D03*
X260280000Y-301000000D03*
X252780000Y-311000000D03*
X255280000Y-311000000D03*
X257780000Y-311000000D03*
X260280000Y-311000000D03*
X262780000Y-311000000D03*
X265280000Y-311000000D03*
X267780000Y-311000000D03*
X270280000Y-311000000D03*
X280280000Y-318500000D03*
X280280000Y-316000000D03*
X280280000Y-313500000D03*
X280280000Y-311000000D03*
X280280000Y-308500000D03*
X280280000Y-306000000D03*
X280280000Y-303500000D03*
X280280000Y-301000000D03*
X287780000Y-291000000D03*
X285280000Y-291000000D03*
X282780000Y-291000000D03*
X280280000Y-291000000D03*
X277780000Y-291000000D03*
X275280000Y-291000000D03*
X272780000Y-291000000D03*
X270280000Y-291000000D03*
X252780000Y-318500000D03*
X255280000Y-318500000D03*
X257780000Y-318500000D03*
X260280000Y-318500000D03*
X262780000Y-318500000D03*
X265280000Y-318500000D03*
X267780000Y-318500000D03*
X270280000Y-318500000D03*
X287780000Y-283500000D03*
X285280000Y-283500000D03*
X282780000Y-283500000D03*
X280280000Y-283500000D03*
X277780000Y-283500000D03*
X275280000Y-283500000D03*
X272780000Y-283500000D03*
X270280000Y-283500000D03*
%TD*%
D10*
%TO.C,U12*%
X350280000Y-316000000D03*
X335280000Y-301000000D03*
X365280000Y-301000000D03*
X350280000Y-286000000D03*
D11*
X340280000Y-283500000D03*
X340280000Y-286000000D03*
X340280000Y-288500000D03*
X340280000Y-291000000D03*
X340280000Y-293500000D03*
X340280000Y-296000000D03*
X340280000Y-298500000D03*
X340280000Y-301000000D03*
X332780000Y-311000000D03*
X335280000Y-311000000D03*
X337780000Y-311000000D03*
X340280000Y-311000000D03*
X342780000Y-311000000D03*
X345280000Y-311000000D03*
X347780000Y-311000000D03*
X350280000Y-311000000D03*
X360280000Y-318500000D03*
X360280000Y-316000000D03*
X360280000Y-313500000D03*
X360280000Y-311000000D03*
X360280000Y-308500000D03*
X360280000Y-306000000D03*
X360280000Y-303500000D03*
X360280000Y-301000000D03*
X367780000Y-291000000D03*
X365280000Y-291000000D03*
X362780000Y-291000000D03*
X360280000Y-291000000D03*
X357780000Y-291000000D03*
X355280000Y-291000000D03*
X352780000Y-291000000D03*
X350280000Y-291000000D03*
X332780000Y-318500000D03*
X335280000Y-318500000D03*
X337780000Y-318500000D03*
X340280000Y-318500000D03*
X342780000Y-318500000D03*
X345280000Y-318500000D03*
X347780000Y-318500000D03*
X350280000Y-318500000D03*
X367780000Y-283500000D03*
X365280000Y-283500000D03*
X362780000Y-283500000D03*
X360280000Y-283500000D03*
X357780000Y-283500000D03*
X355280000Y-283500000D03*
X352780000Y-283500000D03*
X350280000Y-283500000D03*
%TD*%
D10*
%TO.C,U50*%
X550280000Y-316000000D03*
X535280000Y-301000000D03*
X565280000Y-301000000D03*
X550280000Y-286000000D03*
D11*
X540280000Y-283500000D03*
X540280000Y-286000000D03*
X540280000Y-288500000D03*
X540280000Y-291000000D03*
X540280000Y-293500000D03*
X540280000Y-296000000D03*
X540280000Y-298500000D03*
X540280000Y-301000000D03*
X532780000Y-311000000D03*
X535280000Y-311000000D03*
X537780000Y-311000000D03*
X540280000Y-311000000D03*
X542780000Y-311000000D03*
X545280000Y-311000000D03*
X547780000Y-311000000D03*
X550280000Y-311000000D03*
X560280000Y-318500000D03*
X560280000Y-316000000D03*
X560280000Y-313500000D03*
X560280000Y-311000000D03*
X560280000Y-308500000D03*
X560280000Y-306000000D03*
X560280000Y-303500000D03*
X560280000Y-301000000D03*
X567780000Y-291000000D03*
X565280000Y-291000000D03*
X562780000Y-291000000D03*
X560280000Y-291000000D03*
X557780000Y-291000000D03*
X555280000Y-291000000D03*
X552780000Y-291000000D03*
X550280000Y-291000000D03*
X532780000Y-318500000D03*
X535280000Y-318500000D03*
X537780000Y-318500000D03*
X540280000Y-318500000D03*
X542780000Y-318500000D03*
X545280000Y-318500000D03*
X547780000Y-318500000D03*
X550280000Y-318500000D03*
X567780000Y-283500000D03*
X565280000Y-283500000D03*
X562780000Y-283500000D03*
X560280000Y-283500000D03*
X557780000Y-283500000D03*
X555280000Y-283500000D03*
X552780000Y-283500000D03*
X550280000Y-283500000D03*
%TD*%
D17*
%TO.C,H2*%
X177000000Y-213000000D03*
%TD*%
%TO.C,H9*%
X377000000Y-213000000D03*
%TD*%
%TO.C,H6*%
X569000000Y-345000000D03*
%TD*%
D10*
%TO.C,U11*%
X350280000Y-276000000D03*
X335280000Y-261000000D03*
X365280000Y-261000000D03*
X350280000Y-246000000D03*
D11*
X340280000Y-243500000D03*
X340280000Y-246000000D03*
X340280000Y-248500000D03*
X340280000Y-251000000D03*
X340280000Y-253500000D03*
X340280000Y-256000000D03*
X340280000Y-258500000D03*
X340280000Y-261000000D03*
X332780000Y-271000000D03*
X335280000Y-271000000D03*
X337780000Y-271000000D03*
X340280000Y-271000000D03*
X342780000Y-271000000D03*
X345280000Y-271000000D03*
X347780000Y-271000000D03*
X350280000Y-271000000D03*
X360280000Y-278500000D03*
X360280000Y-276000000D03*
X360280000Y-273500000D03*
X360280000Y-271000000D03*
X360280000Y-268500000D03*
X360280000Y-266000000D03*
X360280000Y-263500000D03*
X360280000Y-261000000D03*
X367780000Y-251000000D03*
X365280000Y-251000000D03*
X362780000Y-251000000D03*
X360280000Y-251000000D03*
X357780000Y-251000000D03*
X355280000Y-251000000D03*
X352780000Y-251000000D03*
X350280000Y-251000000D03*
X332780000Y-278500000D03*
X335280000Y-278500000D03*
X337780000Y-278500000D03*
X340280000Y-278500000D03*
X342780000Y-278500000D03*
X345280000Y-278500000D03*
X347780000Y-278500000D03*
X350280000Y-278500000D03*
X367780000Y-243500000D03*
X365280000Y-243500000D03*
X362780000Y-243500000D03*
X360280000Y-243500000D03*
X357780000Y-243500000D03*
X355280000Y-243500000D03*
X352780000Y-243500000D03*
X350280000Y-243500000D03*
%TD*%
D10*
%TO.C,U5*%
X310280000Y-276000000D03*
X295280000Y-261000000D03*
X325280000Y-261000000D03*
X310280000Y-246000000D03*
D11*
X300280000Y-243500000D03*
X300280000Y-246000000D03*
X300280000Y-248500000D03*
X300280000Y-251000000D03*
X300280000Y-253500000D03*
X300280000Y-256000000D03*
X300280000Y-258500000D03*
X300280000Y-261000000D03*
X292780000Y-271000000D03*
X295280000Y-271000000D03*
X297780000Y-271000000D03*
X300280000Y-271000000D03*
X302780000Y-271000000D03*
X305280000Y-271000000D03*
X307780000Y-271000000D03*
X310280000Y-271000000D03*
X320280000Y-278500000D03*
X320280000Y-276000000D03*
X320280000Y-273500000D03*
X320280000Y-271000000D03*
X320280000Y-268500000D03*
X320280000Y-266000000D03*
X320280000Y-263500000D03*
X320280000Y-261000000D03*
X327780000Y-251000000D03*
X325280000Y-251000000D03*
X322780000Y-251000000D03*
X320280000Y-251000000D03*
X317780000Y-251000000D03*
X315280000Y-251000000D03*
X312780000Y-251000000D03*
X310280000Y-251000000D03*
X292780000Y-278500000D03*
X295280000Y-278500000D03*
X297780000Y-278500000D03*
X300280000Y-278500000D03*
X302780000Y-278500000D03*
X305280000Y-278500000D03*
X307780000Y-278500000D03*
X310280000Y-278500000D03*
X327780000Y-243500000D03*
X325280000Y-243500000D03*
X322780000Y-243500000D03*
X320280000Y-243500000D03*
X317780000Y-243500000D03*
X315280000Y-243500000D03*
X312780000Y-243500000D03*
X310280000Y-243500000D03*
%TD*%
D17*
%TO.C,H4*%
X377000000Y-345000000D03*
%TD*%
D20*
%TO.C,C2*%
X205200000Y-219337500D03*
X205200000Y-216837500D03*
%TD*%
D24*
%TO.C,JP2*%
X223150000Y-236900000D03*
D25*
X221850000Y-236900000D03*
%TD*%
D24*
%TO.C,JP1*%
X223150000Y-234200000D03*
D25*
X221850000Y-234200000D03*
%TD*%
M02*
