M48
; DRILL file {KiCad 8.0.6} date 2025-05-14T01:23:15+0900
; FORMAT={-:-/ absolute / inch / decimal}
; #@! TF.CreationDate,2025-05-14T01:23:15+09:00
; #@! TF.GenerationSoftware,Kicad,Pcbnew,8.0.6
; #@! TF.FileFunction,NonPlated,1,2,NPTH
FMAT,2
INCH
; #@! TA.AperFunction,NonPlated,NPTH,ComponentDrill
T1C0.0512
; #@! TA.AperFunction,NonPlated,NPTH,ComponentDrill
T2C0.0591
; #@! TA.AperFunction,NonPlated,NPTH,ComponentDrill
T3C0.1004
; #@! TA.AperFunction,NonPlated,NPTH,ComponentDrill
T4C0.1260
%
G90
G05
T1
X10.0504Y-10.2756
X10.0504Y-11.8504
X10.6409Y-9.685
X10.6409Y-10.8661
X10.6409Y-11.2598
X10.6409Y-12.4409
X11.2315Y-10.2756
X11.2315Y-11.8504
X11.6252Y-10.2756
X11.6252Y-11.8504
X12.2157Y-9.685
X12.2157Y-10.8661
X12.2157Y-11.2598
X12.2157Y-12.4409
X12.8063Y-10.2756
X12.8063Y-11.8504
X13.2Y-10.2756
X13.2Y-11.8504
X13.7906Y-9.685
X13.7906Y-10.8661
X13.7906Y-11.2598
X13.7906Y-12.4409
X14.3811Y-10.2756
X14.3811Y-11.8504
X14.7748Y-10.2756
X14.7748Y-11.8504
X15.3654Y-9.685
X15.3654Y-10.8661
X15.3654Y-11.2598
X15.3654Y-12.4409
X15.9559Y-10.2756
X15.9559Y-11.8504
X16.3496Y-10.2756
X16.3496Y-11.8504
X16.9402Y-9.685
X16.9402Y-10.8661
X16.9402Y-11.2598
X16.9402Y-12.4409
X17.5307Y-10.2756
X17.5307Y-11.8504
X17.9244Y-10.2756
X17.9244Y-11.8504
X18.515Y-9.685
X18.515Y-10.8661
X18.515Y-11.2598
X18.515Y-12.4409
X19.1055Y-10.2756
X19.1055Y-11.8504
X19.4992Y-10.2756
X19.4992Y-11.8504
X20.0898Y-9.685
X20.0898Y-10.8661
X20.0898Y-11.2598
X20.0898Y-12.4409
X20.6803Y-10.2756
X20.6803Y-11.8504
X21.074Y-10.2756
X21.074Y-11.8504
X21.6646Y-9.685
X21.6646Y-10.8661
X21.6646Y-11.2598
X21.6646Y-12.4409
X22.2551Y-10.2756
X22.2551Y-11.8504
T2
X9.0561Y-8.6748
X9.6959Y-8.6748
T3
X9.0846Y-8.4843
X9.6673Y-8.4843
T4
X6.9685Y-8.3858
X6.9685Y-13.5827
X10.9055Y-8.3858
X10.9055Y-13.5827
X14.8425Y-8.3858
X14.8425Y-13.5827
X18.7795Y-8.3858
X18.7795Y-13.5827
X22.4016Y-8.3858
X22.4016Y-13.5827
M30
