%TF.GenerationSoftware,KiCad,Pcbnew,8.0.6*%
%TF.CreationDate,2025-05-14T01:22:40+09:00*%
%TF.ProjectId,denko_test,64656e6b-6f5f-4746-9573-742e6b696361,rev?*%
%TF.SameCoordinates,Original*%
%TF.FileFunction,Soldermask,Top*%
%TF.FilePolarity,Negative*%
%FSLAX46Y46*%
G04 Gerber Fmt 4.6, Leading zero omitted, Abs format (unit mm)*
G04 Created by KiCad (PCBNEW 8.0.6) date 2025-05-14 01:22:40*
%MOMM*%
%LPD*%
G01*
G04 APERTURE LIST*
G04 Aperture macros list*
%AMRoundRect*
0 Rectangle with rounded corners*
0 $1 Rounding radius*
0 $2 $3 $4 $5 $6 $7 $8 $9 X,Y pos of 4 corners*
0 Add a 4 corners polygon primitive as box body*
4,1,4,$2,$3,$4,$5,$6,$7,$8,$9,$2,$3,0*
0 Add four circle primitives for the rounded corners*
1,1,$1+$1,$2,$3*
1,1,$1+$1,$4,$5*
1,1,$1+$1,$6,$7*
1,1,$1+$1,$8,$9*
0 Add four rect primitives between the rounded corners*
20,1,$1+$1,$2,$3,$4,$5,0*
20,1,$1+$1,$4,$5,$6,$7,0*
20,1,$1+$1,$6,$7,$8,$9,0*
20,1,$1+$1,$8,$9,$2,$3,0*%
G04 Aperture macros list end*
%ADD10RoundRect,0.237500X0.237500X-0.250000X0.237500X0.250000X-0.237500X0.250000X-0.237500X-0.250000X0*%
%ADD11RoundRect,0.237500X-0.237500X0.250000X-0.237500X-0.250000X0.237500X-0.250000X0.237500X0.250000X0*%
%ADD12RoundRect,0.237500X-0.300000X-0.237500X0.300000X-0.237500X0.300000X0.237500X-0.300000X0.237500X0*%
%ADD13RoundRect,0.250000X-0.850000X-0.350000X0.850000X-0.350000X0.850000X0.350000X-0.850000X0.350000X0*%
%ADD14RoundRect,0.249997X-2.950003X-2.650003X2.950003X-2.650003X2.950003X2.650003X-2.950003X2.650003X0*%
%ADD15RoundRect,0.150000X-0.587500X-0.150000X0.587500X-0.150000X0.587500X0.150000X-0.587500X0.150000X0*%
%ADD16RoundRect,0.150000X0.150000X-0.725000X0.150000X0.725000X-0.150000X0.725000X-0.150000X-0.725000X0*%
%ADD17RoundRect,0.237500X0.287500X0.237500X-0.287500X0.237500X-0.287500X-0.237500X0.287500X-0.237500X0*%
%ADD18RoundRect,0.150000X-0.150000X0.725000X-0.150000X-0.725000X0.150000X-0.725000X0.150000X0.725000X0*%
%ADD19RoundRect,0.237500X0.300000X0.237500X-0.300000X0.237500X-0.300000X-0.237500X0.300000X-0.237500X0*%
%ADD20C,1.500000*%
%ADD21C,1.300000*%
%ADD22RoundRect,0.237500X-0.250000X-0.237500X0.250000X-0.237500X0.250000X0.237500X-0.250000X0.237500X0*%
%ADD23R,2.000000X4.600000*%
%ADD24O,2.000000X4.200000*%
%ADD25O,4.200000X2.000000*%
%ADD26RoundRect,0.250000X0.350000X0.625000X-0.350000X0.625000X-0.350000X-0.625000X0.350000X-0.625000X0*%
%ADD27O,1.200000X1.750000*%
%ADD28C,3.200000*%
%ADD29RoundRect,0.250000X0.625000X-0.350000X0.625000X0.350000X-0.625000X0.350000X-0.625000X-0.350000X0*%
%ADD30O,1.750000X1.200000*%
%ADD31RoundRect,0.237500X0.237500X-0.300000X0.237500X0.300000X-0.237500X0.300000X-0.237500X-0.300000X0*%
%ADD32C,1.600000*%
%ADD33RoundRect,0.125000X0.625000X0.125000X-0.625000X0.125000X-0.625000X-0.125000X0.625000X-0.125000X0*%
%ADD34RoundRect,0.125000X0.125000X0.625000X-0.125000X0.625000X-0.125000X-0.625000X0.125000X-0.625000X0*%
%ADD35RoundRect,0.250000X-0.350000X-0.625000X0.350000X-0.625000X0.350000X0.625000X-0.350000X0.625000X0*%
%ADD36R,0.700000X1.200000*%
%ADD37R,1.000000X0.800000*%
%ADD38R,1.000000X1.200000*%
%ADD39R,1.000000X2.800000*%
%ADD40R,1.300000X1.900000*%
%ADD41C,2.000000*%
%ADD42C,3.000000*%
%ADD43RoundRect,0.250000X0.350000X-0.850000X0.350000X0.850000X-0.350000X0.850000X-0.350000X-0.850000X0*%
%ADD44RoundRect,0.249997X2.650003X-2.950003X2.650003X2.950003X-2.650003X2.950003X-2.650003X-2.950003X0*%
%ADD45RoundRect,0.237500X-0.237500X0.300000X-0.237500X-0.300000X0.237500X-0.300000X0.237500X0.300000X0*%
%ADD46RoundRect,0.125000X-0.125000X0.625000X-0.125000X-0.625000X0.125000X-0.625000X0.125000X0.625000X0*%
%ADD47RoundRect,0.125000X-0.625000X0.125000X-0.625000X-0.125000X0.625000X-0.125000X0.625000X0.125000X0*%
G04 APERTURE END LIST*
D10*
%TO.C,R53*%
X231225000Y-301925000D03*
X231225000Y-300100000D03*
%TD*%
%TO.C,R62*%
X225825000Y-259542500D03*
X225825000Y-257717500D03*
%TD*%
%TO.C,R394*%
X555480000Y-324000000D03*
X555480000Y-322175000D03*
%TD*%
%TO.C,R395*%
X556980000Y-324000000D03*
X556980000Y-322175000D03*
%TD*%
D11*
%TO.C,R351*%
X383980000Y-237500000D03*
X383980000Y-239325000D03*
%TD*%
%TO.C,R127*%
X211525000Y-335162500D03*
X211525000Y-336987500D03*
%TD*%
D10*
%TO.C,R218*%
X453480000Y-323725000D03*
X453480000Y-321900000D03*
%TD*%
D11*
%TO.C,R262*%
X478180000Y-237400000D03*
X478180000Y-239225000D03*
%TD*%
D10*
%TO.C,R67*%
X188425000Y-276462500D03*
X188425000Y-274637500D03*
%TD*%
D12*
%TO.C,C37*%
X342000000Y-342400000D03*
X343725000Y-342400000D03*
%TD*%
D13*
%TO.C,Q61*%
X213825000Y-264757500D03*
X213825000Y-267037500D03*
D14*
X220125000Y-267037500D03*
D13*
X213825000Y-269317500D03*
%TD*%
D10*
%TO.C,R253*%
X310480000Y-324525000D03*
X310480000Y-322700000D03*
%TD*%
D15*
%TO.C,Q18*%
X184850000Y-317212500D03*
X184850000Y-319112500D03*
X186725000Y-318162500D03*
%TD*%
D16*
%TO.C,U20*%
X287935000Y-225075000D03*
X289205000Y-225075000D03*
X290475000Y-225075000D03*
X291745000Y-225075000D03*
X293015000Y-225075000D03*
X294285000Y-225075000D03*
X295555000Y-225075000D03*
X296825000Y-225075000D03*
X296825000Y-219925000D03*
X295555000Y-219925000D03*
X294285000Y-219925000D03*
X293015000Y-219925000D03*
X291745000Y-219925000D03*
X290475000Y-219925000D03*
X289205000Y-219925000D03*
X287935000Y-219925000D03*
%TD*%
D11*
%TO.C,R374*%
X560780000Y-237000000D03*
X560780000Y-238825000D03*
%TD*%
D17*
%TO.C,D2*%
X202650000Y-222400000D03*
X200900000Y-222400000D03*
%TD*%
D18*
%TO.C,U62*%
X284665000Y-227925000D03*
X283395000Y-227925000D03*
X282125000Y-227925000D03*
X280855000Y-227925000D03*
X279585000Y-227925000D03*
X278315000Y-227925000D03*
X277045000Y-227925000D03*
X275775000Y-227925000D03*
X275775000Y-233075000D03*
X277045000Y-233075000D03*
X278315000Y-233075000D03*
X279585000Y-233075000D03*
X280855000Y-233075000D03*
X282125000Y-233075000D03*
X283395000Y-233075000D03*
X284665000Y-233075000D03*
%TD*%
D16*
%TO.C,U26*%
X298635000Y-225075000D03*
X299905000Y-225075000D03*
X301175000Y-225075000D03*
X302445000Y-225075000D03*
X303715000Y-225075000D03*
X304985000Y-225075000D03*
X306255000Y-225075000D03*
X307525000Y-225075000D03*
X307525000Y-219925000D03*
X306255000Y-219925000D03*
X304985000Y-219925000D03*
X303715000Y-219925000D03*
X302445000Y-219925000D03*
X301175000Y-219925000D03*
X299905000Y-219925000D03*
X298635000Y-219925000D03*
%TD*%
D12*
%TO.C,C25*%
X382837500Y-217900000D03*
X384562500Y-217900000D03*
%TD*%
D18*
%TO.C,U84*%
X390400000Y-228000000D03*
X389130000Y-228000000D03*
X387860000Y-228000000D03*
X386590000Y-228000000D03*
X385320000Y-228000000D03*
X384050000Y-228000000D03*
X382780000Y-228000000D03*
X381510000Y-228000000D03*
X381510000Y-233150000D03*
X382780000Y-233150000D03*
X384050000Y-233150000D03*
X385320000Y-233150000D03*
X386590000Y-233150000D03*
X387860000Y-233150000D03*
X389130000Y-233150000D03*
X390400000Y-233150000D03*
%TD*%
D11*
%TO.C,R290*%
X501280000Y-237300000D03*
X501280000Y-239125000D03*
%TD*%
D10*
%TO.C,R84*%
X188575000Y-302025000D03*
X188575000Y-300200000D03*
%TD*%
D13*
%TO.C,Q56*%
X234950000Y-333795000D03*
X234950000Y-336075000D03*
D14*
X241250000Y-336075000D03*
D13*
X234950000Y-338355000D03*
%TD*%
D10*
%TO.C,R187*%
X433680000Y-323900000D03*
X433680000Y-322075000D03*
%TD*%
%TO.C,R52*%
X188325000Y-250275000D03*
X188325000Y-248450000D03*
%TD*%
D13*
%TO.C,Q43*%
X192225000Y-256232500D03*
X192225000Y-258512500D03*
D14*
X198525000Y-258512500D03*
D13*
X192225000Y-260792500D03*
%TD*%
D10*
%TO.C,R397*%
X559980000Y-324000000D03*
X559980000Y-322175000D03*
%TD*%
%TO.C,R191*%
X439680000Y-323900000D03*
X439680000Y-322075000D03*
%TD*%
D11*
%TO.C,R123*%
X232825000Y-291600000D03*
X232825000Y-293425000D03*
%TD*%
D10*
%TO.C,R128*%
X183100000Y-310305000D03*
X183100000Y-308480000D03*
%TD*%
D11*
%TO.C,R295*%
X346480000Y-236700000D03*
X346480000Y-238525000D03*
%TD*%
D16*
%TO.C,U59*%
X432035000Y-331400000D03*
X433305000Y-331400000D03*
X434575000Y-331400000D03*
X435845000Y-331400000D03*
X437115000Y-331400000D03*
X438385000Y-331400000D03*
X439655000Y-331400000D03*
X440925000Y-331400000D03*
X440925000Y-326250000D03*
X439655000Y-326250000D03*
X438385000Y-326250000D03*
X437115000Y-326250000D03*
X435845000Y-326250000D03*
X434575000Y-326250000D03*
X433305000Y-326250000D03*
X432035000Y-326250000D03*
%TD*%
D11*
%TO.C,R43*%
X190025000Y-317250000D03*
X190025000Y-319075000D03*
%TD*%
%TO.C,R92*%
X232900000Y-308657500D03*
X232900000Y-310482500D03*
%TD*%
D19*
%TO.C,C4*%
X548900000Y-342300000D03*
X547175000Y-342300000D03*
%TD*%
D11*
%TO.C,R268*%
X311160000Y-237500000D03*
X311160000Y-239325000D03*
%TD*%
D10*
%TO.C,R120*%
X181600000Y-310305000D03*
X181600000Y-308480000D03*
%TD*%
%TO.C,R278*%
X316480000Y-324537500D03*
X316480000Y-322712500D03*
%TD*%
D11*
%TO.C,R74*%
X211600000Y-257562500D03*
X211600000Y-259387500D03*
%TD*%
D10*
%TO.C,R220*%
X456480000Y-323725000D03*
X456480000Y-321900000D03*
%TD*%
%TO.C,R328*%
X512580000Y-324125000D03*
X512580000Y-322300000D03*
%TD*%
D13*
%TO.C,Q36*%
X213825000Y-256282500D03*
X213825000Y-258562500D03*
D14*
X220125000Y-258562500D03*
D13*
X213825000Y-260842500D03*
%TD*%
D12*
%TO.C,C26*%
X340837500Y-217900000D03*
X342562500Y-217900000D03*
%TD*%
%TO.C,C19*%
X501100000Y-217900000D03*
X502825000Y-217900000D03*
%TD*%
D18*
%TO.C,U15*%
X442670000Y-335150000D03*
X441400000Y-335150000D03*
X440130000Y-335150000D03*
X438860000Y-335150000D03*
X437590000Y-335150000D03*
X436320000Y-335150000D03*
X435050000Y-335150000D03*
X433780000Y-335150000D03*
X433780000Y-340300000D03*
X435050000Y-340300000D03*
X436320000Y-340300000D03*
X437590000Y-340300000D03*
X438860000Y-340300000D03*
X440130000Y-340300000D03*
X441400000Y-340300000D03*
X442670000Y-340300000D03*
%TD*%
D11*
%TO.C,R28*%
X211600000Y-317192500D03*
X211600000Y-319017500D03*
%TD*%
%TO.C,R178*%
X274080000Y-235800000D03*
X274080000Y-237625000D03*
%TD*%
%TO.C,R259*%
X482680000Y-237400000D03*
X482680000Y-239225000D03*
%TD*%
D10*
%TO.C,R36*%
X210100000Y-319017500D03*
X210100000Y-317192500D03*
%TD*%
D11*
%TO.C,R349*%
X386980000Y-237500000D03*
X386980000Y-239325000D03*
%TD*%
%TO.C,R93*%
X211650000Y-283237500D03*
X211650000Y-285062500D03*
%TD*%
%TO.C,R377*%
X556280000Y-237000000D03*
X556280000Y-238825000D03*
%TD*%
D12*
%TO.C,C29*%
X288000000Y-217800000D03*
X289725000Y-217800000D03*
%TD*%
D13*
%TO.C,Q48*%
X192150000Y-324607500D03*
X192150000Y-326887500D03*
D14*
X198450000Y-326887500D03*
D13*
X192150000Y-329167500D03*
%TD*%
D11*
%TO.C,R265*%
X338980000Y-236700000D03*
X338980000Y-238525000D03*
%TD*%
%TO.C,R172*%
X435480000Y-236900000D03*
X435480000Y-238725000D03*
%TD*%
D18*
%TO.C,U17*%
X310160000Y-335150000D03*
X308890000Y-335150000D03*
X307620000Y-335150000D03*
X306350000Y-335150000D03*
X305080000Y-335150000D03*
X303810000Y-335150000D03*
X302540000Y-335150000D03*
X301270000Y-335150000D03*
X301270000Y-340300000D03*
X302540000Y-340300000D03*
X303810000Y-340300000D03*
X305080000Y-340300000D03*
X306350000Y-340300000D03*
X307620000Y-340300000D03*
X308890000Y-340300000D03*
X310160000Y-340300000D03*
%TD*%
D15*
%TO.C,Q49*%
X227625000Y-266062500D03*
X227625000Y-267962500D03*
X229500000Y-267012500D03*
%TD*%
D20*
%TO.C,U40*%
X510280000Y-316000000D03*
X495280000Y-301000000D03*
X525280000Y-301000000D03*
X510280000Y-286000000D03*
D21*
X500280000Y-283500000D03*
X500280000Y-286000000D03*
X500280000Y-288500000D03*
X500280000Y-291000000D03*
X500280000Y-293500000D03*
X500280000Y-296000000D03*
X500280000Y-298500000D03*
X500280000Y-301000000D03*
X492780000Y-311000000D03*
X495280000Y-311000000D03*
X497780000Y-311000000D03*
X500280000Y-311000000D03*
X502780000Y-311000000D03*
X505280000Y-311000000D03*
X507780000Y-311000000D03*
X510280000Y-311000000D03*
X520280000Y-318500000D03*
X520280000Y-316000000D03*
X520280000Y-313500000D03*
X520280000Y-311000000D03*
X520280000Y-308500000D03*
X520280000Y-306000000D03*
X520280000Y-303500000D03*
X520280000Y-301000000D03*
X527780000Y-291000000D03*
X525280000Y-291000000D03*
X522780000Y-291000000D03*
X520280000Y-291000000D03*
X517780000Y-291000000D03*
X515280000Y-291000000D03*
X512780000Y-291000000D03*
X510280000Y-291000000D03*
X492780000Y-318500000D03*
X495280000Y-318500000D03*
X497780000Y-318500000D03*
X500280000Y-318500000D03*
X502780000Y-318500000D03*
X505280000Y-318500000D03*
X507780000Y-318500000D03*
X510280000Y-318500000D03*
X527780000Y-283500000D03*
X525280000Y-283500000D03*
X522780000Y-283500000D03*
X520280000Y-283500000D03*
X517780000Y-283500000D03*
X515280000Y-283500000D03*
X512780000Y-283500000D03*
X510280000Y-283500000D03*
%TD*%
D11*
%TO.C,R239*%
X300300000Y-237490000D03*
X300300000Y-239315000D03*
%TD*%
D10*
%TO.C,R333*%
X520080000Y-324125000D03*
X520080000Y-322300000D03*
%TD*%
D11*
%TO.C,R267*%
X312660000Y-237500000D03*
X312660000Y-239325000D03*
%TD*%
D15*
%TO.C,Q27*%
X206487500Y-300212500D03*
X206487500Y-302112500D03*
X208362500Y-301162500D03*
%TD*%
D10*
%TO.C,R51*%
X188525000Y-319075000D03*
X188525000Y-317250000D03*
%TD*%
%TO.C,R113*%
X225850000Y-336767500D03*
X225850000Y-334942500D03*
%TD*%
D16*
%TO.C,U82*%
X348780000Y-331950000D03*
X350050000Y-331950000D03*
X351320000Y-331950000D03*
X352590000Y-331950000D03*
X353860000Y-331950000D03*
X355130000Y-331950000D03*
X356400000Y-331950000D03*
X357670000Y-331950000D03*
X357670000Y-326800000D03*
X356400000Y-326800000D03*
X355130000Y-326800000D03*
X353860000Y-326800000D03*
X352590000Y-326800000D03*
X351320000Y-326800000D03*
X350050000Y-326800000D03*
X348780000Y-326800000D03*
%TD*%
D11*
%TO.C,R9*%
X190000000Y-265887500D03*
X190000000Y-267712500D03*
%TD*%
%TO.C,R173*%
X433980000Y-236900000D03*
X433980000Y-238725000D03*
%TD*%
D18*
%TO.C,U19*%
X468060000Y-335150000D03*
X466790000Y-335150000D03*
X465520000Y-335150000D03*
X464250000Y-335150000D03*
X462980000Y-335150000D03*
X461710000Y-335150000D03*
X460440000Y-335150000D03*
X459170000Y-335150000D03*
X459170000Y-340300000D03*
X460440000Y-340300000D03*
X461710000Y-340300000D03*
X462980000Y-340300000D03*
X464250000Y-340300000D03*
X465520000Y-340300000D03*
X466790000Y-340300000D03*
X468060000Y-340300000D03*
%TD*%
%TO.C,U75*%
X509670000Y-228000000D03*
X508400000Y-228000000D03*
X507130000Y-228000000D03*
X505860000Y-228000000D03*
X504590000Y-228000000D03*
X503320000Y-228000000D03*
X502050000Y-228000000D03*
X500780000Y-228000000D03*
X500780000Y-233150000D03*
X502050000Y-233150000D03*
X503320000Y-233150000D03*
X504590000Y-233150000D03*
X505860000Y-233150000D03*
X507130000Y-233150000D03*
X508400000Y-233150000D03*
X509670000Y-233150000D03*
%TD*%
D10*
%TO.C,R227*%
X297680000Y-323925000D03*
X297680000Y-322100000D03*
%TD*%
%TO.C,R78*%
X225900000Y-284825000D03*
X225900000Y-283000000D03*
%TD*%
%TO.C,R196*%
X274280000Y-323925000D03*
X274280000Y-322100000D03*
%TD*%
D19*
%TO.C,C34*%
X197862500Y-241000000D03*
X196137500Y-241000000D03*
%TD*%
D10*
%TO.C,R100*%
X210150000Y-285075000D03*
X210150000Y-283250000D03*
%TD*%
%TO.C,R251*%
X300680000Y-323925000D03*
X300680000Y-322100000D03*
%TD*%
D11*
%TO.C,R285*%
X512780000Y-237300000D03*
X512780000Y-239125000D03*
%TD*%
D12*
%TO.C,C24*%
X393700000Y-217800000D03*
X395425000Y-217800000D03*
%TD*%
D15*
%TO.C,Q41*%
X184825000Y-257637500D03*
X184825000Y-259537500D03*
X186700000Y-258587500D03*
%TD*%
D11*
%TO.C,R234*%
X461270000Y-237287500D03*
X461270000Y-239112500D03*
%TD*%
%TO.C,R77*%
X190075000Y-300200000D03*
X190075000Y-302025000D03*
%TD*%
%TO.C,R200*%
X458270000Y-237287500D03*
X458270000Y-239112500D03*
%TD*%
D20*
%TO.C,U49*%
X550280000Y-276000000D03*
X535280000Y-261000000D03*
X565280000Y-261000000D03*
X550280000Y-246000000D03*
D21*
X540280000Y-243500000D03*
X540280000Y-246000000D03*
X540280000Y-248500000D03*
X540280000Y-251000000D03*
X540280000Y-253500000D03*
X540280000Y-256000000D03*
X540280000Y-258500000D03*
X540280000Y-261000000D03*
X532780000Y-271000000D03*
X535280000Y-271000000D03*
X537780000Y-271000000D03*
X540280000Y-271000000D03*
X542780000Y-271000000D03*
X545280000Y-271000000D03*
X547780000Y-271000000D03*
X550280000Y-271000000D03*
X560280000Y-278500000D03*
X560280000Y-276000000D03*
X560280000Y-273500000D03*
X560280000Y-271000000D03*
X560280000Y-268500000D03*
X560280000Y-266000000D03*
X560280000Y-263500000D03*
X560280000Y-261000000D03*
X567780000Y-251000000D03*
X565280000Y-251000000D03*
X562780000Y-251000000D03*
X560280000Y-251000000D03*
X557780000Y-251000000D03*
X555280000Y-251000000D03*
X552780000Y-251000000D03*
X550280000Y-251000000D03*
X532780000Y-278500000D03*
X535280000Y-278500000D03*
X537780000Y-278500000D03*
X540280000Y-278500000D03*
X542780000Y-278500000D03*
X545280000Y-278500000D03*
X547780000Y-278500000D03*
X550280000Y-278500000D03*
X567780000Y-243500000D03*
X565280000Y-243500000D03*
X562780000Y-243500000D03*
X560280000Y-243500000D03*
X557780000Y-243500000D03*
X555280000Y-243500000D03*
X552780000Y-243500000D03*
X550280000Y-243500000D03*
%TD*%
D10*
%TO.C,R24*%
X203200000Y-319030000D03*
X203200000Y-317205000D03*
%TD*%
%TO.C,R158*%
X411380000Y-324025000D03*
X411380000Y-322200000D03*
%TD*%
D12*
%TO.C,C12*%
X401100000Y-342300000D03*
X402825000Y-342300000D03*
%TD*%
D22*
%TO.C,R20*%
X197475000Y-222400000D03*
X199300000Y-222400000D03*
%TD*%
D11*
%TO.C,R318*%
X515780000Y-237300000D03*
X515780000Y-239125000D03*
%TD*%
D10*
%TO.C,R335*%
X353980000Y-324025000D03*
X353980000Y-322200000D03*
%TD*%
%TO.C,R54*%
X224325000Y-257717500D03*
X224325000Y-259542500D03*
%TD*%
%TO.C,R72*%
X181675000Y-302025000D03*
X181675000Y-300200000D03*
%TD*%
%TO.C,R195*%
X272780000Y-323925000D03*
X272780000Y-322100000D03*
%TD*%
D20*
%TO.C,U33*%
X470280000Y-276000000D03*
X455280000Y-261000000D03*
X485280000Y-261000000D03*
X470280000Y-246000000D03*
D21*
X460280000Y-243500000D03*
X460280000Y-246000000D03*
X460280000Y-248500000D03*
X460280000Y-251000000D03*
X460280000Y-253500000D03*
X460280000Y-256000000D03*
X460280000Y-258500000D03*
X460280000Y-261000000D03*
X452780000Y-271000000D03*
X455280000Y-271000000D03*
X457780000Y-271000000D03*
X460280000Y-271000000D03*
X462780000Y-271000000D03*
X465280000Y-271000000D03*
X467780000Y-271000000D03*
X470280000Y-271000000D03*
X480280000Y-278500000D03*
X480280000Y-276000000D03*
X480280000Y-273500000D03*
X480280000Y-271000000D03*
X480280000Y-268500000D03*
X480280000Y-266000000D03*
X480280000Y-263500000D03*
X480280000Y-261000000D03*
X487780000Y-251000000D03*
X485280000Y-251000000D03*
X482780000Y-251000000D03*
X480280000Y-251000000D03*
X477780000Y-251000000D03*
X475280000Y-251000000D03*
X472780000Y-251000000D03*
X470280000Y-251000000D03*
X452780000Y-278500000D03*
X455280000Y-278500000D03*
X457780000Y-278500000D03*
X460280000Y-278500000D03*
X462780000Y-278500000D03*
X465280000Y-278500000D03*
X467780000Y-278500000D03*
X470280000Y-278500000D03*
X487780000Y-243500000D03*
X485280000Y-243500000D03*
X482780000Y-243500000D03*
X480280000Y-243500000D03*
X477780000Y-243500000D03*
X475280000Y-243500000D03*
X472780000Y-243500000D03*
X470280000Y-243500000D03*
%TD*%
D10*
%TO.C,R330*%
X515580000Y-324125000D03*
X515580000Y-322300000D03*
%TD*%
D11*
%TO.C,R205*%
X438480000Y-236900000D03*
X438480000Y-238725000D03*
%TD*%
D16*
%TO.C,U8*%
X419780000Y-225050000D03*
X421050000Y-225050000D03*
X422320000Y-225050000D03*
X423590000Y-225050000D03*
X424860000Y-225050000D03*
X426130000Y-225050000D03*
X427400000Y-225050000D03*
X428670000Y-225050000D03*
X428670000Y-219900000D03*
X427400000Y-219900000D03*
X426130000Y-219900000D03*
X424860000Y-219900000D03*
X423590000Y-219900000D03*
X422320000Y-219900000D03*
X421050000Y-219900000D03*
X419780000Y-219900000D03*
%TD*%
D10*
%TO.C,R170*%
X264280000Y-323812500D03*
X264280000Y-321987500D03*
%TD*%
D18*
%TO.C,U23*%
X320570000Y-335150000D03*
X319300000Y-335150000D03*
X318030000Y-335150000D03*
X316760000Y-335150000D03*
X315490000Y-335150000D03*
X314220000Y-335150000D03*
X312950000Y-335150000D03*
X311680000Y-335150000D03*
X311680000Y-340300000D03*
X312950000Y-340300000D03*
X314220000Y-340300000D03*
X315490000Y-340300000D03*
X316760000Y-340300000D03*
X318030000Y-340300000D03*
X319300000Y-340300000D03*
X320570000Y-340300000D03*
%TD*%
D10*
%TO.C,R219*%
X454980000Y-323725000D03*
X454980000Y-321900000D03*
%TD*%
D23*
%TO.C,J2*%
X188000000Y-224000000D03*
D24*
X181700000Y-224000000D03*
D25*
X185100000Y-228800000D03*
%TD*%
D16*
%TO.C,U65*%
X278980000Y-331400000D03*
X280250000Y-331400000D03*
X281520000Y-331400000D03*
X282790000Y-331400000D03*
X284060000Y-331400000D03*
X285330000Y-331400000D03*
X286600000Y-331400000D03*
X287870000Y-331400000D03*
X287870000Y-326250000D03*
X286600000Y-326250000D03*
X285330000Y-326250000D03*
X284060000Y-326250000D03*
X282790000Y-326250000D03*
X281520000Y-326250000D03*
X280250000Y-326250000D03*
X278980000Y-326250000D03*
%TD*%
D10*
%TO.C,R4*%
X181600000Y-267712500D03*
X181600000Y-265887500D03*
%TD*%
D11*
%TO.C,R314*%
X521780000Y-237300000D03*
X521780000Y-239125000D03*
%TD*%
%TO.C,R149*%
X404480000Y-237400000D03*
X404480000Y-239225000D03*
%TD*%
D15*
%TO.C,Q37*%
X206475000Y-325912500D03*
X206475000Y-327812500D03*
X208350000Y-326862500D03*
%TD*%
%TO.C,Q44*%
X206512500Y-283212500D03*
X206512500Y-285112500D03*
X208387500Y-284162500D03*
%TD*%
D11*
%TO.C,R25*%
X211300000Y-248725000D03*
X211300000Y-250550000D03*
%TD*%
%TO.C,R353*%
X380980000Y-237500000D03*
X380980000Y-239325000D03*
%TD*%
D26*
%TO.C,J5*%
X186700000Y-245100000D03*
D27*
X184700000Y-245100000D03*
X182700000Y-245100000D03*
%TD*%
D10*
%TO.C,R88*%
X203250000Y-285075000D03*
X203250000Y-283250000D03*
%TD*%
%TO.C,R13*%
X225900000Y-319242500D03*
X225900000Y-317417500D03*
%TD*%
D16*
%TO.C,U32*%
X340880000Y-225050000D03*
X342150000Y-225050000D03*
X343420000Y-225050000D03*
X344690000Y-225050000D03*
X345960000Y-225050000D03*
X347230000Y-225050000D03*
X348500000Y-225050000D03*
X349770000Y-225050000D03*
X349770000Y-219900000D03*
X348500000Y-219900000D03*
X347230000Y-219900000D03*
X345960000Y-219900000D03*
X344690000Y-219900000D03*
X343420000Y-219900000D03*
X342150000Y-219900000D03*
X340880000Y-219900000D03*
%TD*%
D11*
%TO.C,R296*%
X344980000Y-236700000D03*
X344980000Y-238525000D03*
%TD*%
D18*
%TO.C,U83*%
X546870000Y-228000000D03*
X545600000Y-228000000D03*
X544330000Y-228000000D03*
X543060000Y-228000000D03*
X541790000Y-228000000D03*
X540520000Y-228000000D03*
X539250000Y-228000000D03*
X537980000Y-228000000D03*
X537980000Y-233150000D03*
X539250000Y-233150000D03*
X540520000Y-233150000D03*
X541790000Y-233150000D03*
X543060000Y-233150000D03*
X544330000Y-233150000D03*
X545600000Y-233150000D03*
X546870000Y-233150000D03*
%TD*%
%TO.C,U31*%
X509650000Y-335100000D03*
X508380000Y-335100000D03*
X507110000Y-335100000D03*
X505840000Y-335100000D03*
X504570000Y-335100000D03*
X503300000Y-335100000D03*
X502030000Y-335100000D03*
X500760000Y-335100000D03*
X500760000Y-340250000D03*
X502030000Y-340250000D03*
X503300000Y-340250000D03*
X504570000Y-340250000D03*
X505840000Y-340250000D03*
X507110000Y-340250000D03*
X508380000Y-340250000D03*
X509650000Y-340250000D03*
%TD*%
D11*
%TO.C,R323*%
X358180000Y-236712500D03*
X358180000Y-238537500D03*
%TD*%
%TO.C,R260*%
X481180000Y-237400000D03*
X481180000Y-239225000D03*
%TD*%
D20*
%TO.C,U39*%
X510280000Y-276000000D03*
X495280000Y-261000000D03*
X525280000Y-261000000D03*
X510280000Y-246000000D03*
D21*
X500280000Y-243500000D03*
X500280000Y-246000000D03*
X500280000Y-248500000D03*
X500280000Y-251000000D03*
X500280000Y-253500000D03*
X500280000Y-256000000D03*
X500280000Y-258500000D03*
X500280000Y-261000000D03*
X492780000Y-271000000D03*
X495280000Y-271000000D03*
X497780000Y-271000000D03*
X500280000Y-271000000D03*
X502780000Y-271000000D03*
X505280000Y-271000000D03*
X507780000Y-271000000D03*
X510280000Y-271000000D03*
X520280000Y-278500000D03*
X520280000Y-276000000D03*
X520280000Y-273500000D03*
X520280000Y-271000000D03*
X520280000Y-268500000D03*
X520280000Y-266000000D03*
X520280000Y-263500000D03*
X520280000Y-261000000D03*
X527780000Y-251000000D03*
X525280000Y-251000000D03*
X522780000Y-251000000D03*
X520280000Y-251000000D03*
X517780000Y-251000000D03*
X515280000Y-251000000D03*
X512780000Y-251000000D03*
X510280000Y-251000000D03*
X492780000Y-278500000D03*
X495280000Y-278500000D03*
X497780000Y-278500000D03*
X500280000Y-278500000D03*
X502780000Y-278500000D03*
X505280000Y-278500000D03*
X507780000Y-278500000D03*
X510280000Y-278500000D03*
X527780000Y-243500000D03*
X525280000Y-243500000D03*
X522780000Y-243500000D03*
X520280000Y-243500000D03*
X517780000Y-243500000D03*
X515280000Y-243500000D03*
X512780000Y-243500000D03*
X510280000Y-243500000D03*
%TD*%
D11*
%TO.C,R287*%
X505780000Y-237300000D03*
X505780000Y-239125000D03*
%TD*%
%TO.C,R348*%
X388480000Y-237500000D03*
X388480000Y-239325000D03*
%TD*%
%TO.C,R293*%
X350680000Y-236700000D03*
X350680000Y-238525000D03*
%TD*%
D16*
%TO.C,U86*%
X233260000Y-234100000D03*
X234530000Y-234100000D03*
X235800000Y-234100000D03*
X237070000Y-234100000D03*
X238340000Y-234100000D03*
X239610000Y-234100000D03*
X240880000Y-234100000D03*
X242150000Y-234100000D03*
X242150000Y-228950000D03*
X240880000Y-228950000D03*
X239610000Y-228950000D03*
X238340000Y-228950000D03*
X237070000Y-228950000D03*
X235800000Y-228950000D03*
X234530000Y-228950000D03*
X233260000Y-228950000D03*
%TD*%
D10*
%TO.C,R107*%
X225900000Y-267937500D03*
X225900000Y-266112500D03*
%TD*%
D15*
%TO.C,Q12*%
X206425000Y-317167500D03*
X206425000Y-319067500D03*
X208300000Y-318117500D03*
%TD*%
D28*
%TO.C,H5*%
X177000000Y-345000000D03*
%TD*%
D12*
%TO.C,C5*%
X559500000Y-342300000D03*
X561225000Y-342300000D03*
%TD*%
D11*
%TO.C,R375*%
X559280000Y-237000000D03*
X559280000Y-238825000D03*
%TD*%
D10*
%TO.C,R281*%
X320980000Y-324537500D03*
X320980000Y-322712500D03*
%TD*%
D20*
%TO.C,U34*%
X470280000Y-316000000D03*
X455280000Y-301000000D03*
X485280000Y-301000000D03*
X470280000Y-286000000D03*
D21*
X460280000Y-283500000D03*
X460280000Y-286000000D03*
X460280000Y-288500000D03*
X460280000Y-291000000D03*
X460280000Y-293500000D03*
X460280000Y-296000000D03*
X460280000Y-298500000D03*
X460280000Y-301000000D03*
X452780000Y-311000000D03*
X455280000Y-311000000D03*
X457780000Y-311000000D03*
X460280000Y-311000000D03*
X462780000Y-311000000D03*
X465280000Y-311000000D03*
X467780000Y-311000000D03*
X470280000Y-311000000D03*
X480280000Y-318500000D03*
X480280000Y-316000000D03*
X480280000Y-313500000D03*
X480280000Y-311000000D03*
X480280000Y-308500000D03*
X480280000Y-306000000D03*
X480280000Y-303500000D03*
X480280000Y-301000000D03*
X487780000Y-291000000D03*
X485280000Y-291000000D03*
X482780000Y-291000000D03*
X480280000Y-291000000D03*
X477780000Y-291000000D03*
X475280000Y-291000000D03*
X472780000Y-291000000D03*
X470280000Y-291000000D03*
X452780000Y-318500000D03*
X455280000Y-318500000D03*
X457780000Y-318500000D03*
X460280000Y-318500000D03*
X462780000Y-318500000D03*
X465280000Y-318500000D03*
X467780000Y-318500000D03*
X470280000Y-318500000D03*
X487780000Y-283500000D03*
X485280000Y-283500000D03*
X482780000Y-283500000D03*
X480280000Y-283500000D03*
X477780000Y-283500000D03*
X475280000Y-283500000D03*
X472780000Y-283500000D03*
X470280000Y-283500000D03*
%TD*%
D18*
%TO.C,U35*%
X352470000Y-335200000D03*
X351200000Y-335200000D03*
X349930000Y-335200000D03*
X348660000Y-335200000D03*
X347390000Y-335200000D03*
X346120000Y-335200000D03*
X344850000Y-335200000D03*
X343580000Y-335200000D03*
X343580000Y-340350000D03*
X344850000Y-340350000D03*
X346120000Y-340350000D03*
X347390000Y-340350000D03*
X348660000Y-340350000D03*
X349930000Y-340350000D03*
X351200000Y-340350000D03*
X352470000Y-340350000D03*
%TD*%
D16*
%TO.C,U14*%
X430180000Y-225050000D03*
X431450000Y-225050000D03*
X432720000Y-225050000D03*
X433990000Y-225050000D03*
X435260000Y-225050000D03*
X436530000Y-225050000D03*
X437800000Y-225050000D03*
X439070000Y-225050000D03*
X439070000Y-219900000D03*
X437800000Y-219900000D03*
X436530000Y-219900000D03*
X435260000Y-219900000D03*
X433990000Y-219900000D03*
X432720000Y-219900000D03*
X431450000Y-219900000D03*
X430180000Y-219900000D03*
%TD*%
D15*
%TO.C,Q33*%
X206425000Y-257537500D03*
X206425000Y-259437500D03*
X208300000Y-258487500D03*
%TD*%
D13*
%TO.C,Q62*%
X235000000Y-290307500D03*
X235000000Y-292587500D03*
D14*
X241300000Y-292587500D03*
D13*
X235000000Y-294867500D03*
%TD*%
D10*
%TO.C,R140*%
X402980000Y-324325000D03*
X402980000Y-322500000D03*
%TD*%
D11*
%TO.C,R382*%
X399980000Y-237400000D03*
X399980000Y-239225000D03*
%TD*%
%TO.C,R44*%
X189825000Y-248450000D03*
X189825000Y-250275000D03*
%TD*%
D15*
%TO.C,Q4*%
X227625000Y-317367500D03*
X227625000Y-319267500D03*
X229500000Y-318317500D03*
%TD*%
D12*
%TO.C,C16*%
X551900000Y-217900000D03*
X553625000Y-217900000D03*
%TD*%
D11*
%TO.C,R181*%
X269580000Y-235800000D03*
X269580000Y-237625000D03*
%TD*%
%TO.C,R76*%
X232800000Y-283012500D03*
X232800000Y-284837500D03*
%TD*%
%TO.C,R11*%
X232800000Y-317405000D03*
X232800000Y-319230000D03*
%TD*%
D13*
%TO.C,Q52*%
X235025000Y-264707500D03*
X235025000Y-266987500D03*
D14*
X241325000Y-266987500D03*
D13*
X235025000Y-269267500D03*
%TD*%
D10*
%TO.C,R15*%
X231225000Y-250675000D03*
X231225000Y-248850000D03*
%TD*%
D29*
%TO.C,J1*%
X214300000Y-243500000D03*
D30*
X214300000Y-241500000D03*
X214300000Y-239500000D03*
%TD*%
D10*
%TO.C,R398*%
X561480000Y-324000000D03*
X561480000Y-322175000D03*
%TD*%
%TO.C,R370*%
X380780000Y-323912500D03*
X380780000Y-322087500D03*
%TD*%
D18*
%TO.C,U61*%
X445770000Y-227900000D03*
X444500000Y-227900000D03*
X443230000Y-227900000D03*
X441960000Y-227900000D03*
X440690000Y-227900000D03*
X439420000Y-227900000D03*
X438150000Y-227900000D03*
X436880000Y-227900000D03*
X436880000Y-233050000D03*
X438150000Y-233050000D03*
X439420000Y-233050000D03*
X440690000Y-233050000D03*
X441960000Y-233050000D03*
X443230000Y-233050000D03*
X444500000Y-233050000D03*
X445770000Y-233050000D03*
%TD*%
D11*
%TO.C,R316*%
X518780000Y-237300000D03*
X518780000Y-239125000D03*
%TD*%
%TO.C,R80*%
X211575000Y-326000000D03*
X211575000Y-327825000D03*
%TD*%
D13*
%TO.C,Q22*%
X192200000Y-315857500D03*
X192200000Y-318137500D03*
D14*
X198500000Y-318137500D03*
D13*
X192200000Y-320417500D03*
%TD*%
D10*
%TO.C,R309*%
X339080000Y-324125000D03*
X339080000Y-322300000D03*
%TD*%
D13*
%TO.C,Q6*%
X213825000Y-290327500D03*
X213825000Y-292607500D03*
D14*
X220125000Y-292607500D03*
D13*
X213825000Y-294887500D03*
%TD*%
D10*
%TO.C,R213*%
X208200000Y-234000000D03*
X208200000Y-232175000D03*
%TD*%
D15*
%TO.C,Q3*%
X184825000Y-265862500D03*
X184825000Y-267762500D03*
X186700000Y-266812500D03*
%TD*%
D31*
%TO.C,C35*%
X277500000Y-340462500D03*
X277500000Y-338737500D03*
%TD*%
D28*
%TO.C,H8*%
X277000000Y-213000000D03*
%TD*%
D10*
%TO.C,R332*%
X518580000Y-324125000D03*
X518580000Y-322300000D03*
%TD*%
D16*
%TO.C,U77*%
X503490000Y-331900000D03*
X504760000Y-331900000D03*
X506030000Y-331900000D03*
X507300000Y-331900000D03*
X508570000Y-331900000D03*
X509840000Y-331900000D03*
X511110000Y-331900000D03*
X512380000Y-331900000D03*
X512380000Y-326750000D03*
X511110000Y-326750000D03*
X509840000Y-326750000D03*
X508570000Y-326750000D03*
X507300000Y-326750000D03*
X506030000Y-326750000D03*
X504760000Y-326750000D03*
X503490000Y-326750000D03*
%TD*%
D11*
%TO.C,R34*%
X231300000Y-274750000D03*
X231300000Y-276575000D03*
%TD*%
D10*
%TO.C,R157*%
X404480000Y-324325000D03*
X404480000Y-322500000D03*
%TD*%
D11*
%TO.C,R383*%
X398480000Y-237400000D03*
X398480000Y-239225000D03*
%TD*%
D20*
%TO.C,U6*%
X310280000Y-316000000D03*
X295280000Y-301000000D03*
X325280000Y-301000000D03*
X310280000Y-286000000D03*
D21*
X300280000Y-283500000D03*
X300280000Y-286000000D03*
X300280000Y-288500000D03*
X300280000Y-291000000D03*
X300280000Y-293500000D03*
X300280000Y-296000000D03*
X300280000Y-298500000D03*
X300280000Y-301000000D03*
X292780000Y-311000000D03*
X295280000Y-311000000D03*
X297780000Y-311000000D03*
X300280000Y-311000000D03*
X302780000Y-311000000D03*
X305280000Y-311000000D03*
X307780000Y-311000000D03*
X310280000Y-311000000D03*
X320280000Y-318500000D03*
X320280000Y-316000000D03*
X320280000Y-313500000D03*
X320280000Y-311000000D03*
X320280000Y-308500000D03*
X320280000Y-306000000D03*
X320280000Y-303500000D03*
X320280000Y-301000000D03*
X327780000Y-291000000D03*
X325280000Y-291000000D03*
X322780000Y-291000000D03*
X320280000Y-291000000D03*
X317780000Y-291000000D03*
X315280000Y-291000000D03*
X312780000Y-291000000D03*
X310280000Y-291000000D03*
X292780000Y-318500000D03*
X295280000Y-318500000D03*
X297780000Y-318500000D03*
X300280000Y-318500000D03*
X302780000Y-318500000D03*
X305280000Y-318500000D03*
X307780000Y-318500000D03*
X310280000Y-318500000D03*
X327780000Y-283500000D03*
X325280000Y-283500000D03*
X322780000Y-283500000D03*
X320280000Y-283500000D03*
X317780000Y-283500000D03*
X315280000Y-283500000D03*
X312780000Y-283500000D03*
X310280000Y-283500000D03*
%TD*%
D11*
%TO.C,R202*%
X455280000Y-237300000D03*
X455280000Y-239125000D03*
%TD*%
D16*
%TO.C,U78*%
X338360000Y-331950000D03*
X339630000Y-331950000D03*
X340900000Y-331950000D03*
X342170000Y-331950000D03*
X343440000Y-331950000D03*
X344710000Y-331950000D03*
X345980000Y-331950000D03*
X347250000Y-331950000D03*
X347250000Y-326800000D03*
X345980000Y-326800000D03*
X344710000Y-326800000D03*
X343440000Y-326800000D03*
X342170000Y-326800000D03*
X340900000Y-326800000D03*
X339630000Y-326800000D03*
X338360000Y-326800000D03*
%TD*%
D11*
%TO.C,R179*%
X272580000Y-235800000D03*
X272580000Y-237625000D03*
%TD*%
%TO.C,R237*%
X303680000Y-237500000D03*
X303680000Y-239325000D03*
%TD*%
D31*
%TO.C,C6*%
X219700000Y-233900000D03*
X219700000Y-232175000D03*
%TD*%
D10*
%TO.C,R91*%
X183100000Y-259512500D03*
X183100000Y-257687500D03*
%TD*%
%TO.C,R132*%
X188500000Y-310305000D03*
X188500000Y-308480000D03*
%TD*%
D12*
%TO.C,C18*%
X511500000Y-217900000D03*
X513225000Y-217900000D03*
%TD*%
D10*
%TO.C,R71*%
X224400000Y-284825000D03*
X224400000Y-283000000D03*
%TD*%
D12*
%TO.C,C20*%
X471400000Y-217800000D03*
X473125000Y-217800000D03*
%TD*%
D10*
%TO.C,R340*%
X373280000Y-323912500D03*
X373280000Y-322087500D03*
%TD*%
D32*
%TO.C,C1*%
X185000000Y-215500000D03*
X185000000Y-213000000D03*
%TD*%
D16*
%TO.C,U70*%
X306860000Y-332050000D03*
X308130000Y-332050000D03*
X309400000Y-332050000D03*
X310670000Y-332050000D03*
X311940000Y-332050000D03*
X313210000Y-332050000D03*
X314480000Y-332050000D03*
X315750000Y-332050000D03*
X315750000Y-326900000D03*
X314480000Y-326900000D03*
X313210000Y-326900000D03*
X311940000Y-326900000D03*
X310670000Y-326900000D03*
X309400000Y-326900000D03*
X308130000Y-326900000D03*
X306860000Y-326900000D03*
%TD*%
D18*
%TO.C,U54*%
X273525000Y-227925000D03*
X272255000Y-227925000D03*
X270985000Y-227925000D03*
X269715000Y-227925000D03*
X268445000Y-227925000D03*
X267175000Y-227925000D03*
X265905000Y-227925000D03*
X264635000Y-227925000D03*
X264635000Y-233075000D03*
X265905000Y-233075000D03*
X267175000Y-233075000D03*
X268445000Y-233075000D03*
X269715000Y-233075000D03*
X270985000Y-233075000D03*
X272255000Y-233075000D03*
X273525000Y-233075000D03*
%TD*%
D11*
%TO.C,R209*%
X291290000Y-237487500D03*
X291290000Y-239312500D03*
%TD*%
D10*
%TO.C,R367*%
X376280000Y-323900000D03*
X376280000Y-322075000D03*
%TD*%
%TO.C,R188*%
X435180000Y-323900000D03*
X435180000Y-322075000D03*
%TD*%
D12*
%TO.C,C22*%
X430200000Y-217900000D03*
X431925000Y-217900000D03*
%TD*%
D10*
%TO.C,R224*%
X293180000Y-323925000D03*
X293180000Y-322100000D03*
%TD*%
%TO.C,R16*%
X210150000Y-293532500D03*
X210150000Y-291707500D03*
%TD*%
D11*
%TO.C,R345*%
X539680000Y-236900000D03*
X539680000Y-238725000D03*
%TD*%
D17*
%TO.C,D1*%
X202650000Y-224100000D03*
X200900000Y-224100000D03*
%TD*%
D11*
%TO.C,R266*%
X337480000Y-236700000D03*
X337480000Y-238525000D03*
%TD*%
%TO.C,R269*%
X309660000Y-237500000D03*
X309660000Y-239325000D03*
%TD*%
D20*
%TO.C,U21*%
X390280000Y-276000000D03*
X375280000Y-261000000D03*
X405280000Y-261000000D03*
X390280000Y-246000000D03*
D21*
X380280000Y-243500000D03*
X380280000Y-246000000D03*
X380280000Y-248500000D03*
X380280000Y-251000000D03*
X380280000Y-253500000D03*
X380280000Y-256000000D03*
X380280000Y-258500000D03*
X380280000Y-261000000D03*
X372780000Y-271000000D03*
X375280000Y-271000000D03*
X377780000Y-271000000D03*
X380280000Y-271000000D03*
X382780000Y-271000000D03*
X385280000Y-271000000D03*
X387780000Y-271000000D03*
X390280000Y-271000000D03*
X400280000Y-278500000D03*
X400280000Y-276000000D03*
X400280000Y-273500000D03*
X400280000Y-271000000D03*
X400280000Y-268500000D03*
X400280000Y-266000000D03*
X400280000Y-263500000D03*
X400280000Y-261000000D03*
X407780000Y-251000000D03*
X405280000Y-251000000D03*
X402780000Y-251000000D03*
X400280000Y-251000000D03*
X397780000Y-251000000D03*
X395280000Y-251000000D03*
X392780000Y-251000000D03*
X390280000Y-251000000D03*
X372780000Y-278500000D03*
X375280000Y-278500000D03*
X377780000Y-278500000D03*
X380280000Y-278500000D03*
X382780000Y-278500000D03*
X385280000Y-278500000D03*
X387780000Y-278500000D03*
X390280000Y-278500000D03*
X407780000Y-243500000D03*
X405280000Y-243500000D03*
X402780000Y-243500000D03*
X400280000Y-243500000D03*
X397780000Y-243500000D03*
X395280000Y-243500000D03*
X392780000Y-243500000D03*
X390280000Y-243500000D03*
%TD*%
D10*
%TO.C,R279*%
X317980000Y-324537500D03*
X317980000Y-322712500D03*
%TD*%
D18*
%TO.C,U71*%
X481500000Y-228000000D03*
X480230000Y-228000000D03*
X478960000Y-228000000D03*
X477690000Y-228000000D03*
X476420000Y-228000000D03*
X475150000Y-228000000D03*
X473880000Y-228000000D03*
X472610000Y-228000000D03*
X472610000Y-233150000D03*
X473880000Y-233150000D03*
X475150000Y-233150000D03*
X476420000Y-233150000D03*
X477690000Y-233150000D03*
X478960000Y-233150000D03*
X480230000Y-233150000D03*
X481500000Y-233150000D03*
%TD*%
D11*
%TO.C,R175*%
X430980000Y-236900000D03*
X430980000Y-238725000D03*
%TD*%
%TO.C,R384*%
X396980000Y-237400000D03*
X396980000Y-239225000D03*
%TD*%
%TO.C,R350*%
X385480000Y-237500000D03*
X385480000Y-239325000D03*
%TD*%
D16*
%TO.C,U30*%
X501080000Y-225050000D03*
X502350000Y-225050000D03*
X503620000Y-225050000D03*
X504890000Y-225050000D03*
X506160000Y-225050000D03*
X507430000Y-225050000D03*
X508700000Y-225050000D03*
X509970000Y-225050000D03*
X509970000Y-219900000D03*
X508700000Y-219900000D03*
X507430000Y-219900000D03*
X506160000Y-219900000D03*
X504890000Y-219900000D03*
X503620000Y-219900000D03*
X502350000Y-219900000D03*
X501080000Y-219900000D03*
%TD*%
D13*
%TO.C,Q21*%
X213825000Y-273407500D03*
X213825000Y-275687500D03*
D14*
X220125000Y-275687500D03*
D13*
X213825000Y-277967500D03*
%TD*%
D10*
%TO.C,R134*%
X393980000Y-324325000D03*
X393980000Y-322500000D03*
%TD*%
%TO.C,R35*%
X188500000Y-293557500D03*
X188500000Y-291732500D03*
%TD*%
D20*
%TO.C,U3*%
X270280000Y-276000000D03*
X255280000Y-261000000D03*
X285280000Y-261000000D03*
X270280000Y-246000000D03*
D21*
X260280000Y-243500000D03*
X260280000Y-246000000D03*
X260280000Y-248500000D03*
X260280000Y-251000000D03*
X260280000Y-253500000D03*
X260280000Y-256000000D03*
X260280000Y-258500000D03*
X260280000Y-261000000D03*
X252780000Y-271000000D03*
X255280000Y-271000000D03*
X257780000Y-271000000D03*
X260280000Y-271000000D03*
X262780000Y-271000000D03*
X265280000Y-271000000D03*
X267780000Y-271000000D03*
X270280000Y-271000000D03*
X280280000Y-278500000D03*
X280280000Y-276000000D03*
X280280000Y-273500000D03*
X280280000Y-271000000D03*
X280280000Y-268500000D03*
X280280000Y-266000000D03*
X280280000Y-263500000D03*
X280280000Y-261000000D03*
X287780000Y-251000000D03*
X285280000Y-251000000D03*
X282780000Y-251000000D03*
X280280000Y-251000000D03*
X277780000Y-251000000D03*
X275280000Y-251000000D03*
X272780000Y-251000000D03*
X270280000Y-251000000D03*
X252780000Y-278500000D03*
X255280000Y-278500000D03*
X257780000Y-278500000D03*
X260280000Y-278500000D03*
X262780000Y-278500000D03*
X265280000Y-278500000D03*
X267780000Y-278500000D03*
X270280000Y-278500000D03*
X287780000Y-243500000D03*
X285280000Y-243500000D03*
X282780000Y-243500000D03*
X280280000Y-243500000D03*
X277780000Y-243500000D03*
X275280000Y-243500000D03*
X272780000Y-243500000D03*
X270280000Y-243500000D03*
%TD*%
D10*
%TO.C,R273*%
X477380000Y-323900000D03*
X477380000Y-322075000D03*
%TD*%
D15*
%TO.C,Q19*%
X184650000Y-248425000D03*
X184650000Y-250325000D03*
X186525000Y-249375000D03*
%TD*%
D33*
%TO.C,U2*%
X228375000Y-240975000D03*
X228375000Y-240175000D03*
X228375000Y-239375000D03*
X228375000Y-238575000D03*
X228375000Y-237775000D03*
X228375000Y-236975000D03*
X228375000Y-236175000D03*
X228375000Y-235375000D03*
D34*
X227000000Y-234000000D03*
X226200000Y-234000000D03*
X225400000Y-234000000D03*
X224600000Y-234000000D03*
X223800000Y-234000000D03*
X223000000Y-234000000D03*
X222200000Y-234000000D03*
X221400000Y-234000000D03*
D33*
X220025000Y-235375000D03*
X220025000Y-236175000D03*
X220025000Y-236975000D03*
X220025000Y-237775000D03*
X220025000Y-238575000D03*
X220025000Y-239375000D03*
X220025000Y-240175000D03*
X220025000Y-240975000D03*
D34*
X221400000Y-242350000D03*
X222200000Y-242350000D03*
X223000000Y-242350000D03*
X223800000Y-242350000D03*
X224600000Y-242350000D03*
X225400000Y-242350000D03*
X226200000Y-242350000D03*
X227000000Y-242350000D03*
%TD*%
D10*
%TO.C,R312*%
X350980000Y-324025000D03*
X350980000Y-322200000D03*
%TD*%
%TO.C,R244*%
X460980000Y-323725000D03*
X460980000Y-321900000D03*
%TD*%
D11*
%TO.C,R206*%
X295790000Y-237500000D03*
X295790000Y-239325000D03*
%TD*%
D10*
%TO.C,R226*%
X296180000Y-323925000D03*
X296180000Y-322100000D03*
%TD*%
%TO.C,R40*%
X181425000Y-250200000D03*
X181425000Y-248375000D03*
%TD*%
D11*
%TO.C,R7*%
X211650000Y-291720000D03*
X211650000Y-293545000D03*
%TD*%
D10*
%TO.C,R331*%
X517080000Y-324125000D03*
X517080000Y-322300000D03*
%TD*%
D11*
%TO.C,R177*%
X425980000Y-236787500D03*
X425980000Y-238612500D03*
%TD*%
D16*
%TO.C,U38*%
X351280000Y-225050000D03*
X352550000Y-225050000D03*
X353820000Y-225050000D03*
X355090000Y-225050000D03*
X356360000Y-225050000D03*
X357630000Y-225050000D03*
X358900000Y-225050000D03*
X360170000Y-225050000D03*
X360170000Y-219900000D03*
X358900000Y-219900000D03*
X357630000Y-219900000D03*
X356360000Y-219900000D03*
X355090000Y-219900000D03*
X353820000Y-219900000D03*
X352550000Y-219900000D03*
X351280000Y-219900000D03*
%TD*%
D10*
%TO.C,R252*%
X302180000Y-323925000D03*
X302180000Y-322100000D03*
%TD*%
%TO.C,R305*%
X509580000Y-324125000D03*
X509580000Y-322300000D03*
%TD*%
D13*
%TO.C,Q23*%
X192200000Y-247270000D03*
X192200000Y-249550000D03*
D14*
X198500000Y-249550000D03*
D13*
X192200000Y-251830000D03*
%TD*%
D10*
%TO.C,R214*%
X441180000Y-323900000D03*
X441180000Y-322075000D03*
%TD*%
D11*
%TO.C,R289*%
X502780000Y-237300000D03*
X502780000Y-239125000D03*
%TD*%
D20*
%TO.C,U28*%
X430280000Y-316000000D03*
X415280000Y-301000000D03*
X445280000Y-301000000D03*
X430280000Y-286000000D03*
D21*
X420280000Y-283500000D03*
X420280000Y-286000000D03*
X420280000Y-288500000D03*
X420280000Y-291000000D03*
X420280000Y-293500000D03*
X420280000Y-296000000D03*
X420280000Y-298500000D03*
X420280000Y-301000000D03*
X412780000Y-311000000D03*
X415280000Y-311000000D03*
X417780000Y-311000000D03*
X420280000Y-311000000D03*
X422780000Y-311000000D03*
X425280000Y-311000000D03*
X427780000Y-311000000D03*
X430280000Y-311000000D03*
X440280000Y-318500000D03*
X440280000Y-316000000D03*
X440280000Y-313500000D03*
X440280000Y-311000000D03*
X440280000Y-308500000D03*
X440280000Y-306000000D03*
X440280000Y-303500000D03*
X440280000Y-301000000D03*
X447780000Y-291000000D03*
X445280000Y-291000000D03*
X442780000Y-291000000D03*
X440280000Y-291000000D03*
X437780000Y-291000000D03*
X435280000Y-291000000D03*
X432780000Y-291000000D03*
X430280000Y-291000000D03*
X412780000Y-318500000D03*
X415280000Y-318500000D03*
X417780000Y-318500000D03*
X420280000Y-318500000D03*
X422780000Y-318500000D03*
X425280000Y-318500000D03*
X427780000Y-318500000D03*
X430280000Y-318500000D03*
X447780000Y-283500000D03*
X445280000Y-283500000D03*
X442780000Y-283500000D03*
X440280000Y-283500000D03*
X437780000Y-283500000D03*
X435280000Y-283500000D03*
X432780000Y-283500000D03*
X430280000Y-283500000D03*
%TD*%
D11*
%TO.C,R147*%
X418480000Y-236787500D03*
X418480000Y-238612500D03*
%TD*%
%TO.C,R322*%
X359680000Y-236712500D03*
X359680000Y-238537500D03*
%TD*%
%TO.C,R46*%
X232725000Y-300100000D03*
X232725000Y-301925000D03*
%TD*%
D10*
%TO.C,R272*%
X475880000Y-323900000D03*
X475880000Y-322075000D03*
%TD*%
D11*
%TO.C,R264*%
X340480000Y-236700000D03*
X340480000Y-238525000D03*
%TD*%
%TO.C,R230*%
X472180000Y-237400000D03*
X472180000Y-239225000D03*
%TD*%
D20*
%TO.C,U27*%
X430280000Y-276000000D03*
X415280000Y-261000000D03*
X445280000Y-261000000D03*
X430280000Y-246000000D03*
D21*
X420280000Y-243500000D03*
X420280000Y-246000000D03*
X420280000Y-248500000D03*
X420280000Y-251000000D03*
X420280000Y-253500000D03*
X420280000Y-256000000D03*
X420280000Y-258500000D03*
X420280000Y-261000000D03*
X412780000Y-271000000D03*
X415280000Y-271000000D03*
X417780000Y-271000000D03*
X420280000Y-271000000D03*
X422780000Y-271000000D03*
X425280000Y-271000000D03*
X427780000Y-271000000D03*
X430280000Y-271000000D03*
X440280000Y-278500000D03*
X440280000Y-276000000D03*
X440280000Y-273500000D03*
X440280000Y-271000000D03*
X440280000Y-268500000D03*
X440280000Y-266000000D03*
X440280000Y-263500000D03*
X440280000Y-261000000D03*
X447780000Y-251000000D03*
X445280000Y-251000000D03*
X442780000Y-251000000D03*
X440280000Y-251000000D03*
X437780000Y-251000000D03*
X435280000Y-251000000D03*
X432780000Y-251000000D03*
X430280000Y-251000000D03*
X412780000Y-278500000D03*
X415280000Y-278500000D03*
X417780000Y-278500000D03*
X420280000Y-278500000D03*
X422780000Y-278500000D03*
X425280000Y-278500000D03*
X427780000Y-278500000D03*
X430280000Y-278500000D03*
X447780000Y-243500000D03*
X445280000Y-243500000D03*
X442780000Y-243500000D03*
X440280000Y-243500000D03*
X437780000Y-243500000D03*
X435280000Y-243500000D03*
X432780000Y-243500000D03*
X430280000Y-243500000D03*
%TD*%
D19*
%TO.C,C30*%
X509600000Y-342200000D03*
X507875000Y-342200000D03*
%TD*%
D15*
%TO.C,Q35*%
X184900000Y-300162500D03*
X184900000Y-302062500D03*
X186775000Y-301112500D03*
%TD*%
D19*
%TO.C,C42*%
X180062500Y-240400000D03*
X178337500Y-240400000D03*
%TD*%
D15*
%TO.C,Q50*%
X184825000Y-283112500D03*
X184825000Y-285012500D03*
X186700000Y-284062500D03*
%TD*%
D13*
%TO.C,Q29*%
X235025000Y-256282500D03*
X235025000Y-258562500D03*
D14*
X241325000Y-258562500D03*
D13*
X235025000Y-260842500D03*
%TD*%
D10*
%TO.C,R102*%
X224400000Y-267937500D03*
X224400000Y-266112500D03*
%TD*%
%TO.C,R168*%
X261280000Y-323812500D03*
X261280000Y-321987500D03*
%TD*%
%TO.C,R121*%
X203125000Y-336987500D03*
X203125000Y-335162500D03*
%TD*%
D15*
%TO.C,Q2*%
X206450000Y-291632500D03*
X206450000Y-293532500D03*
X208325000Y-292582500D03*
%TD*%
D22*
%TO.C,R19*%
X197487500Y-224100000D03*
X199312500Y-224100000D03*
%TD*%
D11*
%TO.C,R241*%
X297280000Y-237500000D03*
X297280000Y-239325000D03*
%TD*%
D19*
%TO.C,C15*%
X468100000Y-342400000D03*
X466375000Y-342400000D03*
%TD*%
D18*
%TO.C,U9*%
X432180000Y-335150000D03*
X430910000Y-335150000D03*
X429640000Y-335150000D03*
X428370000Y-335150000D03*
X427100000Y-335150000D03*
X425830000Y-335150000D03*
X424560000Y-335150000D03*
X423290000Y-335150000D03*
X423290000Y-340300000D03*
X424560000Y-340300000D03*
X425830000Y-340300000D03*
X427100000Y-340300000D03*
X428370000Y-340300000D03*
X429640000Y-340300000D03*
X430910000Y-340300000D03*
X432180000Y-340300000D03*
%TD*%
%TO.C,U66*%
X471090000Y-228000000D03*
X469820000Y-228000000D03*
X468550000Y-228000000D03*
X467280000Y-228000000D03*
X466010000Y-228000000D03*
X464740000Y-228000000D03*
X463470000Y-228000000D03*
X462200000Y-228000000D03*
X462200000Y-233150000D03*
X463470000Y-233150000D03*
X464740000Y-233150000D03*
X466010000Y-233150000D03*
X467280000Y-233150000D03*
X468550000Y-233150000D03*
X469820000Y-233150000D03*
X471090000Y-233150000D03*
%TD*%
D11*
%TO.C,R258*%
X496780000Y-237300000D03*
X496780000Y-239125000D03*
%TD*%
D18*
%TO.C,U55*%
X401070000Y-335200000D03*
X399800000Y-335200000D03*
X398530000Y-335200000D03*
X397260000Y-335200000D03*
X395990000Y-335200000D03*
X394720000Y-335200000D03*
X393450000Y-335200000D03*
X392180000Y-335200000D03*
X392180000Y-340350000D03*
X393450000Y-340350000D03*
X394720000Y-340350000D03*
X395990000Y-340350000D03*
X397260000Y-340350000D03*
X398530000Y-340350000D03*
X399800000Y-340350000D03*
X401070000Y-340350000D03*
%TD*%
D12*
%TO.C,C14*%
X442700000Y-342200000D03*
X444425000Y-342200000D03*
%TD*%
D22*
%TO.C,R362*%
X232675000Y-226900000D03*
X234500000Y-226900000D03*
%TD*%
D11*
%TO.C,R151*%
X261380000Y-235775000D03*
X261380000Y-237600000D03*
%TD*%
D10*
%TO.C,R133*%
X210025000Y-336987500D03*
X210025000Y-335162500D03*
%TD*%
%TO.C,R372*%
X383780000Y-323912500D03*
X383780000Y-322087500D03*
%TD*%
%TO.C,R95*%
X204750000Y-285075000D03*
X204750000Y-283250000D03*
%TD*%
%TO.C,R217*%
X451980000Y-323725000D03*
X451980000Y-321900000D03*
%TD*%
D15*
%TO.C,Q57*%
X206425000Y-266012500D03*
X206425000Y-267912500D03*
X208300000Y-266962500D03*
%TD*%
D10*
%TO.C,R327*%
X511080000Y-324125000D03*
X511080000Y-322300000D03*
%TD*%
%TO.C,R167*%
X259780000Y-323812500D03*
X259780000Y-321987500D03*
%TD*%
%TO.C,R221*%
X278780000Y-323925000D03*
X278780000Y-322100000D03*
%TD*%
%TO.C,R137*%
X398480000Y-324325000D03*
X398480000Y-322500000D03*
%TD*%
%TO.C,R189*%
X436680000Y-323900000D03*
X436680000Y-322075000D03*
%TD*%
%TO.C,R357*%
X537380000Y-324200000D03*
X537380000Y-322375000D03*
%TD*%
D11*
%TO.C,R347*%
X536680000Y-236900000D03*
X536680000Y-238725000D03*
%TD*%
D22*
%TO.C,R1*%
X222375000Y-232100000D03*
X224200000Y-232100000D03*
%TD*%
D11*
%TO.C,R342*%
X544180000Y-236900000D03*
X544180000Y-238725000D03*
%TD*%
D18*
%TO.C,U80*%
X361570000Y-228000000D03*
X360300000Y-228000000D03*
X359030000Y-228000000D03*
X357760000Y-228000000D03*
X356490000Y-228000000D03*
X355220000Y-228000000D03*
X353950000Y-228000000D03*
X352680000Y-228000000D03*
X352680000Y-233150000D03*
X353950000Y-233150000D03*
X355220000Y-233150000D03*
X356490000Y-233150000D03*
X357760000Y-233150000D03*
X359030000Y-233150000D03*
X360300000Y-233150000D03*
X361570000Y-233150000D03*
%TD*%
D11*
%TO.C,R59*%
X189925000Y-274637500D03*
X189925000Y-276462500D03*
%TD*%
D10*
%TO.C,R392*%
X552480000Y-324000000D03*
X552480000Y-322175000D03*
%TD*%
%TO.C,R355*%
X534380000Y-324200000D03*
X534380000Y-322375000D03*
%TD*%
D11*
%TO.C,R212*%
X276380000Y-235800000D03*
X276380000Y-237625000D03*
%TD*%
D18*
%TO.C,U72*%
X311070000Y-228000000D03*
X309800000Y-228000000D03*
X308530000Y-228000000D03*
X307260000Y-228000000D03*
X305990000Y-228000000D03*
X304720000Y-228000000D03*
X303450000Y-228000000D03*
X302180000Y-228000000D03*
X302180000Y-233150000D03*
X303450000Y-233150000D03*
X304720000Y-233150000D03*
X305990000Y-233150000D03*
X307260000Y-233150000D03*
X308530000Y-233150000D03*
X309800000Y-233150000D03*
X311070000Y-233150000D03*
%TD*%
D10*
%TO.C,R65*%
X225850000Y-327887500D03*
X225850000Y-326062500D03*
%TD*%
%TO.C,R118*%
X203200000Y-267887500D03*
X203200000Y-266062500D03*
%TD*%
%TO.C,R21*%
X202800000Y-250650000D03*
X202800000Y-248825000D03*
%TD*%
D11*
%TO.C,R58*%
X232725000Y-257617500D03*
X232725000Y-259442500D03*
%TD*%
D10*
%TO.C,R68*%
X210125000Y-302075000D03*
X210125000Y-300250000D03*
%TD*%
%TO.C,R111*%
X204725000Y-310450000D03*
X204725000Y-308625000D03*
%TD*%
D20*
%TO.C,U22*%
X390280000Y-316000000D03*
X375280000Y-301000000D03*
X405280000Y-301000000D03*
X390280000Y-286000000D03*
D21*
X380280000Y-283500000D03*
X380280000Y-286000000D03*
X380280000Y-288500000D03*
X380280000Y-291000000D03*
X380280000Y-293500000D03*
X380280000Y-296000000D03*
X380280000Y-298500000D03*
X380280000Y-301000000D03*
X372780000Y-311000000D03*
X375280000Y-311000000D03*
X377780000Y-311000000D03*
X380280000Y-311000000D03*
X382780000Y-311000000D03*
X385280000Y-311000000D03*
X387780000Y-311000000D03*
X390280000Y-311000000D03*
X400280000Y-318500000D03*
X400280000Y-316000000D03*
X400280000Y-313500000D03*
X400280000Y-311000000D03*
X400280000Y-308500000D03*
X400280000Y-306000000D03*
X400280000Y-303500000D03*
X400280000Y-301000000D03*
X407780000Y-291000000D03*
X405280000Y-291000000D03*
X402780000Y-291000000D03*
X400280000Y-291000000D03*
X397780000Y-291000000D03*
X395280000Y-291000000D03*
X392780000Y-291000000D03*
X390280000Y-291000000D03*
X372780000Y-318500000D03*
X375280000Y-318500000D03*
X377780000Y-318500000D03*
X380280000Y-318500000D03*
X382780000Y-318500000D03*
X385280000Y-318500000D03*
X387780000Y-318500000D03*
X390280000Y-318500000D03*
X407780000Y-283500000D03*
X405280000Y-283500000D03*
X402780000Y-283500000D03*
X400280000Y-283500000D03*
X397780000Y-283500000D03*
X395280000Y-283500000D03*
X392780000Y-283500000D03*
X390280000Y-283500000D03*
%TD*%
D10*
%TO.C,R280*%
X319480000Y-324537500D03*
X319480000Y-322712500D03*
%TD*%
D16*
%TO.C,U18*%
X461000000Y-225050000D03*
X462270000Y-225050000D03*
X463540000Y-225050000D03*
X464810000Y-225050000D03*
X466080000Y-225050000D03*
X467350000Y-225050000D03*
X468620000Y-225050000D03*
X469890000Y-225050000D03*
X469890000Y-219900000D03*
X468620000Y-219900000D03*
X467350000Y-219900000D03*
X466080000Y-219900000D03*
X464810000Y-219900000D03*
X463540000Y-219900000D03*
X462270000Y-219900000D03*
X461000000Y-219900000D03*
%TD*%
D35*
%TO.C,J4*%
X204500000Y-243900000D03*
D27*
X206500000Y-243900000D03*
X208500000Y-243900000D03*
%TD*%
D11*
%TO.C,R26*%
X232800000Y-274737500D03*
X232800000Y-276562500D03*
%TD*%
%TO.C,R183*%
X266580000Y-235800000D03*
X266580000Y-237625000D03*
%TD*%
D10*
%TO.C,R10*%
X204650000Y-293445000D03*
X204650000Y-291620000D03*
%TD*%
D11*
%TO.C,R148*%
X416980000Y-236787500D03*
X416980000Y-238612500D03*
%TD*%
%TO.C,R325*%
X355180000Y-236712500D03*
X355180000Y-238537500D03*
%TD*%
D10*
%TO.C,R114*%
X231300000Y-267912500D03*
X231300000Y-266087500D03*
%TD*%
%TO.C,R66*%
X231225000Y-259442500D03*
X231225000Y-257617500D03*
%TD*%
D13*
%TO.C,Q24*%
X234950000Y-298807500D03*
X234950000Y-301087500D03*
D14*
X241250000Y-301087500D03*
D13*
X234950000Y-303367500D03*
%TD*%
D10*
%TO.C,R79*%
X183175000Y-302025000D03*
X183175000Y-300200000D03*
%TD*%
D11*
%TO.C,R324*%
X356680000Y-236712500D03*
X356680000Y-238537500D03*
%TD*%
D16*
%TO.C,U81*%
X513910000Y-331900000D03*
X515180000Y-331900000D03*
X516450000Y-331900000D03*
X517720000Y-331900000D03*
X518990000Y-331900000D03*
X520260000Y-331900000D03*
X521530000Y-331900000D03*
X522800000Y-331900000D03*
X522800000Y-326750000D03*
X521530000Y-326750000D03*
X520260000Y-326750000D03*
X518990000Y-326750000D03*
X517720000Y-326750000D03*
X516450000Y-326750000D03*
X515180000Y-326750000D03*
X513910000Y-326750000D03*
%TD*%
D13*
%TO.C,Q8*%
X235000000Y-315957500D03*
X235000000Y-318237500D03*
D14*
X241300000Y-318237500D03*
D13*
X235000000Y-320517500D03*
%TD*%
D36*
%TO.C,J3*%
X217100000Y-228500000D03*
X218200000Y-228500000D03*
X219300000Y-228500000D03*
X220400000Y-228500000D03*
X221500000Y-228500000D03*
X222600000Y-228500000D03*
X223700000Y-228500000D03*
X224800000Y-228500000D03*
X225750000Y-228500000D03*
D37*
X226700000Y-218000000D03*
D38*
X226700000Y-224200000D03*
D39*
X226700000Y-213850000D03*
D38*
X215550000Y-228500000D03*
D40*
X213200000Y-213400000D03*
%TD*%
D11*
%TO.C,R122*%
X211600000Y-266037500D03*
X211600000Y-267862500D03*
%TD*%
D18*
%TO.C,U29*%
X342050000Y-335200000D03*
X340780000Y-335200000D03*
X339510000Y-335200000D03*
X338240000Y-335200000D03*
X336970000Y-335200000D03*
X335700000Y-335200000D03*
X334430000Y-335200000D03*
X333160000Y-335200000D03*
X333160000Y-340350000D03*
X334430000Y-340350000D03*
X335700000Y-340350000D03*
X336970000Y-340350000D03*
X338240000Y-340350000D03*
X339510000Y-340350000D03*
X340780000Y-340350000D03*
X342050000Y-340350000D03*
%TD*%
D12*
%TO.C,C23*%
X419800000Y-217900000D03*
X421525000Y-217900000D03*
%TD*%
D10*
%TO.C,R97*%
X183075000Y-327912500D03*
X183075000Y-326087500D03*
%TD*%
%TO.C,R75*%
X204700000Y-259412500D03*
X204700000Y-257587500D03*
%TD*%
D15*
%TO.C,Q26*%
X184787500Y-274600000D03*
X184787500Y-276500000D03*
X186662500Y-275550000D03*
%TD*%
D10*
%TO.C,R197*%
X275780000Y-323925000D03*
X275780000Y-322100000D03*
%TD*%
D11*
%TO.C,R96*%
X189975000Y-326100000D03*
X189975000Y-327925000D03*
%TD*%
%TO.C,R343*%
X542680000Y-236900000D03*
X542680000Y-238725000D03*
%TD*%
D10*
%TO.C,R116*%
X210125000Y-310450000D03*
X210125000Y-308625000D03*
%TD*%
%TO.C,R242*%
X457980000Y-323725000D03*
X457980000Y-321900000D03*
%TD*%
D18*
%TO.C,U42*%
X567870000Y-228000000D03*
X566600000Y-228000000D03*
X565330000Y-228000000D03*
X564060000Y-228000000D03*
X562790000Y-228000000D03*
X561520000Y-228000000D03*
X560250000Y-228000000D03*
X558980000Y-228000000D03*
X558980000Y-233150000D03*
X560250000Y-233150000D03*
X561520000Y-233150000D03*
X562790000Y-233150000D03*
X564060000Y-233150000D03*
X565330000Y-233150000D03*
X566600000Y-233150000D03*
X567870000Y-233150000D03*
%TD*%
D10*
%TO.C,R2*%
X224400000Y-250750000D03*
X224400000Y-248925000D03*
%TD*%
%TO.C,R283*%
X331580000Y-324112500D03*
X331580000Y-322287500D03*
%TD*%
D15*
%TO.C,Q20*%
X227550000Y-300062500D03*
X227550000Y-301962500D03*
X229425000Y-301012500D03*
%TD*%
D10*
%TO.C,R190*%
X438180000Y-323900000D03*
X438180000Y-322075000D03*
%TD*%
%TO.C,R129*%
X204625000Y-336987500D03*
X204625000Y-335162500D03*
%TD*%
D16*
%TO.C,U69*%
X465690000Y-331850000D03*
X466960000Y-331850000D03*
X468230000Y-331850000D03*
X469500000Y-331850000D03*
X470770000Y-331850000D03*
X472040000Y-331850000D03*
X473310000Y-331850000D03*
X474580000Y-331850000D03*
X474580000Y-326700000D03*
X473310000Y-326700000D03*
X472040000Y-326700000D03*
X470770000Y-326700000D03*
X469500000Y-326700000D03*
X468230000Y-326700000D03*
X466960000Y-326700000D03*
X465690000Y-326700000D03*
%TD*%
D10*
%TO.C,R49*%
X225825000Y-301925000D03*
X225825000Y-300100000D03*
%TD*%
%TO.C,R135*%
X395480000Y-324325000D03*
X395480000Y-322500000D03*
%TD*%
D28*
%TO.C,H7*%
X277000000Y-345000000D03*
%TD*%
D11*
%TO.C,R208*%
X292790000Y-237500000D03*
X292790000Y-239325000D03*
%TD*%
D10*
%TO.C,R393*%
X553980000Y-324000000D03*
X553980000Y-322175000D03*
%TD*%
D11*
%TO.C,R233*%
X462770000Y-237287500D03*
X462770000Y-239112500D03*
%TD*%
%TO.C,R207*%
X294290000Y-237500000D03*
X294290000Y-239325000D03*
%TD*%
D10*
%TO.C,R159*%
X412880000Y-324025000D03*
X412880000Y-322200000D03*
%TD*%
D16*
%TO.C,U91*%
X560710000Y-332350000D03*
X561980000Y-332350000D03*
X563250000Y-332350000D03*
X564520000Y-332350000D03*
X565790000Y-332350000D03*
X567060000Y-332350000D03*
X568330000Y-332350000D03*
X569600000Y-332350000D03*
X569600000Y-327200000D03*
X568330000Y-327200000D03*
X567060000Y-327200000D03*
X565790000Y-327200000D03*
X564520000Y-327200000D03*
X563250000Y-327200000D03*
X561980000Y-327200000D03*
X560710000Y-327200000D03*
%TD*%
D11*
%TO.C,R126*%
X190000000Y-308480000D03*
X190000000Y-310305000D03*
%TD*%
D13*
%TO.C,Q14*%
X235025000Y-273407500D03*
X235025000Y-275687500D03*
D14*
X241325000Y-275687500D03*
D13*
X235025000Y-277967500D03*
%TD*%
D10*
%TO.C,R160*%
X414380000Y-324025000D03*
X414380000Y-322200000D03*
%TD*%
D11*
%TO.C,R174*%
X432480000Y-236900000D03*
X432480000Y-238725000D03*
%TD*%
D15*
%TO.C,Q53*%
X227612500Y-334905000D03*
X227612500Y-336805000D03*
X229487500Y-335855000D03*
%TD*%
D12*
%TO.C,C43*%
X351275000Y-217900000D03*
X353000000Y-217900000D03*
%TD*%
D16*
%TO.C,U48*%
X382780000Y-225050000D03*
X384050000Y-225050000D03*
X385320000Y-225050000D03*
X386590000Y-225050000D03*
X387860000Y-225050000D03*
X389130000Y-225050000D03*
X390400000Y-225050000D03*
X391670000Y-225050000D03*
X391670000Y-219900000D03*
X390400000Y-219900000D03*
X389130000Y-219900000D03*
X387860000Y-219900000D03*
X386590000Y-219900000D03*
X385320000Y-219900000D03*
X384050000Y-219900000D03*
X382780000Y-219900000D03*
%TD*%
D18*
%TO.C,U45*%
X390620000Y-335200000D03*
X389350000Y-335200000D03*
X388080000Y-335200000D03*
X386810000Y-335200000D03*
X385540000Y-335200000D03*
X384270000Y-335200000D03*
X383000000Y-335200000D03*
X381730000Y-335200000D03*
X381730000Y-340350000D03*
X383000000Y-340350000D03*
X384270000Y-340350000D03*
X385540000Y-340350000D03*
X386810000Y-340350000D03*
X388080000Y-340350000D03*
X389350000Y-340350000D03*
X390620000Y-340350000D03*
%TD*%
D10*
%TO.C,R250*%
X299180000Y-323925000D03*
X299180000Y-322100000D03*
%TD*%
D11*
%TO.C,R108*%
X190000000Y-283150000D03*
X190000000Y-284975000D03*
%TD*%
%TO.C,R61*%
X232750000Y-326062500D03*
X232750000Y-327887500D03*
%TD*%
D10*
%TO.C,R308*%
X337580000Y-324125000D03*
X337580000Y-322300000D03*
%TD*%
%TO.C,R390*%
X544880000Y-324200000D03*
X544880000Y-322375000D03*
%TD*%
D15*
%TO.C,Q60*%
X206350000Y-335125000D03*
X206350000Y-337025000D03*
X208225000Y-336075000D03*
%TD*%
D10*
%TO.C,R301*%
X497280000Y-324112500D03*
X497280000Y-322287500D03*
%TD*%
D16*
%TO.C,U73*%
X476140000Y-331850000D03*
X477410000Y-331850000D03*
X478680000Y-331850000D03*
X479950000Y-331850000D03*
X481220000Y-331850000D03*
X482490000Y-331850000D03*
X483760000Y-331850000D03*
X485030000Y-331850000D03*
X485030000Y-326700000D03*
X483760000Y-326700000D03*
X482490000Y-326700000D03*
X481220000Y-326700000D03*
X479950000Y-326700000D03*
X478680000Y-326700000D03*
X477410000Y-326700000D03*
X476140000Y-326700000D03*
%TD*%
D11*
%TO.C,R352*%
X382480000Y-237500000D03*
X382480000Y-239325000D03*
%TD*%
D10*
%TO.C,R223*%
X291680000Y-323925000D03*
X291680000Y-322100000D03*
%TD*%
%TO.C,R334*%
X352480000Y-324025000D03*
X352480000Y-322200000D03*
%TD*%
%TO.C,R299*%
X494280000Y-324112500D03*
X494280000Y-322287500D03*
%TD*%
D11*
%TO.C,R380*%
X402980000Y-237400000D03*
X402980000Y-239225000D03*
%TD*%
D10*
%TO.C,R82*%
X210100000Y-259387500D03*
X210100000Y-257562500D03*
%TD*%
%TO.C,R164*%
X255280000Y-323812500D03*
X255280000Y-321987500D03*
%TD*%
D31*
%TO.C,C39*%
X189700000Y-215800000D03*
X189700000Y-214075000D03*
%TD*%
D10*
%TO.C,R70*%
X203200000Y-259412500D03*
X203200000Y-257587500D03*
%TD*%
D16*
%TO.C,U24*%
X471400000Y-225050000D03*
X472670000Y-225050000D03*
X473940000Y-225050000D03*
X475210000Y-225050000D03*
X476480000Y-225050000D03*
X477750000Y-225050000D03*
X479020000Y-225050000D03*
X480290000Y-225050000D03*
X480290000Y-219900000D03*
X479020000Y-219900000D03*
X477750000Y-219900000D03*
X476480000Y-219900000D03*
X475210000Y-219900000D03*
X473940000Y-219900000D03*
X472670000Y-219900000D03*
X471400000Y-219900000D03*
%TD*%
D11*
%TO.C,R232*%
X464260000Y-237287500D03*
X464260000Y-239112500D03*
%TD*%
D18*
%TO.C,U7*%
X265220000Y-335125000D03*
X263950000Y-335125000D03*
X262680000Y-335125000D03*
X261410000Y-335125000D03*
X260140000Y-335125000D03*
X258870000Y-335125000D03*
X257600000Y-335125000D03*
X256330000Y-335125000D03*
X256330000Y-340275000D03*
X257600000Y-340275000D03*
X258870000Y-340275000D03*
X260140000Y-340275000D03*
X261410000Y-340275000D03*
X262680000Y-340275000D03*
X263950000Y-340275000D03*
X265220000Y-340275000D03*
%TD*%
D10*
%TO.C,R125*%
X225925000Y-293425000D03*
X225925000Y-291600000D03*
%TD*%
D28*
%TO.C,H1*%
X477000000Y-345000000D03*
%TD*%
D11*
%TO.C,R294*%
X347980000Y-236700000D03*
X347980000Y-238525000D03*
%TD*%
D13*
%TO.C,Q47*%
X213825000Y-281807500D03*
X213825000Y-284087500D03*
D14*
X220125000Y-284087500D03*
D13*
X213825000Y-286367500D03*
%TD*%
D11*
%TO.C,R231*%
X465760000Y-237287500D03*
X465760000Y-239112500D03*
%TD*%
D18*
%TO.C,U53*%
X435370000Y-227900000D03*
X434100000Y-227900000D03*
X432830000Y-227900000D03*
X431560000Y-227900000D03*
X430290000Y-227900000D03*
X429020000Y-227900000D03*
X427750000Y-227900000D03*
X426480000Y-227900000D03*
X426480000Y-233050000D03*
X427750000Y-233050000D03*
X429020000Y-233050000D03*
X430290000Y-233050000D03*
X431560000Y-233050000D03*
X432830000Y-233050000D03*
X434100000Y-233050000D03*
X435370000Y-233050000D03*
%TD*%
%TO.C,U88*%
X557370000Y-228000000D03*
X556100000Y-228000000D03*
X554830000Y-228000000D03*
X553560000Y-228000000D03*
X552290000Y-228000000D03*
X551020000Y-228000000D03*
X549750000Y-228000000D03*
X548480000Y-228000000D03*
X548480000Y-233150000D03*
X549750000Y-233150000D03*
X551020000Y-233150000D03*
X552290000Y-233150000D03*
X553560000Y-233150000D03*
X554830000Y-233150000D03*
X556100000Y-233150000D03*
X557370000Y-233150000D03*
%TD*%
D11*
%TO.C,R236*%
X305180000Y-237500000D03*
X305180000Y-239325000D03*
%TD*%
D18*
%TO.C,U25*%
X478470000Y-335150000D03*
X477200000Y-335150000D03*
X475930000Y-335150000D03*
X474660000Y-335150000D03*
X473390000Y-335150000D03*
X472120000Y-335150000D03*
X470850000Y-335150000D03*
X469580000Y-335150000D03*
X469580000Y-340300000D03*
X470850000Y-340300000D03*
X472120000Y-340300000D03*
X473390000Y-340300000D03*
X474660000Y-340300000D03*
X475930000Y-340300000D03*
X477200000Y-340300000D03*
X478470000Y-340300000D03*
%TD*%
D11*
%TO.C,R199*%
X459770000Y-237287500D03*
X459770000Y-239112500D03*
%TD*%
D13*
%TO.C,Q40*%
X213750000Y-324707500D03*
X213750000Y-326987500D03*
D14*
X220050000Y-326987500D03*
D13*
X213750000Y-329267500D03*
%TD*%
D11*
%TO.C,R292*%
X352180000Y-236712500D03*
X352180000Y-238537500D03*
%TD*%
D10*
%TO.C,R138*%
X399980000Y-324325000D03*
X399980000Y-322500000D03*
%TD*%
%TO.C,R222*%
X280280000Y-323925000D03*
X280280000Y-322100000D03*
%TD*%
%TO.C,R277*%
X492780000Y-324112500D03*
X492780000Y-322287500D03*
%TD*%
%TO.C,R45*%
X204700000Y-276562500D03*
X204700000Y-274737500D03*
%TD*%
D11*
%TO.C,R171*%
X436980000Y-236900000D03*
X436980000Y-238725000D03*
%TD*%
%TO.C,R385*%
X395480000Y-237400000D03*
X395480000Y-239225000D03*
%TD*%
%TO.C,R373*%
X562280000Y-237000000D03*
X562280000Y-238825000D03*
%TD*%
D10*
%TO.C,R98*%
X188500000Y-259487500D03*
X188500000Y-257662500D03*
%TD*%
D11*
%TO.C,R182*%
X268080000Y-235800000D03*
X268080000Y-237625000D03*
%TD*%
D10*
%TO.C,R358*%
X538880000Y-324200000D03*
X538880000Y-322375000D03*
%TD*%
%TO.C,R81*%
X204675000Y-327725000D03*
X204675000Y-325900000D03*
%TD*%
%TO.C,R94*%
X226025000Y-310487500D03*
X226025000Y-308662500D03*
%TD*%
D16*
%TO.C,U90*%
X550065000Y-332350000D03*
X551335000Y-332350000D03*
X552605000Y-332350000D03*
X553875000Y-332350000D03*
X555145000Y-332350000D03*
X556415000Y-332350000D03*
X557685000Y-332350000D03*
X558955000Y-332350000D03*
X558955000Y-327200000D03*
X557685000Y-327200000D03*
X556415000Y-327200000D03*
X555145000Y-327200000D03*
X553875000Y-327200000D03*
X552605000Y-327200000D03*
X551335000Y-327200000D03*
X550065000Y-327200000D03*
%TD*%
D10*
%TO.C,R359*%
X540380000Y-324200000D03*
X540380000Y-322375000D03*
%TD*%
%TO.C,R245*%
X462480000Y-323725000D03*
X462480000Y-321900000D03*
%TD*%
D12*
%TO.C,C21*%
X461000000Y-217900000D03*
X462725000Y-217900000D03*
%TD*%
D16*
%TO.C,U46*%
X541400000Y-225050000D03*
X542670000Y-225050000D03*
X543940000Y-225050000D03*
X545210000Y-225050000D03*
X546480000Y-225050000D03*
X547750000Y-225050000D03*
X549020000Y-225050000D03*
X550290000Y-225050000D03*
X550290000Y-219900000D03*
X549020000Y-219900000D03*
X547750000Y-219900000D03*
X546480000Y-219900000D03*
X545210000Y-219900000D03*
X543940000Y-219900000D03*
X542670000Y-219900000D03*
X541400000Y-219900000D03*
%TD*%
D15*
%TO.C,Q28*%
X227612500Y-326025000D03*
X227612500Y-327925000D03*
X229487500Y-326975000D03*
%TD*%
D10*
%TO.C,R302*%
X498780000Y-324112500D03*
X498780000Y-322287500D03*
%TD*%
D11*
%TO.C,R204*%
X439980000Y-236900000D03*
X439980000Y-238725000D03*
%TD*%
D10*
%TO.C,R368*%
X377780000Y-323912500D03*
X377780000Y-322087500D03*
%TD*%
D15*
%TO.C,Q10*%
X227662500Y-274712500D03*
X227662500Y-276612500D03*
X229537500Y-275662500D03*
%TD*%
D10*
%TO.C,R256*%
X314980000Y-324537500D03*
X314980000Y-322712500D03*
%TD*%
D11*
%TO.C,R320*%
X377980000Y-237500000D03*
X377980000Y-239325000D03*
%TD*%
D10*
%TO.C,R33*%
X209800000Y-250550000D03*
X209800000Y-248725000D03*
%TD*%
D41*
%TO.C,J6*%
X246275000Y-220340000D03*
D42*
X245550000Y-215500000D03*
X230750000Y-215500000D03*
D41*
X230025000Y-220340000D03*
D20*
X234580000Y-220340000D03*
X235600000Y-217800000D03*
X236620000Y-220340000D03*
X237640000Y-217800000D03*
X238660000Y-220340000D03*
X239680000Y-217800000D03*
X240700000Y-220340000D03*
X241720000Y-217800000D03*
%TD*%
D15*
%TO.C,Q46*%
X184837500Y-326062500D03*
X184837500Y-327962500D03*
X186712500Y-327012500D03*
%TD*%
D11*
%TO.C,R142*%
X563780000Y-237000000D03*
X563780000Y-238825000D03*
%TD*%
D10*
%TO.C,R130*%
X210100000Y-267862500D03*
X210100000Y-266037500D03*
%TD*%
%TO.C,R300*%
X495780000Y-324112500D03*
X495780000Y-322287500D03*
%TD*%
%TO.C,R274*%
X478880000Y-323900000D03*
X478880000Y-322075000D03*
%TD*%
D28*
%TO.C,H10*%
X569000000Y-213000000D03*
%TD*%
D13*
%TO.C,Q45*%
X235000000Y-307282500D03*
X235000000Y-309562500D03*
D14*
X241300000Y-309562500D03*
D13*
X235000000Y-311842500D03*
%TD*%
D10*
%TO.C,R216*%
X444180000Y-323900000D03*
X444180000Y-322075000D03*
%TD*%
%TO.C,R105*%
X224350000Y-336780000D03*
X224350000Y-334955000D03*
%TD*%
D28*
%TO.C,H3*%
X477000000Y-213000000D03*
%TD*%
D13*
%TO.C,Q13*%
X213825000Y-247345000D03*
X213825000Y-249625000D03*
D14*
X220125000Y-249625000D03*
D13*
X213825000Y-251905000D03*
%TD*%
D10*
%TO.C,R139*%
X401480000Y-324325000D03*
X401480000Y-322500000D03*
%TD*%
D11*
%TO.C,R109*%
X211625000Y-308637500D03*
X211625000Y-310462500D03*
%TD*%
D10*
%TO.C,R186*%
X421880000Y-324025000D03*
X421880000Y-322200000D03*
%TD*%
%TO.C,R119*%
X224425000Y-293425000D03*
X224425000Y-291600000D03*
%TD*%
D11*
%TO.C,R240*%
X298800000Y-237490000D03*
X298800000Y-239315000D03*
%TD*%
D10*
%TO.C,R249*%
X190600000Y-234012500D03*
X190600000Y-232187500D03*
%TD*%
D18*
%TO.C,U37*%
X520130000Y-335100000D03*
X518860000Y-335100000D03*
X517590000Y-335100000D03*
X516320000Y-335100000D03*
X515050000Y-335100000D03*
X513780000Y-335100000D03*
X512510000Y-335100000D03*
X511240000Y-335100000D03*
X511240000Y-340250000D03*
X512510000Y-340250000D03*
X513780000Y-340250000D03*
X515050000Y-340250000D03*
X516320000Y-340250000D03*
X517590000Y-340250000D03*
X518860000Y-340250000D03*
X520130000Y-340250000D03*
%TD*%
D11*
%TO.C,R210*%
X289780000Y-237487500D03*
X289780000Y-239312500D03*
%TD*%
D10*
%TO.C,R396*%
X558480000Y-324000000D03*
X558480000Y-322175000D03*
%TD*%
%TO.C,R90*%
X181575000Y-327912500D03*
X181575000Y-326087500D03*
%TD*%
%TO.C,R161*%
X415880000Y-324025000D03*
X415880000Y-322200000D03*
%TD*%
D12*
%TO.C,C27*%
X256800000Y-217900000D03*
X258525000Y-217900000D03*
%TD*%
D10*
%TO.C,R18*%
X231300000Y-319230000D03*
X231300000Y-317405000D03*
%TD*%
D15*
%TO.C,Q1*%
X227625000Y-248875000D03*
X227625000Y-250775000D03*
X229500000Y-249825000D03*
%TD*%
D10*
%TO.C,R166*%
X258280000Y-323812500D03*
X258280000Y-321987500D03*
%TD*%
%TO.C,R303*%
X500280000Y-324112500D03*
X500280000Y-322287500D03*
%TD*%
%TO.C,R169*%
X262780000Y-323812500D03*
X262780000Y-321987500D03*
%TD*%
%TO.C,R38*%
X203200000Y-276562500D03*
X203200000Y-274737500D03*
%TD*%
%TO.C,R56*%
X203225000Y-302075000D03*
X203225000Y-300250000D03*
%TD*%
D11*
%TO.C,R378*%
X554780000Y-237000000D03*
X554780000Y-238825000D03*
%TD*%
D15*
%TO.C,Q17*%
X206462500Y-274712500D03*
X206462500Y-276612500D03*
X208337500Y-275662500D03*
%TD*%
D11*
%TO.C,R321*%
X361180000Y-236712500D03*
X361180000Y-238537500D03*
%TD*%
D10*
%TO.C,R254*%
X311980000Y-324525000D03*
X311980000Y-322700000D03*
%TD*%
D13*
%TO.C,Q39*%
X192200000Y-298707500D03*
X192200000Y-300987500D03*
D14*
X198500000Y-300987500D03*
D13*
X192200000Y-303267500D03*
%TD*%
D12*
%TO.C,C36*%
X352500000Y-342400000D03*
X354225000Y-342400000D03*
%TD*%
D10*
%TO.C,R361*%
X543380000Y-324200000D03*
X543380000Y-322375000D03*
%TD*%
%TO.C,R162*%
X417380000Y-324025000D03*
X417380000Y-322200000D03*
%TD*%
D13*
%TO.C,Q15*%
X192225000Y-290252500D03*
X192225000Y-292532500D03*
D14*
X198525000Y-292532500D03*
D13*
X192225000Y-294812500D03*
%TD*%
D10*
%TO.C,R104*%
X203225000Y-310462500D03*
X203225000Y-308637500D03*
%TD*%
%TO.C,R198*%
X277280000Y-323925000D03*
X277280000Y-322100000D03*
%TD*%
%TO.C,R48*%
X182925000Y-250200000D03*
X182925000Y-248375000D03*
%TD*%
D11*
%TO.C,R229*%
X473680000Y-237400000D03*
X473680000Y-239225000D03*
%TD*%
D10*
%TO.C,R194*%
X271280000Y-323925000D03*
X271280000Y-322100000D03*
%TD*%
%TO.C,R243*%
X459480000Y-323725000D03*
X459480000Y-321900000D03*
%TD*%
D11*
%TO.C,R144*%
X422980000Y-236787500D03*
X422980000Y-238612500D03*
%TD*%
D16*
%TO.C,U10*%
X256690000Y-225000000D03*
X257960000Y-225000000D03*
X259230000Y-225000000D03*
X260500000Y-225000000D03*
X261770000Y-225000000D03*
X263040000Y-225000000D03*
X264310000Y-225000000D03*
X265580000Y-225000000D03*
X265580000Y-219850000D03*
X264310000Y-219850000D03*
X263040000Y-219850000D03*
X261770000Y-219850000D03*
X260500000Y-219850000D03*
X259230000Y-219850000D03*
X257960000Y-219850000D03*
X256690000Y-219850000D03*
%TD*%
D15*
%TO.C,Q9*%
X206062500Y-248800000D03*
X206062500Y-250700000D03*
X207937500Y-249750000D03*
%TD*%
D11*
%TO.C,R211*%
X277880000Y-235800000D03*
X277880000Y-237625000D03*
%TD*%
D10*
%TO.C,R103*%
X181600000Y-284975000D03*
X181600000Y-283150000D03*
%TD*%
D11*
%TO.C,R297*%
X343480000Y-236700000D03*
X343480000Y-238525000D03*
%TD*%
D12*
%TO.C,C10*%
X320737500Y-342400000D03*
X322462500Y-342400000D03*
%TD*%
D10*
%TO.C,R329*%
X514080000Y-324125000D03*
X514080000Y-322300000D03*
%TD*%
%TO.C,R225*%
X294680000Y-323925000D03*
X294680000Y-322100000D03*
%TD*%
%TO.C,R23*%
X181600000Y-291745000D03*
X181600000Y-293570000D03*
%TD*%
%TO.C,R86*%
X181600000Y-259512500D03*
X181600000Y-257687500D03*
%TD*%
D19*
%TO.C,C9*%
X310100000Y-342400000D03*
X308375000Y-342400000D03*
%TD*%
D11*
%TO.C,R141*%
X565280000Y-237000000D03*
X565280000Y-238825000D03*
%TD*%
D10*
%TO.C,R117*%
X231250000Y-336767500D03*
X231250000Y-334942500D03*
%TD*%
%TO.C,R87*%
X224525000Y-310487500D03*
X224525000Y-308662500D03*
%TD*%
D22*
%TO.C,R14*%
X222375000Y-230600000D03*
X224200000Y-230600000D03*
%TD*%
D11*
%TO.C,R286*%
X507280000Y-237300000D03*
X507280000Y-239125000D03*
%TD*%
D13*
%TO.C,Q55*%
X213800000Y-307232500D03*
X213800000Y-309512500D03*
D14*
X220100000Y-309512500D03*
D13*
X213800000Y-311792500D03*
%TD*%
D10*
%TO.C,R371*%
X382280000Y-323912500D03*
X382280000Y-322087500D03*
%TD*%
%TO.C,R32*%
X204700000Y-319030000D03*
X204700000Y-317205000D03*
%TD*%
D31*
%TO.C,C3*%
X480200000Y-340500000D03*
X480200000Y-338775000D03*
%TD*%
D11*
%TO.C,R176*%
X427480000Y-236787500D03*
X427480000Y-238612500D03*
%TD*%
D12*
%TO.C,C11*%
X390675000Y-342400000D03*
X392400000Y-342400000D03*
%TD*%
D10*
%TO.C,R99*%
X231425000Y-310487500D03*
X231425000Y-308662500D03*
%TD*%
D13*
%TO.C,Q7*%
X192225000Y-264707500D03*
X192225000Y-266987500D03*
D14*
X198525000Y-266987500D03*
D13*
X192225000Y-269267500D03*
%TD*%
D10*
%TO.C,R85*%
X210075000Y-327812500D03*
X210075000Y-325987500D03*
%TD*%
D15*
%TO.C,Q59*%
X184862500Y-308442500D03*
X184862500Y-310342500D03*
X186737500Y-309392500D03*
%TD*%
D10*
%TO.C,R306*%
X334580000Y-324125000D03*
X334580000Y-322300000D03*
%TD*%
D11*
%TO.C,R317*%
X517280000Y-237300000D03*
X517280000Y-239125000D03*
%TD*%
D10*
%TO.C,R276*%
X491280000Y-324112500D03*
X491280000Y-322287500D03*
%TD*%
%TO.C,R192*%
X265780000Y-323812500D03*
X265780000Y-321987500D03*
%TD*%
%TO.C,R271*%
X474380000Y-323900000D03*
X474380000Y-322075000D03*
%TD*%
D12*
%TO.C,C33*%
X188537500Y-229800000D03*
X190262500Y-229800000D03*
%TD*%
D11*
%TO.C,R106*%
X232800000Y-266087500D03*
X232800000Y-267912500D03*
%TD*%
%TO.C,R42*%
X211600000Y-274750000D03*
X211600000Y-276575000D03*
%TD*%
D16*
%TO.C,U56*%
X551880000Y-225050000D03*
X553150000Y-225050000D03*
X554420000Y-225050000D03*
X555690000Y-225050000D03*
X556960000Y-225050000D03*
X558230000Y-225050000D03*
X559500000Y-225050000D03*
X560770000Y-225050000D03*
X560770000Y-219900000D03*
X559500000Y-219900000D03*
X558230000Y-219900000D03*
X556960000Y-219900000D03*
X555690000Y-219900000D03*
X554420000Y-219900000D03*
X553150000Y-219900000D03*
X551880000Y-219900000D03*
%TD*%
D10*
%TO.C,R247*%
X471380000Y-323900000D03*
X471380000Y-322075000D03*
%TD*%
D11*
%TO.C,R291*%
X499780000Y-237300000D03*
X499780000Y-239125000D03*
%TD*%
D22*
%TO.C,R37*%
X226487500Y-244200000D03*
X228312500Y-244200000D03*
%TD*%
D11*
%TO.C,R201*%
X456770000Y-237287500D03*
X456770000Y-239112500D03*
%TD*%
D10*
%TO.C,R17*%
X188500000Y-267712500D03*
X188500000Y-265887500D03*
%TD*%
D16*
%TO.C,U74*%
X317310000Y-332050000D03*
X318580000Y-332050000D03*
X319850000Y-332050000D03*
X321120000Y-332050000D03*
X322390000Y-332050000D03*
X323660000Y-332050000D03*
X324930000Y-332050000D03*
X326200000Y-332050000D03*
X326200000Y-326900000D03*
X324930000Y-326900000D03*
X323660000Y-326900000D03*
X322390000Y-326900000D03*
X321120000Y-326900000D03*
X319850000Y-326900000D03*
X318580000Y-326900000D03*
X317310000Y-326900000D03*
%TD*%
D10*
%TO.C,R248*%
X472880000Y-323900000D03*
X472880000Y-322075000D03*
%TD*%
D15*
%TO.C,Q34*%
X227625000Y-282962500D03*
X227625000Y-284862500D03*
X229500000Y-283912500D03*
%TD*%
D11*
%TO.C,R261*%
X479680000Y-237400000D03*
X479680000Y-239225000D03*
%TD*%
D16*
%TO.C,U52*%
X257740000Y-331400000D03*
X259010000Y-331400000D03*
X260280000Y-331400000D03*
X261550000Y-331400000D03*
X262820000Y-331400000D03*
X264090000Y-331400000D03*
X265360000Y-331400000D03*
X266630000Y-331400000D03*
X266630000Y-326250000D03*
X265360000Y-326250000D03*
X264090000Y-326250000D03*
X262820000Y-326250000D03*
X261550000Y-326250000D03*
X260280000Y-326250000D03*
X259010000Y-326250000D03*
X257740000Y-326250000D03*
%TD*%
D20*
%TO.C,U4*%
X270280000Y-316000000D03*
X255280000Y-301000000D03*
X285280000Y-301000000D03*
X270280000Y-286000000D03*
D21*
X260280000Y-283500000D03*
X260280000Y-286000000D03*
X260280000Y-288500000D03*
X260280000Y-291000000D03*
X260280000Y-293500000D03*
X260280000Y-296000000D03*
X260280000Y-298500000D03*
X260280000Y-301000000D03*
X252780000Y-311000000D03*
X255280000Y-311000000D03*
X257780000Y-311000000D03*
X260280000Y-311000000D03*
X262780000Y-311000000D03*
X265280000Y-311000000D03*
X267780000Y-311000000D03*
X270280000Y-311000000D03*
X280280000Y-318500000D03*
X280280000Y-316000000D03*
X280280000Y-313500000D03*
X280280000Y-311000000D03*
X280280000Y-308500000D03*
X280280000Y-306000000D03*
X280280000Y-303500000D03*
X280280000Y-301000000D03*
X287780000Y-291000000D03*
X285280000Y-291000000D03*
X282780000Y-291000000D03*
X280280000Y-291000000D03*
X277780000Y-291000000D03*
X275280000Y-291000000D03*
X272780000Y-291000000D03*
X270280000Y-291000000D03*
X252780000Y-318500000D03*
X255280000Y-318500000D03*
X257780000Y-318500000D03*
X260280000Y-318500000D03*
X262780000Y-318500000D03*
X265280000Y-318500000D03*
X267780000Y-318500000D03*
X270280000Y-318500000D03*
X287780000Y-283500000D03*
X285280000Y-283500000D03*
X282780000Y-283500000D03*
X280280000Y-283500000D03*
X277780000Y-283500000D03*
X275280000Y-283500000D03*
X272780000Y-283500000D03*
X270280000Y-283500000D03*
%TD*%
D13*
%TO.C,Q30*%
X192225000Y-273382500D03*
X192225000Y-275662500D03*
D14*
X198525000Y-275662500D03*
D13*
X192225000Y-277942500D03*
%TD*%
D11*
%TO.C,R315*%
X520280000Y-237300000D03*
X520280000Y-239125000D03*
%TD*%
D43*
%TO.C,U92*%
X193495000Y-219425000D03*
D44*
X195775000Y-213125000D03*
D43*
X198055000Y-219425000D03*
%TD*%
D11*
%TO.C,R153*%
X258380000Y-235775000D03*
X258380000Y-237600000D03*
%TD*%
D18*
%TO.C,U79*%
X520070000Y-228000000D03*
X518800000Y-228000000D03*
X517530000Y-228000000D03*
X516260000Y-228000000D03*
X514990000Y-228000000D03*
X513720000Y-228000000D03*
X512450000Y-228000000D03*
X511180000Y-228000000D03*
X511180000Y-233150000D03*
X512450000Y-233150000D03*
X513720000Y-233150000D03*
X514990000Y-233150000D03*
X516260000Y-233150000D03*
X517530000Y-233150000D03*
X518800000Y-233150000D03*
X520070000Y-233150000D03*
%TD*%
D10*
%TO.C,R12*%
X183100000Y-267712500D03*
X183100000Y-265887500D03*
%TD*%
%TO.C,R131*%
X231325000Y-293425000D03*
X231325000Y-291600000D03*
%TD*%
%TO.C,R69*%
X231250000Y-327887500D03*
X231250000Y-326062500D03*
%TD*%
D11*
%TO.C,R156*%
X253880000Y-235775000D03*
X253880000Y-237600000D03*
%TD*%
D12*
%TO.C,C17*%
X541400000Y-217900000D03*
X543125000Y-217900000D03*
%TD*%
D10*
%TO.C,R57*%
X224350000Y-327887500D03*
X224350000Y-326062500D03*
%TD*%
D18*
%TO.C,U57*%
X559370000Y-335150000D03*
X558100000Y-335150000D03*
X556830000Y-335150000D03*
X555560000Y-335150000D03*
X554290000Y-335150000D03*
X553020000Y-335150000D03*
X551750000Y-335150000D03*
X550480000Y-335150000D03*
X550480000Y-340300000D03*
X551750000Y-340300000D03*
X553020000Y-340300000D03*
X554290000Y-340300000D03*
X555560000Y-340300000D03*
X556830000Y-340300000D03*
X558100000Y-340300000D03*
X559370000Y-340300000D03*
%TD*%
D11*
%TO.C,R184*%
X265080000Y-235800000D03*
X265080000Y-237625000D03*
%TD*%
D13*
%TO.C,Q54*%
X192225000Y-281707500D03*
X192225000Y-283987500D03*
D14*
X198525000Y-283987500D03*
D13*
X192225000Y-286267500D03*
%TD*%
D11*
%TO.C,R89*%
X190000000Y-257662500D03*
X190000000Y-259487500D03*
%TD*%
D16*
%TO.C,U36*%
X511480000Y-225050000D03*
X512750000Y-225050000D03*
X514020000Y-225050000D03*
X515290000Y-225050000D03*
X516560000Y-225050000D03*
X517830000Y-225050000D03*
X519100000Y-225050000D03*
X520370000Y-225050000D03*
X520370000Y-219900000D03*
X519100000Y-219900000D03*
X517830000Y-219900000D03*
X516560000Y-219900000D03*
X515290000Y-219900000D03*
X514020000Y-219900000D03*
X512750000Y-219900000D03*
X511480000Y-219900000D03*
%TD*%
D13*
%TO.C,Q31*%
X213800000Y-298857500D03*
X213800000Y-301137500D03*
D14*
X220100000Y-301137500D03*
D13*
X213800000Y-303417500D03*
%TD*%
D11*
%TO.C,R155*%
X255380000Y-235775000D03*
X255380000Y-237600000D03*
%TD*%
D20*
%TO.C,U12*%
X350280000Y-316000000D03*
X335280000Y-301000000D03*
X365280000Y-301000000D03*
X350280000Y-286000000D03*
D21*
X340280000Y-283500000D03*
X340280000Y-286000000D03*
X340280000Y-288500000D03*
X340280000Y-291000000D03*
X340280000Y-293500000D03*
X340280000Y-296000000D03*
X340280000Y-298500000D03*
X340280000Y-301000000D03*
X332780000Y-311000000D03*
X335280000Y-311000000D03*
X337780000Y-311000000D03*
X340280000Y-311000000D03*
X342780000Y-311000000D03*
X345280000Y-311000000D03*
X347780000Y-311000000D03*
X350280000Y-311000000D03*
X360280000Y-318500000D03*
X360280000Y-316000000D03*
X360280000Y-313500000D03*
X360280000Y-311000000D03*
X360280000Y-308500000D03*
X360280000Y-306000000D03*
X360280000Y-303500000D03*
X360280000Y-301000000D03*
X367780000Y-291000000D03*
X365280000Y-291000000D03*
X362780000Y-291000000D03*
X360280000Y-291000000D03*
X357780000Y-291000000D03*
X355280000Y-291000000D03*
X352780000Y-291000000D03*
X350280000Y-291000000D03*
X332780000Y-318500000D03*
X335280000Y-318500000D03*
X337780000Y-318500000D03*
X340280000Y-318500000D03*
X342780000Y-318500000D03*
X345280000Y-318500000D03*
X347780000Y-318500000D03*
X350280000Y-318500000D03*
X367780000Y-283500000D03*
X365280000Y-283500000D03*
X362780000Y-283500000D03*
X360280000Y-283500000D03*
X357780000Y-283500000D03*
X355280000Y-283500000D03*
X352780000Y-283500000D03*
X350280000Y-283500000D03*
%TD*%
D11*
%TO.C,R145*%
X421480000Y-236787500D03*
X421480000Y-238612500D03*
%TD*%
D10*
%TO.C,R304*%
X501780000Y-324112500D03*
X501780000Y-322287500D03*
%TD*%
D20*
%TO.C,U50*%
X550280000Y-316000000D03*
X535280000Y-301000000D03*
X565280000Y-301000000D03*
X550280000Y-286000000D03*
D21*
X540280000Y-283500000D03*
X540280000Y-286000000D03*
X540280000Y-288500000D03*
X540280000Y-291000000D03*
X540280000Y-293500000D03*
X540280000Y-296000000D03*
X540280000Y-298500000D03*
X540280000Y-301000000D03*
X532780000Y-311000000D03*
X535280000Y-311000000D03*
X537780000Y-311000000D03*
X540280000Y-311000000D03*
X542780000Y-311000000D03*
X545280000Y-311000000D03*
X547780000Y-311000000D03*
X550280000Y-311000000D03*
X560280000Y-318500000D03*
X560280000Y-316000000D03*
X560280000Y-313500000D03*
X560280000Y-311000000D03*
X560280000Y-308500000D03*
X560280000Y-306000000D03*
X560280000Y-303500000D03*
X560280000Y-301000000D03*
X567780000Y-291000000D03*
X565280000Y-291000000D03*
X562780000Y-291000000D03*
X560280000Y-291000000D03*
X557780000Y-291000000D03*
X555280000Y-291000000D03*
X552780000Y-291000000D03*
X550280000Y-291000000D03*
X532780000Y-318500000D03*
X535280000Y-318500000D03*
X537780000Y-318500000D03*
X540280000Y-318500000D03*
X542780000Y-318500000D03*
X545280000Y-318500000D03*
X547780000Y-318500000D03*
X550280000Y-318500000D03*
X567780000Y-283500000D03*
X565280000Y-283500000D03*
X562780000Y-283500000D03*
X560280000Y-283500000D03*
X557780000Y-283500000D03*
X555280000Y-283500000D03*
X552780000Y-283500000D03*
X550280000Y-283500000D03*
%TD*%
D10*
%TO.C,R215*%
X442680000Y-323900000D03*
X442680000Y-322075000D03*
%TD*%
D18*
%TO.C,U47*%
X548880000Y-335150000D03*
X547610000Y-335150000D03*
X546340000Y-335150000D03*
X545070000Y-335150000D03*
X543800000Y-335150000D03*
X542530000Y-335150000D03*
X541260000Y-335150000D03*
X539990000Y-335150000D03*
X539990000Y-340300000D03*
X541260000Y-340300000D03*
X542530000Y-340300000D03*
X543800000Y-340300000D03*
X545070000Y-340300000D03*
X546340000Y-340300000D03*
X547610000Y-340300000D03*
X548880000Y-340300000D03*
%TD*%
D10*
%TO.C,R310*%
X340580000Y-324125000D03*
X340580000Y-322300000D03*
%TD*%
D15*
%TO.C,Q58*%
X227650000Y-291562500D03*
X227650000Y-293462500D03*
X229525000Y-292512500D03*
%TD*%
D18*
%TO.C,U76*%
X351170000Y-228000000D03*
X349900000Y-228000000D03*
X348630000Y-228000000D03*
X347360000Y-228000000D03*
X346090000Y-228000000D03*
X344820000Y-228000000D03*
X343550000Y-228000000D03*
X342280000Y-228000000D03*
X342280000Y-233150000D03*
X343550000Y-233150000D03*
X344820000Y-233150000D03*
X346090000Y-233150000D03*
X347360000Y-233150000D03*
X348630000Y-233150000D03*
X349900000Y-233150000D03*
X351170000Y-233150000D03*
%TD*%
D11*
%TO.C,R143*%
X424480000Y-236787500D03*
X424480000Y-238612500D03*
%TD*%
D13*
%TO.C,Q5*%
X235025000Y-247395000D03*
X235025000Y-249675000D03*
D14*
X241325000Y-249675000D03*
D13*
X235025000Y-251955000D03*
%TD*%
D10*
%TO.C,R73*%
X203175000Y-327725000D03*
X203175000Y-325900000D03*
%TD*%
D45*
%TO.C,C7*%
X230200000Y-241050000D03*
X230200000Y-242775000D03*
%TD*%
D15*
%TO.C,Q42*%
X227750000Y-308637500D03*
X227750000Y-310537500D03*
X229625000Y-309587500D03*
%TD*%
D16*
%TO.C,U85*%
X539535000Y-332350000D03*
X540805000Y-332350000D03*
X542075000Y-332350000D03*
X543345000Y-332350000D03*
X544615000Y-332350000D03*
X545885000Y-332350000D03*
X547155000Y-332350000D03*
X548425000Y-332350000D03*
X548425000Y-327200000D03*
X547155000Y-327200000D03*
X545885000Y-327200000D03*
X544615000Y-327200000D03*
X543345000Y-327200000D03*
X542075000Y-327200000D03*
X540805000Y-327200000D03*
X539535000Y-327200000D03*
%TD*%
D10*
%TO.C,R366*%
X374780000Y-323912500D03*
X374780000Y-322087500D03*
%TD*%
D11*
%TO.C,R146*%
X419980000Y-236787500D03*
X419980000Y-238612500D03*
%TD*%
%TO.C,R203*%
X441480000Y-236900000D03*
X441480000Y-238725000D03*
%TD*%
D12*
%TO.C,C32*%
X205137500Y-230300000D03*
X206862500Y-230300000D03*
%TD*%
D10*
%TO.C,R115*%
X188500000Y-284975000D03*
X188500000Y-283150000D03*
%TD*%
%TO.C,R275*%
X480380000Y-323900000D03*
X480380000Y-322075000D03*
%TD*%
D13*
%TO.C,Q64*%
X213750000Y-333770000D03*
X213750000Y-336050000D03*
D14*
X220050000Y-336050000D03*
D13*
X213750000Y-338330000D03*
%TD*%
D11*
%TO.C,R319*%
X514280000Y-237300000D03*
X514280000Y-239125000D03*
%TD*%
D10*
%TO.C,R124*%
X204700000Y-267887500D03*
X204700000Y-266062500D03*
%TD*%
D28*
%TO.C,H2*%
X177000000Y-213000000D03*
%TD*%
D10*
%TO.C,R3*%
X203150000Y-293457500D03*
X203150000Y-291632500D03*
%TD*%
%TO.C,R165*%
X256780000Y-323812500D03*
X256780000Y-321987500D03*
%TD*%
%TO.C,R8*%
X225900000Y-250750000D03*
X225900000Y-248925000D03*
%TD*%
%TO.C,R193*%
X269780000Y-323925000D03*
X269780000Y-322100000D03*
%TD*%
D18*
%TO.C,U43*%
X424890000Y-227900000D03*
X423620000Y-227900000D03*
X422350000Y-227900000D03*
X421080000Y-227900000D03*
X419810000Y-227900000D03*
X418540000Y-227900000D03*
X417270000Y-227900000D03*
X416000000Y-227900000D03*
X416000000Y-233050000D03*
X417270000Y-233050000D03*
X418540000Y-233050000D03*
X419810000Y-233050000D03*
X421080000Y-233050000D03*
X422350000Y-233050000D03*
X423620000Y-233050000D03*
X424890000Y-233050000D03*
%TD*%
D10*
%TO.C,R22*%
X224400000Y-276575000D03*
X224400000Y-274750000D03*
%TD*%
D11*
%TO.C,R341*%
X545680000Y-236900000D03*
X545680000Y-238725000D03*
%TD*%
D10*
%TO.C,R246*%
X469880000Y-323900000D03*
X469880000Y-322075000D03*
%TD*%
D16*
%TO.C,U87*%
X384300000Y-332200000D03*
X385570000Y-332200000D03*
X386840000Y-332200000D03*
X388110000Y-332200000D03*
X389380000Y-332200000D03*
X390650000Y-332200000D03*
X391920000Y-332200000D03*
X393190000Y-332200000D03*
X393190000Y-327050000D03*
X391920000Y-327050000D03*
X390650000Y-327050000D03*
X389380000Y-327050000D03*
X388110000Y-327050000D03*
X386840000Y-327050000D03*
X385570000Y-327050000D03*
X384300000Y-327050000D03*
%TD*%
D10*
%TO.C,R41*%
X224325000Y-301925000D03*
X224325000Y-300100000D03*
%TD*%
%TO.C,R63*%
X183025000Y-276462500D03*
X183025000Y-274637500D03*
%TD*%
D16*
%TO.C,U16*%
X267690000Y-225000000D03*
X268960000Y-225000000D03*
X270230000Y-225000000D03*
X271500000Y-225000000D03*
X272770000Y-225000000D03*
X274040000Y-225000000D03*
X275310000Y-225000000D03*
X276580000Y-225000000D03*
X276580000Y-219850000D03*
X275310000Y-219850000D03*
X274040000Y-219850000D03*
X272770000Y-219850000D03*
X271500000Y-219850000D03*
X270230000Y-219850000D03*
X268960000Y-219850000D03*
X267690000Y-219850000D03*
%TD*%
D13*
%TO.C,Q16*%
X213800000Y-315957500D03*
X213800000Y-318237500D03*
D14*
X220100000Y-318237500D03*
D13*
X213800000Y-320517500D03*
%TD*%
D18*
%TO.C,U13*%
X275675000Y-335125000D03*
X274405000Y-335125000D03*
X273135000Y-335125000D03*
X271865000Y-335125000D03*
X270595000Y-335125000D03*
X269325000Y-335125000D03*
X268055000Y-335125000D03*
X266785000Y-335125000D03*
X266785000Y-340275000D03*
X268055000Y-340275000D03*
X269325000Y-340275000D03*
X270595000Y-340275000D03*
X271865000Y-340275000D03*
X273135000Y-340275000D03*
X274405000Y-340275000D03*
X275675000Y-340275000D03*
%TD*%
D11*
%TO.C,R257*%
X498280000Y-237300000D03*
X498280000Y-239125000D03*
%TD*%
%TO.C,R152*%
X259880000Y-235775000D03*
X259880000Y-237600000D03*
%TD*%
D10*
%TO.C,R284*%
X333080000Y-324125000D03*
X333080000Y-322300000D03*
%TD*%
%TO.C,R337*%
X356980000Y-324025000D03*
X356980000Y-322200000D03*
%TD*%
%TO.C,R31*%
X183100000Y-293570000D03*
X183100000Y-291745000D03*
%TD*%
D15*
%TO.C,Q51*%
X206487500Y-308587500D03*
X206487500Y-310487500D03*
X208362500Y-309537500D03*
%TD*%
D10*
%TO.C,R136*%
X396980000Y-324325000D03*
X396980000Y-322500000D03*
%TD*%
D12*
%TO.C,C31*%
X520100000Y-342200000D03*
X521825000Y-342200000D03*
%TD*%
D18*
%TO.C,U89*%
X400825000Y-228000000D03*
X399555000Y-228000000D03*
X398285000Y-228000000D03*
X397015000Y-228000000D03*
X395745000Y-228000000D03*
X394475000Y-228000000D03*
X393205000Y-228000000D03*
X391935000Y-228000000D03*
X391935000Y-233150000D03*
X393205000Y-233150000D03*
X394475000Y-233150000D03*
X395745000Y-233150000D03*
X397015000Y-233150000D03*
X398285000Y-233150000D03*
X399555000Y-233150000D03*
X400825000Y-233150000D03*
%TD*%
D11*
%TO.C,R354*%
X379480000Y-237500000D03*
X379480000Y-239325000D03*
%TD*%
D16*
%TO.C,U51*%
X405240000Y-332200000D03*
X406510000Y-332200000D03*
X407780000Y-332200000D03*
X409050000Y-332200000D03*
X410320000Y-332200000D03*
X411590000Y-332200000D03*
X412860000Y-332200000D03*
X414130000Y-332200000D03*
X414130000Y-327050000D03*
X412860000Y-327050000D03*
X411590000Y-327050000D03*
X410320000Y-327050000D03*
X409050000Y-327050000D03*
X407780000Y-327050000D03*
X406510000Y-327050000D03*
X405240000Y-327050000D03*
%TD*%
D28*
%TO.C,H9*%
X377000000Y-213000000D03*
%TD*%
D10*
%TO.C,R47*%
X183125000Y-319087500D03*
X183125000Y-317262500D03*
%TD*%
D11*
%TO.C,R60*%
X211625000Y-300250000D03*
X211625000Y-302075000D03*
%TD*%
D16*
%TO.C,U41*%
X394780000Y-332200000D03*
X396050000Y-332200000D03*
X397320000Y-332200000D03*
X398590000Y-332200000D03*
X399860000Y-332200000D03*
X401130000Y-332200000D03*
X402400000Y-332200000D03*
X403670000Y-332200000D03*
X403670000Y-327050000D03*
X402400000Y-327050000D03*
X401130000Y-327050000D03*
X399860000Y-327050000D03*
X398590000Y-327050000D03*
X397320000Y-327050000D03*
X396050000Y-327050000D03*
X394780000Y-327050000D03*
%TD*%
D11*
%TO.C,R346*%
X538180000Y-236900000D03*
X538180000Y-238725000D03*
%TD*%
%TO.C,R326*%
X353680000Y-236712500D03*
X353680000Y-238537500D03*
%TD*%
D10*
%TO.C,R282*%
X330080000Y-324112500D03*
X330080000Y-322287500D03*
%TD*%
D13*
%TO.C,Q63*%
X192200000Y-307132500D03*
X192200000Y-309412500D03*
D14*
X198500000Y-309412500D03*
D13*
X192200000Y-311692500D03*
%TD*%
D11*
%TO.C,R270*%
X308160000Y-237500000D03*
X308160000Y-239325000D03*
%TD*%
D19*
%TO.C,C8*%
X265162500Y-342300000D03*
X263437500Y-342300000D03*
%TD*%
D10*
%TO.C,R110*%
X183100000Y-284975000D03*
X183100000Y-283150000D03*
%TD*%
D46*
%TO.C,U68*%
X187400000Y-232125000D03*
X186600000Y-232125000D03*
X185800000Y-232125000D03*
X185000000Y-232125000D03*
X184200000Y-232125000D03*
X183400000Y-232125000D03*
X182600000Y-232125000D03*
X181800000Y-232125000D03*
D47*
X180425000Y-233500000D03*
X180425000Y-234300000D03*
X180425000Y-235100000D03*
X180425000Y-235900000D03*
X180425000Y-236700000D03*
X180425000Y-237500000D03*
X180425000Y-238300000D03*
X180425000Y-239100000D03*
D46*
X181800000Y-240475000D03*
X182600000Y-240475000D03*
X183400000Y-240475000D03*
X184200000Y-240475000D03*
X185000000Y-240475000D03*
X185800000Y-240475000D03*
X186600000Y-240475000D03*
X187400000Y-240475000D03*
D47*
X188775000Y-239100000D03*
X188775000Y-238300000D03*
X188775000Y-237500000D03*
X188775000Y-236700000D03*
X188775000Y-235900000D03*
X188775000Y-235100000D03*
X188775000Y-234300000D03*
X188775000Y-233500000D03*
%TD*%
D10*
%TO.C,R255*%
X313480000Y-324537500D03*
X313480000Y-322712500D03*
%TD*%
D11*
%TO.C,R313*%
X523280000Y-237300000D03*
X523280000Y-239125000D03*
%TD*%
D12*
%TO.C,C41*%
X235800000Y-236150000D03*
X237525000Y-236150000D03*
%TD*%
D16*
%TO.C,U58*%
X393680000Y-225050000D03*
X394950000Y-225050000D03*
X396220000Y-225050000D03*
X397490000Y-225050000D03*
X398760000Y-225050000D03*
X400030000Y-225050000D03*
X401300000Y-225050000D03*
X402570000Y-225050000D03*
X402570000Y-219900000D03*
X401300000Y-219900000D03*
X400030000Y-219900000D03*
X398760000Y-219900000D03*
X397490000Y-219900000D03*
X396220000Y-219900000D03*
X394950000Y-219900000D03*
X393680000Y-219900000D03*
%TD*%
D11*
%TO.C,R376*%
X557780000Y-237000000D03*
X557780000Y-238825000D03*
%TD*%
%TO.C,R298*%
X341980000Y-236700000D03*
X341980000Y-238525000D03*
%TD*%
%TO.C,R150*%
X262880000Y-235775000D03*
X262880000Y-237600000D03*
%TD*%
D10*
%TO.C,R369*%
X379280000Y-323900000D03*
X379280000Y-322075000D03*
%TD*%
D12*
%TO.C,C28*%
X267737500Y-217900000D03*
X269462500Y-217900000D03*
%TD*%
D10*
%TO.C,R356*%
X535880000Y-324200000D03*
X535880000Y-322375000D03*
%TD*%
%TO.C,R185*%
X420380000Y-324025000D03*
X420380000Y-322200000D03*
%TD*%
%TO.C,R29*%
X204300000Y-250650000D03*
X204300000Y-248825000D03*
%TD*%
D11*
%TO.C,R228*%
X475180000Y-237400000D03*
X475180000Y-239225000D03*
%TD*%
D10*
%TO.C,R311*%
X349480000Y-324025000D03*
X349480000Y-322200000D03*
%TD*%
D11*
%TO.C,R235*%
X306680000Y-237500000D03*
X306680000Y-239325000D03*
%TD*%
D28*
%TO.C,H6*%
X569000000Y-345000000D03*
%TD*%
D16*
%TO.C,U60*%
X268185000Y-331400000D03*
X269455000Y-331400000D03*
X270725000Y-331400000D03*
X271995000Y-331400000D03*
X273265000Y-331400000D03*
X274535000Y-331400000D03*
X275805000Y-331400000D03*
X277075000Y-331400000D03*
X277075000Y-326250000D03*
X275805000Y-326250000D03*
X274535000Y-326250000D03*
X273265000Y-326250000D03*
X271995000Y-326250000D03*
X270725000Y-326250000D03*
X269455000Y-326250000D03*
X268185000Y-326250000D03*
%TD*%
D10*
%TO.C,R101*%
X188475000Y-327925000D03*
X188475000Y-326100000D03*
%TD*%
%TO.C,R83*%
X231300000Y-284825000D03*
X231300000Y-283000000D03*
%TD*%
%TO.C,R64*%
X204725000Y-302075000D03*
X204725000Y-300250000D03*
%TD*%
D11*
%TO.C,R288*%
X504280000Y-237300000D03*
X504280000Y-239125000D03*
%TD*%
%TO.C,R6*%
X232725000Y-248850000D03*
X232725000Y-250675000D03*
%TD*%
D10*
%TO.C,R55*%
X181525000Y-276462500D03*
X181525000Y-274637500D03*
%TD*%
%TO.C,R163*%
X418880000Y-324025000D03*
X418880000Y-322200000D03*
%TD*%
%TO.C,R339*%
X359980000Y-324025000D03*
X359980000Y-322200000D03*
%TD*%
D11*
%TO.C,R27*%
X190000000Y-291745000D03*
X190000000Y-293570000D03*
%TD*%
%TO.C,R344*%
X541180000Y-236900000D03*
X541180000Y-238725000D03*
%TD*%
D20*
%TO.C,U11*%
X350280000Y-276000000D03*
X335280000Y-261000000D03*
X365280000Y-261000000D03*
X350280000Y-246000000D03*
D21*
X340280000Y-243500000D03*
X340280000Y-246000000D03*
X340280000Y-248500000D03*
X340280000Y-251000000D03*
X340280000Y-253500000D03*
X340280000Y-256000000D03*
X340280000Y-258500000D03*
X340280000Y-261000000D03*
X332780000Y-271000000D03*
X335280000Y-271000000D03*
X337780000Y-271000000D03*
X340280000Y-271000000D03*
X342780000Y-271000000D03*
X345280000Y-271000000D03*
X347780000Y-271000000D03*
X350280000Y-271000000D03*
X360280000Y-278500000D03*
X360280000Y-276000000D03*
X360280000Y-273500000D03*
X360280000Y-271000000D03*
X360280000Y-268500000D03*
X360280000Y-266000000D03*
X360280000Y-263500000D03*
X360280000Y-261000000D03*
X367780000Y-251000000D03*
X365280000Y-251000000D03*
X362780000Y-251000000D03*
X360280000Y-251000000D03*
X357780000Y-251000000D03*
X355280000Y-251000000D03*
X352780000Y-251000000D03*
X350280000Y-251000000D03*
X332780000Y-278500000D03*
X335280000Y-278500000D03*
X337780000Y-278500000D03*
X340280000Y-278500000D03*
X342780000Y-278500000D03*
X345280000Y-278500000D03*
X347780000Y-278500000D03*
X350280000Y-278500000D03*
X367780000Y-243500000D03*
X365280000Y-243500000D03*
X362780000Y-243500000D03*
X360280000Y-243500000D03*
X357780000Y-243500000D03*
X355280000Y-243500000D03*
X352780000Y-243500000D03*
X350280000Y-243500000D03*
%TD*%
D13*
%TO.C,Q38*%
X235025000Y-281807500D03*
X235025000Y-284087500D03*
D14*
X241325000Y-284087500D03*
D13*
X235025000Y-286367500D03*
%TD*%
%TO.C,Q32*%
X234950000Y-324707500D03*
X234950000Y-326987500D03*
D14*
X241250000Y-326987500D03*
D13*
X234950000Y-329267500D03*
%TD*%
D11*
%TO.C,R154*%
X256880000Y-235775000D03*
X256880000Y-237600000D03*
%TD*%
D10*
%TO.C,R30*%
X225900000Y-276575000D03*
X225900000Y-274750000D03*
%TD*%
D11*
%TO.C,R381*%
X401480000Y-237400000D03*
X401480000Y-239225000D03*
%TD*%
D10*
%TO.C,R391*%
X550980000Y-324000000D03*
X550980000Y-322175000D03*
%TD*%
%TO.C,R50*%
X210100000Y-276562500D03*
X210100000Y-274737500D03*
%TD*%
%TO.C,R336*%
X355480000Y-324025000D03*
X355480000Y-322200000D03*
%TD*%
D11*
%TO.C,R112*%
X232750000Y-334942500D03*
X232750000Y-336767500D03*
%TD*%
D10*
%TO.C,R5*%
X224400000Y-319242500D03*
X224400000Y-317417500D03*
%TD*%
%TO.C,R360*%
X541880000Y-324200000D03*
X541880000Y-322375000D03*
%TD*%
D18*
%TO.C,U44*%
X263125000Y-227925000D03*
X261855000Y-227925000D03*
X260585000Y-227925000D03*
X259315000Y-227925000D03*
X258045000Y-227925000D03*
X256775000Y-227925000D03*
X255505000Y-227925000D03*
X254235000Y-227925000D03*
X254235000Y-233075000D03*
X255505000Y-233075000D03*
X256775000Y-233075000D03*
X258045000Y-233075000D03*
X259315000Y-233075000D03*
X260585000Y-233075000D03*
X261855000Y-233075000D03*
X263125000Y-233075000D03*
%TD*%
D19*
%TO.C,C13*%
X432200000Y-342300000D03*
X430475000Y-342300000D03*
%TD*%
D15*
%TO.C,Q25*%
X227625000Y-257642500D03*
X227625000Y-259542500D03*
X229500000Y-258592500D03*
%TD*%
D11*
%TO.C,R263*%
X476680000Y-237400000D03*
X476680000Y-239225000D03*
%TD*%
D31*
%TO.C,C40*%
X200600000Y-218962500D03*
X200600000Y-217237500D03*
%TD*%
D15*
%TO.C,Q11*%
X184862500Y-291707500D03*
X184862500Y-293607500D03*
X186737500Y-292657500D03*
%TD*%
D11*
%TO.C,R386*%
X393980000Y-237400000D03*
X393980000Y-239225000D03*
%TD*%
D20*
%TO.C,U5*%
X310280000Y-276000000D03*
X295280000Y-261000000D03*
X325280000Y-261000000D03*
X310280000Y-246000000D03*
D21*
X300280000Y-243500000D03*
X300280000Y-246000000D03*
X300280000Y-248500000D03*
X300280000Y-251000000D03*
X300280000Y-253500000D03*
X300280000Y-256000000D03*
X300280000Y-258500000D03*
X300280000Y-261000000D03*
X292780000Y-271000000D03*
X295280000Y-271000000D03*
X297780000Y-271000000D03*
X300280000Y-271000000D03*
X302780000Y-271000000D03*
X305280000Y-271000000D03*
X307780000Y-271000000D03*
X310280000Y-271000000D03*
X320280000Y-278500000D03*
X320280000Y-276000000D03*
X320280000Y-273500000D03*
X320280000Y-271000000D03*
X320280000Y-268500000D03*
X320280000Y-266000000D03*
X320280000Y-263500000D03*
X320280000Y-261000000D03*
X327780000Y-251000000D03*
X325280000Y-251000000D03*
X322780000Y-251000000D03*
X320280000Y-251000000D03*
X317780000Y-251000000D03*
X315280000Y-251000000D03*
X312780000Y-251000000D03*
X310280000Y-251000000D03*
X292780000Y-278500000D03*
X295280000Y-278500000D03*
X297780000Y-278500000D03*
X300280000Y-278500000D03*
X302780000Y-278500000D03*
X305280000Y-278500000D03*
X307780000Y-278500000D03*
X310280000Y-278500000D03*
X327780000Y-243500000D03*
X325280000Y-243500000D03*
X322780000Y-243500000D03*
X320280000Y-243500000D03*
X317780000Y-243500000D03*
X315280000Y-243500000D03*
X312780000Y-243500000D03*
X310280000Y-243500000D03*
%TD*%
D46*
%TO.C,U63*%
X204975000Y-232125000D03*
X204175000Y-232125000D03*
X203375000Y-232125000D03*
X202575000Y-232125000D03*
X201775000Y-232125000D03*
X200975000Y-232125000D03*
X200175000Y-232125000D03*
X199375000Y-232125000D03*
D47*
X198000000Y-233500000D03*
X198000000Y-234300000D03*
X198000000Y-235100000D03*
X198000000Y-235900000D03*
X198000000Y-236700000D03*
X198000000Y-237500000D03*
X198000000Y-238300000D03*
X198000000Y-239100000D03*
D46*
X199375000Y-240475000D03*
X200175000Y-240475000D03*
X200975000Y-240475000D03*
X201775000Y-240475000D03*
X202575000Y-240475000D03*
X203375000Y-240475000D03*
X204175000Y-240475000D03*
X204975000Y-240475000D03*
D47*
X206350000Y-239100000D03*
X206350000Y-238300000D03*
X206350000Y-237500000D03*
X206350000Y-236700000D03*
X206350000Y-235900000D03*
X206350000Y-235100000D03*
X206350000Y-234300000D03*
X206350000Y-233500000D03*
%TD*%
D10*
%TO.C,R338*%
X358480000Y-324025000D03*
X358480000Y-322200000D03*
%TD*%
%TO.C,R39*%
X181625000Y-319075000D03*
X181625000Y-317250000D03*
%TD*%
D12*
%TO.C,C38*%
X298737500Y-217700000D03*
X300462500Y-217700000D03*
%TD*%
D10*
%TO.C,R307*%
X336080000Y-324125000D03*
X336080000Y-322300000D03*
%TD*%
D16*
%TO.C,U64*%
X442480000Y-331400000D03*
X443750000Y-331400000D03*
X445020000Y-331400000D03*
X446290000Y-331400000D03*
X447560000Y-331400000D03*
X448830000Y-331400000D03*
X450100000Y-331400000D03*
X451370000Y-331400000D03*
X451370000Y-326250000D03*
X450100000Y-326250000D03*
X448830000Y-326250000D03*
X447560000Y-326250000D03*
X446290000Y-326250000D03*
X445020000Y-326250000D03*
X443750000Y-326250000D03*
X442480000Y-326250000D03*
%TD*%
D11*
%TO.C,R379*%
X547180000Y-236900000D03*
X547180000Y-238725000D03*
%TD*%
D28*
%TO.C,H4*%
X377000000Y-345000000D03*
%TD*%
D18*
%TO.C,U67*%
X300670000Y-228000000D03*
X299400000Y-228000000D03*
X298130000Y-228000000D03*
X296860000Y-228000000D03*
X295590000Y-228000000D03*
X294320000Y-228000000D03*
X293050000Y-228000000D03*
X291780000Y-228000000D03*
X291780000Y-233150000D03*
X293050000Y-233150000D03*
X294320000Y-233150000D03*
X295590000Y-233150000D03*
X296860000Y-233150000D03*
X298130000Y-233150000D03*
X299400000Y-233150000D03*
X300670000Y-233150000D03*
%TD*%
D11*
%TO.C,R180*%
X271080000Y-235800000D03*
X271080000Y-237625000D03*
%TD*%
%TO.C,R238*%
X302180000Y-237500000D03*
X302180000Y-239325000D03*
%TD*%
D32*
%TO.C,C2*%
X205200000Y-219337500D03*
X205200000Y-216837500D03*
%TD*%
M02*
