%TF.GenerationSoftware,KiCad,Pcbnew,8.0.6*%
%TF.CreationDate,2025-05-14T01:22:40+09:00*%
%TF.ProjectId,denko_test,64656e6b-6f5f-4746-9573-742e6b696361,rev?*%
%TF.SameCoordinates,Original*%
%TF.FileFunction,Legend,Bot*%
%TF.FilePolarity,Positive*%
%FSLAX46Y46*%
G04 Gerber Fmt 4.6, Leading zero omitted, Abs format (unit mm)*
G04 Created by KiCad (PCBNEW 8.0.6) date 2025-05-14 01:22:40*
%MOMM*%
%LPD*%
G01*
G04 APERTURE LIST*
%ADD10C,0.150000*%
%ADD11C,0.120000*%
G04 APERTURE END LIST*
D10*
X226683333Y-236454819D02*
X226683333Y-237169104D01*
X226683333Y-237169104D02*
X226730952Y-237311961D01*
X226730952Y-237311961D02*
X226826190Y-237407200D01*
X226826190Y-237407200D02*
X226969047Y-237454819D01*
X226969047Y-237454819D02*
X227064285Y-237454819D01*
X226207142Y-237454819D02*
X226207142Y-236454819D01*
X226207142Y-236454819D02*
X225826190Y-236454819D01*
X225826190Y-236454819D02*
X225730952Y-236502438D01*
X225730952Y-236502438D02*
X225683333Y-236550057D01*
X225683333Y-236550057D02*
X225635714Y-236645295D01*
X225635714Y-236645295D02*
X225635714Y-236788152D01*
X225635714Y-236788152D02*
X225683333Y-236883390D01*
X225683333Y-236883390D02*
X225730952Y-236931009D01*
X225730952Y-236931009D02*
X225826190Y-236978628D01*
X225826190Y-236978628D02*
X226207142Y-236978628D01*
X225254761Y-236550057D02*
X225207142Y-236502438D01*
X225207142Y-236502438D02*
X225111904Y-236454819D01*
X225111904Y-236454819D02*
X224873809Y-236454819D01*
X224873809Y-236454819D02*
X224778571Y-236502438D01*
X224778571Y-236502438D02*
X224730952Y-236550057D01*
X224730952Y-236550057D02*
X224683333Y-236645295D01*
X224683333Y-236645295D02*
X224683333Y-236740533D01*
X224683333Y-236740533D02*
X224730952Y-236883390D01*
X224730952Y-236883390D02*
X225302380Y-237454819D01*
X225302380Y-237454819D02*
X224683333Y-237454819D01*
X226333333Y-233754819D02*
X226333333Y-234469104D01*
X226333333Y-234469104D02*
X226380952Y-234611961D01*
X226380952Y-234611961D02*
X226476190Y-234707200D01*
X226476190Y-234707200D02*
X226619047Y-234754819D01*
X226619047Y-234754819D02*
X226714285Y-234754819D01*
X225857142Y-234754819D02*
X225857142Y-233754819D01*
X225857142Y-233754819D02*
X225476190Y-233754819D01*
X225476190Y-233754819D02*
X225380952Y-233802438D01*
X225380952Y-233802438D02*
X225333333Y-233850057D01*
X225333333Y-233850057D02*
X225285714Y-233945295D01*
X225285714Y-233945295D02*
X225285714Y-234088152D01*
X225285714Y-234088152D02*
X225333333Y-234183390D01*
X225333333Y-234183390D02*
X225380952Y-234231009D01*
X225380952Y-234231009D02*
X225476190Y-234278628D01*
X225476190Y-234278628D02*
X225857142Y-234278628D01*
X224333333Y-234754819D02*
X224904761Y-234754819D01*
X224619047Y-234754819D02*
X224619047Y-233754819D01*
X224619047Y-233754819D02*
X224714285Y-233897676D01*
X224714285Y-233897676D02*
X224809523Y-233992914D01*
X224809523Y-233992914D02*
X224904761Y-234040533D01*
D11*
%TO.C,JP2*%
X221100000Y-237200000D02*
X221100000Y-236600000D01*
X221800000Y-235900000D02*
X223200000Y-235900000D01*
X223200000Y-237900000D02*
X221800000Y-237900000D01*
X223900000Y-236600000D02*
X223900000Y-237200000D01*
X221100000Y-236600000D02*
G75*
G02*
X221800000Y-235900000I700000J0D01*
G01*
X221800000Y-237900000D02*
G75*
G02*
X221100000Y-237200000I0J700000D01*
G01*
X223200000Y-235900000D02*
G75*
G02*
X223900000Y-236600000I1J-699999D01*
G01*
X223900000Y-237200000D02*
G75*
G02*
X223200000Y-237900000I-699999J-1D01*
G01*
%TO.C,JP1*%
X221100000Y-234500000D02*
X221100000Y-233900000D01*
X221800000Y-233200000D02*
X223200000Y-233200000D01*
X223200000Y-235200000D02*
X221800000Y-235200000D01*
X223900000Y-233900000D02*
X223900000Y-234500000D01*
X221100000Y-233900000D02*
G75*
G02*
X221800000Y-233200000I700000J0D01*
G01*
X221800000Y-235200000D02*
G75*
G02*
X221100000Y-234500000I0J700000D01*
G01*
X223200000Y-233200000D02*
G75*
G02*
X223900000Y-233900000I1J-699999D01*
G01*
X223900000Y-234500000D02*
G75*
G02*
X223200000Y-235200000I-699999J-1D01*
G01*
%TD*%
M02*
