M48
; DRILL file {KiCad 8.0.6} date 2025-05-14T01:23:15+0900
; FORMAT={-:-/ absolute / inch / decimal}
; #@! TF.CreationDate,2025-05-14T01:23:15+09:00
; #@! TF.GenerationSoftware,Kicad,Pcbnew,8.0.6
; #@! TF.FileFunction,Plated,1,2,PTH
FMAT,2
INCH
; #@! TA.AperFunction,Plated,PTH,ViaDrill
T1C0.0118
; #@! TA.AperFunction,Plated,PTH,ViaDrill
T2C0.0236
; #@! TA.AperFunction,Plated,PTH,ComponentDrill
T3C0.0256
; #@! TA.AperFunction,Plated,PTH,ComponentDrill
T4C0.0295
; #@! TA.AperFunction,Plated,PTH,ComponentDrill
T5C0.0315
; #@! TA.AperFunction,Plated,PTH,ComponentDrill
T6C0.0354
; #@! TA.AperFunction,Plated,PTH,ComponentDrill
T7C0.0394
%
G90
G05
T1
X6.8441Y-12.7862
X6.8465Y-9.2992
X6.8504Y-8.4252
X6.8504Y-8.622
X6.8504Y-8.8189
X6.8504Y-9.0157
X6.8504Y-9.2126
X6.8504Y-12.9528
X6.8504Y-13.1496
X6.8504Y-13.3465
X6.8504Y-13.5433
X6.8647Y-9.4252
X6.8661Y-10.937
X6.8884Y-9.378
X6.8898Y-10.6339
X6.9094Y-10.3819
X6.9094Y-12.311
X6.9198Y-9.3765
X6.937Y-9.2047
X6.9409Y-9.6024
X6.9449Y-12.9291
X6.9567Y-10.4783
X6.9567Y-12.0276
X6.9567Y-12.4055
X6.9567Y-12.7205
X6.9724Y-9.6024
X6.9769Y-10.3459
X6.9803Y-11.7205
X6.9882Y-9.0
X6.9902Y-8.8346
X6.9961Y-13.1614
X6.998Y-8.6299
X7.0036Y-10.3292
X7.0039Y-11.4094
X7.0079Y-8.2677
X7.0079Y-9.5787
X7.0079Y-13.7008
X7.0098Y-13.3406
X7.0433Y-9.5236
X7.0669Y-9.0866
X7.0748Y-13.0551
X7.0891Y-9.4646
X7.0996Y-9.4134
X7.1421Y-13.0969
X7.1427Y-9.8504
X7.1467Y-10.8844
X7.1476Y-11.2835
X7.1486Y-12.9099
X7.1496Y-10.217
X7.1496Y-10.5399
X7.1496Y-11.2195
X7.1496Y-11.5579
X7.1496Y-12.2167
X7.1506Y-12.562
X7.1526Y-11.8907
X7.1535Y-9.998
X7.1535Y-10.935
X7.1575Y-11.0965
X7.1614Y-9.9016
X7.1614Y-10.0866
X7.1654Y-9.0394
X7.1654Y-9.2008
X7.1654Y-10.4016
X7.1654Y-11.435
X7.1693Y-10.2756
X7.1772Y-12.2815
X7.185Y-8.6594
X7.1929Y-9.311
X7.1929Y-9.4016
X7.1969Y-9.0827
X7.2018Y-9.8504
X7.2047Y-8.2677
X7.2047Y-12.9705
X7.2047Y-13.7008
X7.2057Y-10.8844
X7.2077Y-12.9099
X7.2087Y-10.217
X7.2087Y-10.5399
X7.2087Y-11.2195
X7.2087Y-11.5579
X7.2087Y-12.2167
X7.2096Y-12.5625
X7.2116Y-11.8907
X7.2185Y-11.622
X7.2185Y-12.622
X7.2343Y-13.1909
X7.2343Y-13.3406
X7.2343Y-13.498
X7.2382Y-11.9685
X7.2402Y-12.2874
X7.252Y-9.1388
X7.2657Y-10.0866
X7.2677Y-9.4016
X7.2697Y-9.8553
X7.2736Y-11.4331
X7.2751Y-10.8858
X7.2766Y-10.218
X7.2766Y-10.5418
X7.2766Y-11.221
X7.2771Y-12.9119
X7.2776Y-12.5635
X7.2776Y-13.0531
X7.2781Y-11.5594
X7.2781Y-12.2182
X7.2795Y-9.9055
X7.2795Y-11.8922
X7.2835Y-9.311
X7.2874Y-9.2008
X7.3031Y-12.7087
X7.3051Y-11.0945
X7.3071Y-11.685
X7.3268Y-12.3031
X7.3386Y-12.6102
X7.3445Y-12.2539
X7.3465Y-9.315
X7.3465Y-10.4449
X7.3484Y-13.315
X7.3504Y-9.2008
X7.3504Y-9.4055
X7.3504Y-10.25
X7.3504Y-11.4724
X7.3504Y-11.9528
X7.3543Y-11.2598
X7.3583Y-11.998
X7.3583Y-13.1319
X7.3602Y-10.126
X7.3602Y-10.935
X7.3622Y-11.1358
X7.378Y-13.5531
X7.4016Y-8.2677
X7.4016Y-13.7008
X7.4055Y-12.9665
X7.4114Y-11.4291
X7.4134Y-10.4035
X7.4173Y-10.0827
X7.4173Y-12.2874
X7.4173Y-12.7028
X7.4193Y-10.3386
X7.4193Y-12.6201
X7.4213Y-9.9331
X7.4232Y-11.0807
X7.4232Y-11.6791
X7.4232Y-11.9843
X7.4252Y-10.9843
X7.4252Y-11.3071
X7.4272Y-10.0039
X7.4272Y-11.6142
X7.4409Y-9.2559
X7.4409Y-9.2874
X7.4409Y-9.3189
X7.4409Y-9.3504
X7.4409Y-9.3819
X7.4409Y-9.4134
X7.4587Y-13.2224
X7.461Y-9.1031
X7.4783Y-13.4311
X7.4862Y-13.313
X7.5039Y-9.2131
X7.5055Y-8.9941
X7.5197Y-8.7402
X7.5295Y-12.689
X7.5315Y-8.8465
X7.5374Y-11.998
X7.5394Y-9.6732
X7.5413Y-9.1201
X7.5413Y-11.3504
X7.5492Y-11.685
X7.5551Y-9.0496
X7.563Y-9.1454
X7.563Y-9.649
X7.5709Y-13.5295
X7.5748Y-8.8031
X7.5748Y-11.0157
X7.5748Y-13.0276
X7.5866Y-9.6193
X7.5945Y-8.9016
X7.5984Y-13.7008
X7.6Y-9.0043
X7.6063Y-13.2224
X7.6102Y-9.6457
X7.6201Y-10.3445
X7.622Y-8.752
X7.6339Y-9.676
X7.6358Y-13.4626
X7.6398Y-9.9764
X7.6417Y-10.9823
X7.6437Y-10.5866
X7.6457Y-8.8543
X7.6457Y-12.5827
X7.6457Y-12.9252
X7.6476Y-10.1181
X7.6476Y-10.4449
X7.6476Y-12.7087
X7.6496Y-9.3778
X7.6496Y-9.9114
X7.6496Y-10.2362
X7.6496Y-10.7972
X7.6496Y-11.4606
X7.6516Y-11.252
X7.6516Y-11.5728
X7.6516Y-11.6358
X7.6535Y-11.0591
X7.6535Y-11.128
X7.6535Y-11.3583
X7.6535Y-11.6811
X7.6535Y-11.9154
X7.6535Y-11.9921
X7.6575Y-9.7047
X7.6634Y-10.8996
X7.6654Y-8.7126
X7.6709Y-9.0945
X7.6732Y-9.3524
X7.6811Y-8.811
X7.6949Y-13.5512
X7.7146Y-9.0937
X7.7146Y-9.9843
X7.7219Y-9.4882
X7.7244Y-8.7638
X7.7382Y-11.998
X7.7402Y-10.6811
X7.748Y-10.3543
X7.752Y-10.0295
X7.7559Y-9.0945
X7.7579Y-13.0236
X7.7598Y-13.2244
X7.7668Y-9.6909
X7.7717Y-11.6831
X7.7756Y-8.9528
X7.7795Y-11.002
X7.7795Y-12.7008
X7.7899Y-9.4882
X7.7953Y-9.4134
X7.7953Y-13.7008
X7.7973Y-9.683
X7.8091Y-11.0374
X7.815Y-13.4685
X7.8327Y-10.3268
X7.8337Y-9.686
X7.8346Y-9.9882
X7.8386Y-8.5669
X7.8445Y-10.6772
X7.8465Y-11.3445
X7.8504Y-13.5512
X7.8622Y-10.0335
X7.8661Y-10.3661
X7.874Y-8.685
X7.8819Y-11.002
X7.8878Y-12.0
X7.8976Y-9.6772
X7.9035Y-11.6791
X7.9134Y-9.3819
X7.9154Y-12.7126
X7.9173Y-11.0295
X7.9193Y-10.6929
X7.9213Y-9.2244
X7.9213Y-9.2559
X7.9213Y-9.2874
X7.9213Y-9.3189
X7.9213Y-9.3504
X7.9213Y-9.4124
X7.9252Y-11.3602
X7.9291Y-13.063
X7.9356Y-9.6786
X7.937Y-8.4764
X7.9402Y-9.0748
X7.9409Y-13.2224
X7.9419Y-9.1378
X7.9488Y-8.5669
X7.9528Y-8.6811
X7.9764Y-10.0787
X7.9783Y-11.4232
X7.9789Y-9.655
X7.9823Y-10.7579
X7.9833Y-9.6862
X7.9843Y-9.8681
X7.9921Y-8.2677
X7.9921Y-13.7008
X7.9961Y-8.563
X7.998Y-11.5534
X8.0Y-10.2131
X8.0Y-10.5468
X8.0Y-10.8883
X8.002Y-11.2234
X8.0039Y-9.0945
X8.0079Y-8.6811
X8.0157Y-9.937
X8.0157Y-10.2953
X8.0236Y-11.9646
X8.0276Y-10.626
X8.0315Y-10.9685
X8.0315Y-11.2953
X8.0315Y-11.626
X8.0315Y-12.2835
X8.0315Y-12.9882
X8.0315Y-13.1358
X8.0335Y-13.5512
X8.0354Y-10.0827
X8.0354Y-10.7598
X8.0374Y-9.0906
X8.0374Y-11.4252
X8.0433Y-8.8504
X8.0433Y-9.9724
X8.0433Y-12.626
X8.0472Y-8.7638
X8.0472Y-8.9016
X8.0492Y-13.4626
X8.0551Y-9.5236
X8.1024Y-13.0354
X8.122Y-8.7559
X8.122Y-12.6732
X8.126Y-8.8543
X8.1339Y-8.9055
X8.1496Y-12.3307
X8.1693Y-11.9921
X8.185Y-8.6969
X8.189Y-8.2677
X8.189Y-11.6654
X8.189Y-13.7008
X8.1969Y-8.8346
X8.2008Y-8.4862
X8.2126Y-11.3307
X8.2165Y-13.5512
X8.2362Y-10.9921
X8.2409Y-9.0236
X8.2587Y-9.1059
X8.2638Y-8.7756
X8.2677Y-10.315
X8.2707Y-9.5866
X8.2717Y-8.8976
X8.2717Y-9.6201
X8.2815Y-13.4646
X8.315Y-8.5906
X8.3587Y-9.1654
X8.3642Y-9.9705
X8.374Y-8.8937
X8.374Y-10.6555
X8.3799Y-9.6457
X8.3858Y-8.2677
X8.3858Y-13.7008
X8.3898Y-10.3228
X8.4035Y-13.5512
X8.4055Y-11.3307
X8.4055Y-13.0354
X8.4094Y-9.0748
X8.4134Y-11.6654
X8.4291Y-12.3307
X8.4291Y-13.3819
X8.43Y-9.3858
X8.437Y-11.9961
X8.4449Y-12.6732
X8.4522Y-9.3627
X8.4646Y-8.6929
X8.4665Y-8.502
X8.4665Y-8.8465
X8.4764Y-9.1457
X8.4764Y-9.3425
X8.4843Y-10.9921
X8.4902Y-10.6535
X8.4921Y-9.8858
X8.4941Y-10.5689
X8.4961Y-13.2933
X8.5Y-9.9724
X8.5039Y-13.374
X8.5079Y-9.6457
X8.5157Y-9.5472
X8.5276Y-9.0787
X8.5571Y-13.4626
X8.5669Y-9.5827
X8.5669Y-9.6339
X8.5827Y-8.2677
X8.5827Y-13.7008
X8.5931Y-9.3618
X8.5945Y-9.1378
X8.5945Y-13.5433
X8.5984Y-9.3307
X8.6063Y-13.378
X8.6102Y-10.6535
X8.626Y-9.9724
X8.6496Y-9.2087
X8.6713Y-9.5866
X8.6772Y-8.9961
X8.685Y-9.6358
X8.7165Y-9.6063
X8.7303Y-10.6516
X8.7307Y-9.0236
X8.7323Y-13.372
X8.7421Y-9.9705
X8.749Y-9.6939
X8.7549Y-9.0787
X8.7549Y-9.1378
X8.7717Y-9.4606
X8.7795Y-8.2677
X8.7795Y-13.7008
X8.7874Y-13.5492
X8.803Y-9.4636
X8.815Y-8.4961
X8.815Y-8.6969
X8.8268Y-8.8622
X8.8287Y-12.9606
X8.8307Y-13.4626
X8.8317Y-10.2182
X8.8317Y-11.8868
X8.8327Y-12.909
X8.8327Y-13.2591
X8.8346Y-9.4685
X8.8346Y-10.5487
X8.8346Y-10.8888
X8.8346Y-11.2136
X8.8346Y-11.9409
X8.8346Y-12.5686
X8.8356Y-11.5522
X8.8366Y-11.6083
X8.8366Y-12.2795
X8.8366Y-12.6201
X8.8396Y-12.2239
X8.8657Y-9.4738
X8.8701Y-9.6024
X8.872Y-13.3228
X8.8814Y-9.1535
X8.8907Y-10.2182
X8.8907Y-11.8868
X8.8917Y-12.909
X8.8917Y-13.2586
X8.8937Y-9.872
X8.8937Y-10.5487
X8.8937Y-10.8888
X8.8937Y-11.2136
X8.8937Y-12.5686
X8.8947Y-11.5522
X8.8986Y-12.2239
X8.9567Y-8.9409
X8.9587Y-11.8883
X8.9611Y-12.9104
X8.9611Y-13.26
X8.9616Y-10.2182
X8.9616Y-10.5497
X8.9616Y-11.2151
X8.9616Y-12.5696
X8.9626Y-8.6398
X8.9626Y-11.5536
X8.9631Y-10.8903
X8.9646Y-8.5197
X8.9646Y-8.7677
X8.9764Y-8.2677
X8.9764Y-13.7008
X8.9843Y-13.3228
X8.9862Y-11.6102
X8.9862Y-12.2756
X8.9882Y-12.6201
X8.9921Y-12.9587
X8.9941Y-11.939
X9.0138Y-13.5472
X9.0472Y-9.0236
X9.0512Y-9.3543
X9.0709Y-8.7933
X9.0945Y-9.388
X9.0984Y-9.0433
X9.1122Y-8.6024
X9.122Y-9.0669
X9.122Y-9.3622
X9.1732Y-8.2677
X9.1732Y-13.7008
X9.1752Y-9.1122
X9.1988Y-13.4626
X9.2106Y-8.3839
X9.2165Y-9.5669
X9.2195Y-8.7569
X9.2323Y-8.8031
X9.2402Y-9.4488
X9.2402Y-13.5531
X9.2441Y-9.372
X9.2441Y-9.5315
X9.2835Y-8.7362
X9.2835Y-9.2972
X9.2953Y-9.4449
X9.3543Y-9.1083
X9.3701Y-8.2677
X9.3701Y-13.7008
X9.374Y-8.4705
X9.378Y-8.937
X9.4114Y-9.3268
X9.4705Y-8.7972
X9.4882Y-13.4587
X9.5177Y-8.3701
X9.5256Y-9.1102
X9.5394Y-13.5453
X9.5669Y-8.2677
X9.5669Y-13.7008
X9.5807Y-8.9449
X9.5866Y-8.6614
X9.6142Y-9.0591
X9.6142Y-9.1496
X9.6565Y-9.2825
X9.685Y-8.7933
X9.7264Y-9.2441
X9.7638Y-8.2677
X9.7638Y-13.7008
X9.8051Y-8.7185
X9.815Y-13.4665
X9.8268Y-13.3622
X9.8366Y-13.1811
X9.8406Y-9.1457
X9.8524Y-13.5531
X9.8681Y-8.4508
X9.876Y-9.2461
X9.937Y-8.7205
X9.9429Y-13.0807
X9.9508Y-9.1713
X9.9587Y-9.0098
X9.9606Y-8.2677
X9.9606Y-8.752
X9.9606Y-13.7008
X9.9882Y-8.7953
X9.9953Y-9.3543
X10.0079Y-9.0374
X10.0079Y-9.0965
X10.0276Y-8.7717
X10.0315Y-8.5886
X10.0374Y-13.3602
X10.0504Y-12.6767
X10.0543Y-9.3543
X10.0866Y-12.9587
X10.0866Y-13.4744
X10.0866Y-13.5531
X10.0945Y-13.1929
X10.1094Y-12.6767
X10.1122Y-8.5138
X10.1134Y-9.3543
X10.1417Y-13.2835
X10.1575Y-8.2677
X10.1575Y-13.7008
X10.1685Y-12.6767
X10.1724Y-9.3543
X10.1772Y-12.9547
X10.1811Y-8.5787
X10.189Y-9.0453
X10.1917Y-13.3071
X10.1929Y-9.0886
X10.2059Y-8.6555
X10.2276Y-12.6767
X10.2315Y-9.3543
X10.2417Y-13.3307
X10.2461Y-8.5886
X10.2559Y-8.7205
X10.2866Y-12.6767
X10.2874Y-13.4646
X10.2906Y-9.3543
X10.2917Y-13.3543
X10.3071Y-8.748
X10.3248Y-8.5059
X10.3248Y-13.5433
X10.3327Y-8.5846
X10.3417Y-13.3967
X10.3457Y-12.6767
X10.3496Y-9.3543
X10.3543Y-8.2677
X10.3543Y-8.7717
X10.3543Y-13.7008
X10.3661Y-9.0433
X10.3681Y-9.0945
X10.3716Y-13.4764
X10.4047Y-12.6767
X10.4055Y-8.7953
X10.4075Y-9.0472
X10.4094Y-9.0925
X10.4172Y-13.2402
X10.4187Y-8.9734
X10.4362Y-9.3553
X10.4488Y-12.9173
X10.4567Y-8.6732
X10.4567Y-8.8583
X10.4638Y-12.6767
X10.4764Y-8.5886
X10.4843Y-12.9626
X10.5Y-13.0472
X10.5Y-13.4921
X10.5039Y-13.1929
X10.5323Y-12.422
X10.5433Y-13.126
X10.5465Y-12.4882
X10.5472Y-8.5098
X10.5472Y-12.9488
X10.5512Y-8.2677
X10.5512Y-13.7008
X10.5533Y-13.2835
X10.5827Y-9.0433
X10.5827Y-9.0886
X10.6033Y-13.3071
X10.6102Y-8.5787
X10.628Y-13.4882
X10.639Y-8.6555
X10.6459Y-12.4944
X10.6533Y-13.3307
X10.6752Y-8.5906
X10.6764Y-9.5433
X10.689Y-8.7205
X10.7033Y-13.3543
X10.7278Y-13.2402
X10.7382Y-12.9567
X10.7402Y-8.748
X10.7433Y-9.7087
X10.748Y-8.2677
X10.748Y-13.7008
X10.7697Y-8.5039
X10.7736Y-9.0394
X10.7736Y-9.0925
X10.7748Y-12.5394
X10.7854Y-13.4902
X10.7894Y-8.5886
X10.7953Y-8.7717
X10.8204Y-12.5883
X10.8386Y-8.7953
X10.8457Y-9.7126
X10.8484Y-9.0394
X10.8484Y-9.0965
X10.8898Y-8.8583
X10.9094Y-12.9488
X10.9094Y-13.0512
X10.9283Y-9.7126
X10.935Y-8.8366
X10.9449Y-8.2677
X10.9449Y-8.5906
X10.9449Y-13.7008
X10.9606Y-12.9547
X10.9862Y-8.8976
X10.9882Y-8.5098
X10.9949Y-13.239
X11.0118Y-9.0394
X11.0118Y-9.0866
X11.0346Y-9.7126
X11.0453Y-13.4961
X11.0591Y-8.8327
X11.065Y-13.1689
X11.1004Y-8.502
X11.1122Y-8.5866
X11.1193Y-13.2358
X11.1299Y-12.9606
X11.1417Y-8.2677
X11.1417Y-13.7008
X11.1449Y-9.7087
X11.2142Y-13.1961
X11.2146Y-9.0394
X11.2146Y-9.0945
X11.2315Y-9.7087
X11.2315Y-12.8465
X11.2362Y-13.4921
X11.2559Y-8.6969
X11.2661Y-13.2492
X11.2795Y-8.5886
X11.2827Y-12.8425
X11.2827Y-13.0472
X11.2913Y-8.5059
X11.326Y-9.7047
X11.3307Y-13.0472
X11.3346Y-12.9508
X11.3386Y-8.2677
X11.3386Y-13.7008
X11.378Y-13.0354
X11.3898Y-12.9508
X11.4028Y-13.1878
X11.4087Y-9.4218
X11.4094Y-8.5748
X11.436Y-8.6585
X11.439Y-13.4921
X11.448Y-13.0748
X11.4646Y-8.5059
X11.4681Y-9.4218
X11.4744Y-8.5807
X11.478Y-13.2453
X11.4843Y-9.0945
X11.4862Y-9.0472
X11.4882Y-8.7205
X11.5272Y-9.4222
X11.5354Y-8.2677
X11.5354Y-8.748
X11.5354Y-13.7008
X11.5394Y-13.1858
X11.5748Y-8.5059
X11.5748Y-8.5787
X11.5827Y-8.7717
X11.5862Y-9.4222
X11.6378Y-8.7953
X11.6453Y-9.4222
X11.6512Y-13.2441
X11.6575Y-13.0472
X11.6606Y-12.753
X11.6673Y-13.4902
X11.6811Y-9.0453
X11.6823Y-13.1835
X11.685Y-8.6811
X11.685Y-8.8425
X11.685Y-9.0866
X11.6909Y-12.9547
X11.7028Y-8.5787
X11.7039Y-9.4222
X11.7087Y-8.498
X11.7197Y-12.753
X11.7323Y-8.2677
X11.7323Y-13.7008
X11.7472Y-13.2398
X11.7638Y-9.4219
X11.8228Y-9.4219
X11.8329Y-13.2362
X11.8346Y-8.5709
X11.8573Y-8.6585
X11.8622Y-13.1811
X11.872Y-13.4902
X11.8878Y-9.0433
X11.8878Y-9.0965
X11.8969Y-8.9764
X11.9075Y-8.5
X11.9094Y-8.5846
X11.9094Y-8.7205
X11.911Y-13.2835
X11.9291Y-8.2677
X11.9291Y-13.7008
X11.9606Y-8.748
X11.961Y-13.3071
X12.0039Y-8.7717
X12.011Y-13.3307
X12.0197Y-13.0413
X12.0394Y-12.9528
X12.0591Y-8.7953
X12.061Y-13.3543
X12.0709Y-9.0492
X12.0728Y-9.0925
X12.0787Y-13.4843
X12.1004Y-12.9823
X12.1063Y-13.2598
X12.1102Y-8.8622
X12.126Y-8.2677
X12.126Y-13.7008
X12.1693Y-8.5059
X12.1732Y-8.5807
X12.1831Y-8.8366
X12.2203Y-9.6317
X12.2236Y-12.7047
X12.25Y-12.9764
X12.2638Y-9.0394
X12.2657Y-13.5236
X12.2697Y-9.1004
X12.2717Y-13.1811
X12.2827Y-12.7047
X12.3181Y-9.6969
X12.3209Y-13.2795
X12.3228Y-8.2677
X12.3228Y-13.7008
X12.3417Y-12.7052
X12.3504Y-8.9508
X12.3622Y-8.8248
X12.3709Y-13.3031
X12.4008Y-12.7052
X12.4165Y-9.6969
X12.4209Y-13.3307
X12.4311Y-12.9823
X12.4331Y-13.0748
X12.4598Y-12.7052
X12.4685Y-13.1378
X12.4709Y-13.3543
X12.4941Y-12.9823
X12.5Y-8.5039
X12.5039Y-8.5827
X12.5079Y-9.0965
X12.511Y-9.6969
X12.5189Y-12.7052
X12.5197Y-8.2677
X12.5197Y-13.7008
X12.5236Y-13.2559
X12.5571Y-13.5177
X12.578Y-12.7052
X12.5965Y-8.9508
X12.6094Y-9.6969
X12.6181Y-8.8228
X12.637Y-12.7052
X12.6713Y-12.9823
X12.6811Y-13.1476
X12.689Y-13.2087
X12.7039Y-9.6969
X12.7165Y-8.2677
X12.7165Y-13.7008
X12.7283Y-9.1004
X12.7343Y-13.5157
X12.8024Y-9.6969
X12.8327Y-8.9469
X12.8386Y-8.5
X12.8406Y-8.5866
X12.8406Y-13.2146
X12.8465Y-13.0748
X12.8504Y-8.8248
X12.8524Y-12.9862
X12.8976Y-12.9547
X12.9016Y-13.0787
X12.9035Y-13.5118
X12.9047Y-9.6969
X12.9134Y-8.2677
X12.9134Y-13.7008
X12.9606Y-9.0984
X13.0512Y-13.2185
X13.0807Y-12.9587
X13.0906Y-13.0846
X13.0965Y-8.8287
X13.0965Y-8.9469
X13.1102Y-8.2677
X13.1102Y-8.502
X13.1102Y-13.7008
X13.1181Y-13.185
X13.124Y-8.5807
X13.1665Y-13.2835
X13.1752Y-13.5079
X13.185Y-9.0925
X13.2165Y-13.3071
X13.2205Y-13.1339
X13.2598Y-13.0827
X13.2638Y-12.9587
X13.2638Y-13.1339
X13.2665Y-13.1969
X13.2665Y-13.3307
X13.2677Y-8.8268
X13.2866Y-9.3907
X13.3071Y-8.2677
X13.3071Y-8.9508
X13.3071Y-13.7008
X13.3091Y-12.9862
X13.3165Y-13.3543
X13.3307Y-8.5846
X13.3366Y-8.5059
X13.3457Y-9.3907
X13.3661Y-13.2598
X13.3819Y-8.6929
X13.3957Y-13.5059
X13.4047Y-9.3907
X13.4193Y-9.0886
X13.4272Y-8.9508
X13.4638Y-9.3907
X13.4685Y-9.0728
X13.4882Y-8.5827
X13.4941Y-12.9843
X13.5039Y-8.2677
X13.5039Y-13.7008
X13.5197Y-13.2087
X13.5205Y-8.6575
X13.5228Y-9.3907
X13.5476Y-13.1339
X13.5669Y-8.7205
X13.5768Y-13.2795
X13.5819Y-9.3907
X13.5866Y-13.5059
X13.6181Y-8.5118
X13.6181Y-8.748
X13.6201Y-8.5846
X13.6268Y-13.3031
X13.6409Y-9.3907
X13.6535Y-9.0728
X13.6693Y-8.7717
X13.6732Y-13.0709
X13.6768Y-13.3307
X13.6772Y-12.9843
X13.7Y-9.3907
X13.7008Y-8.2677
X13.7008Y-13.7008
X13.7165Y-8.7953
X13.7185Y-12.9843
X13.7268Y-13.3543
X13.7591Y-12.685
X13.7677Y-8.6772
X13.7677Y-8.8622
X13.7697Y-8.5118
X13.7736Y-8.5886
X13.7756Y-13.2559
X13.7972Y-13.498
X13.8181Y-12.685
X13.828Y-9.7236
X13.8327Y-9.0728
X13.874Y-9.0748
X13.8772Y-12.685
X13.8858Y-8.9724
X13.889Y-9.6969
X13.8937Y-8.5059
X13.8976Y-8.2677
X13.8976Y-8.5787
X13.8976Y-13.7008
X13.9055Y-12.9862
X13.9299Y-8.6575
X13.9323Y-12.8661
X13.9362Y-12.685
X13.9764Y-8.7205
X13.9835Y-9.7008
X13.9953Y-12.685
X14.0315Y-8.748
X14.0543Y-12.685
X14.0689Y-9.0728
X14.0787Y-8.7717
X14.0819Y-9.6969
X14.0827Y-13.0709
X14.0886Y-8.5059
X14.0886Y-8.5925
X14.0945Y-8.2677
X14.0945Y-13.7008
X14.0965Y-12.9882
X14.1122Y-13.4862
X14.1134Y-12.685
X14.1134Y-12.7569
X14.1339Y-8.7953
X14.1378Y-13.0866
X14.1398Y-12.9606
X14.1724Y-12.685
X14.1772Y-8.8622
X14.1803Y-9.6929
X14.2264Y-8.8996
X14.2323Y-8.8346
X14.2461Y-9.0689
X14.2787Y-9.6969
X14.2815Y-9.0197
X14.2835Y-8.939
X14.2913Y-8.2677
X14.2913Y-13.7008
X14.3169Y-13.4902
X14.3346Y-8.8287
X14.3425Y-8.5945
X14.3465Y-8.502
X14.3504Y-9.0886
X14.378Y-12.9626
X14.3811Y-9.6929
X14.3819Y-13.0866
X14.4016Y-8.9331
X14.4567Y-9.0177
X14.4756Y-9.6969
X14.4783Y-8.8307
X14.4882Y-8.2677
X14.4882Y-13.7008
X14.5157Y-9.0945
X14.5354Y-8.937
X14.5433Y-8.5
X14.5472Y-8.5945
X14.5669Y-9.0177
X14.5886Y-8.8287
X14.6004Y-12.9665
X14.6043Y-13.0846
X14.6555Y-9.0945
X14.6811Y-13.4921
X14.6831Y-8.935
X14.685Y-8.2677
X14.685Y-13.7008
X14.7421Y-9.0217
X14.752Y-8.5
X14.752Y-8.5945
X14.752Y-8.8307
X14.8051Y-8.937
X14.8268Y-12.9587
X14.8346Y-9.0984
X14.8346Y-13.0866
X14.8811Y-9.4222
X14.8819Y-8.2677
X14.8819Y-13.7008
X14.8839Y-8.9902
X14.9173Y-8.8287
X14.9402Y-9.4222
X14.9626Y-8.8996
X14.9783Y-9.0039
X14.9783Y-9.0945
X14.9882Y-13.2126
X14.9913Y-12.7525
X14.9992Y-9.4222
X15.0059Y-8.5886
X15.0197Y-8.6969
X15.0217Y-8.4941
X15.0217Y-8.9075
X15.0217Y-9.0374
X15.0236Y-9.0925
X15.0256Y-13.498
X15.0276Y-13.1811
X15.0295Y-8.8346
X15.0504Y-12.7525
X15.0583Y-9.4222
X15.0787Y-8.2677
X15.0787Y-13.2756
X15.0787Y-13.7008
X15.0827Y-13.1024
X15.0846Y-12.9606
X15.1094Y-12.7525
X15.1173Y-9.4222
X15.128Y-12.9921
X15.1287Y-13.3031
X15.1417Y-8.5787
X15.1701Y-8.6575
X15.1764Y-9.4222
X15.1787Y-13.3307
X15.2047Y-9.0413
X15.2067Y-9.0925
X15.2205Y-8.7205
X15.2287Y-13.3543
X15.2354Y-9.4222
X15.2717Y-8.748
X15.2756Y-8.2677
X15.2756Y-13.7008
X15.2795Y-13.2559
X15.2815Y-8.5059
X15.2874Y-8.5886
X15.2933Y-13.4961
X15.2945Y-9.4222
X15.2953Y-12.9902
X15.315Y-8.7717
X15.322Y-9.7126
X15.3299Y-12.878
X15.3701Y-8.7953
X15.3701Y-9.0394
X15.374Y-9.0925
X15.3772Y-12.878
X15.4213Y-8.8583
X15.4232Y-8.5886
X15.4252Y-8.685
X15.4291Y-8.9764
X15.4323Y-12.874
X15.4331Y-8.5079
X15.437Y-9.0394
X15.437Y-9.0984
X15.4409Y-13.1772
X15.4559Y-9.6535
X15.4724Y-8.2677
X15.4724Y-13.7008
X15.4783Y-12.9902
X15.4803Y-13.0709
X15.4902Y-13.2756
X15.511Y-12.6969
X15.5315Y-12.9921
X15.5402Y-13.3031
X15.5583Y-9.6693
X15.5701Y-12.6969
X15.5709Y-8.5748
X15.5902Y-13.3268
X15.5992Y-8.6575
X15.6122Y-9.0433
X15.6142Y-9.0945
X15.6291Y-12.6969
X15.6402Y-13.3504
X15.6496Y-8.7205
X15.6567Y-9.6693
X15.6693Y-8.2677
X15.6693Y-13.7008
X15.6732Y-8.5807
X15.6811Y-8.498
X15.6882Y-12.6969
X15.689Y-13.252
X15.6988Y-13.4862
X15.7008Y-8.748
X15.7106Y-12.9902
X15.7472Y-12.6969
X15.752Y-8.7717
X15.7591Y-9.6772
X15.7776Y-9.0925
X15.7795Y-9.0413
X15.7913Y-8.7953
X15.8063Y-12.6969
X15.8248Y-8.9567
X15.8268Y-9.0945
X15.8465Y-8.8622
X15.8575Y-9.6811
X15.8654Y-12.6969
X15.8661Y-8.2677
X15.8661Y-13.7008
X15.8937Y-13.0748
X15.8957Y-8.8287
X15.8957Y-8.8839
X15.8976Y-12.9921
X15.9035Y-13.2323
X15.9213Y-8.5787
X15.9244Y-12.6969
X15.935Y-8.5
X15.9409Y-8.9567
X15.9508Y-12.9902
X15.9559Y-9.685
X15.9941Y-9.0984
X15.9941Y-13.1496
X16.0043Y-13.0787
X16.0472Y-8.8307
X16.0512Y-8.8839
X16.0583Y-9.6811
X16.063Y-8.2677
X16.063Y-13.7008
X16.0689Y-8.9567
X16.0866Y-13.2283
X16.122Y-13.4882
X16.126Y-8.5827
X16.1299Y-12.9902
X16.1339Y-8.5
X16.1673Y-9.0925
X16.2039Y-12.874
X16.2126Y-8.9547
X16.2303Y-8.8287
X16.2303Y-8.8839
X16.2512Y-12.874
X16.2598Y-8.2677
X16.2598Y-13.7008
X16.2874Y-13.2303
X16.3031Y-13.0787
X16.311Y-12.9902
X16.313Y-9.0945
X16.3268Y-8.9547
X16.3465Y-8.5
X16.3484Y-8.5807
X16.3563Y-13.0492
X16.3583Y-12.937
X16.378Y-9.0453
X16.3799Y-13.4941
X16.3819Y-9.0866
X16.4165Y-9.3942
X16.4323Y-12.7569
X16.4331Y-8.8268
X16.4331Y-8.8898
X16.4567Y-8.2677
X16.4567Y-13.7008
X16.4756Y-9.3942
X16.4913Y-12.7569
X16.5098Y-8.4961
X16.5346Y-9.3942
X16.5512Y-9.0394
X16.5512Y-9.0807
X16.5768Y-13.4902
X16.5886Y-12.9331
X16.5906Y-13.0492
X16.5937Y-9.3942
X16.5945Y-8.5787
X16.6122Y-13.2343
X16.6268Y-8.6575
X16.6457Y-8.502
X16.6528Y-9.3942
X16.6535Y-8.2677
X16.6535Y-13.7008
X16.6614Y-13.2126
X16.6732Y-8.7205
X16.7008Y-8.5807
X16.7118Y-9.3942
X16.715Y-13.2756
X16.7157Y-13.189
X16.7224Y-9.0413
X16.7264Y-9.0886
X16.7283Y-8.748
X16.765Y-13.2992
X16.7677Y-13.0453
X16.7709Y-9.3942
X16.7717Y-8.7717
X16.7736Y-12.9331
X16.7906Y-8.9724
X16.7953Y-9.0827
X16.7972Y-9.0492
X16.811Y-13.4843
X16.815Y-13.3268
X16.8169Y-8.4941
X16.8268Y-8.7953
X16.8299Y-9.3942
X16.8484Y-8.5807
X16.8504Y-8.2677
X16.8504Y-13.7008
X16.865Y-13.3504
X16.878Y-8.6811
X16.878Y-8.8622
X16.8839Y-13.0453
X16.889Y-9.7117
X16.9094Y-13.5256
X16.915Y-13.3976
X16.9646Y-13.1024
X16.9665Y-12.9291
X16.9803Y-9.0453
X16.9803Y-9.0866
X16.9921Y-13.252
X17.0Y-12.9528
X17.0079Y-8.5787
X17.0346Y-9.7008
X17.0362Y-8.6575
X17.0472Y-8.2677
X17.0472Y-13.7008
X17.074Y-12.6801
X17.0748Y-13.1732
X17.0807Y-8.5
X17.0866Y-8.7205
X17.1024Y-13.126
X17.128Y-13.2756
X17.1331Y-12.6801
X17.1339Y-8.748
X17.1398Y-9.0374
X17.1409Y-9.7047
X17.1417Y-9.0846
X17.1673Y-12.9488
X17.178Y-13.3031
X17.1811Y-8.7717
X17.1921Y-12.6801
X17.1929Y-9.0906
X17.1949Y-9.0433
X17.2Y-8.9724
X17.2165Y-13.5197
X17.228Y-13.3268
X17.2354Y-9.7047
X17.2402Y-8.7953
X17.2441Y-8.2677
X17.2441Y-13.7008
X17.2512Y-12.6801
X17.278Y-13.3504
X17.2874Y-8.8583
X17.3102Y-12.6801
X17.3268Y-13.252
X17.3299Y-9.7087
X17.3386Y-8.8287
X17.3406Y-8.6555
X17.3465Y-8.8996
X17.3583Y-13.0472
X17.3622Y-8.502
X17.3661Y-12.9508
X17.3693Y-12.6801
X17.376Y-9.0453
X17.3799Y-9.0886
X17.4035Y-8.9016
X17.4075Y-13.5118
X17.4154Y-8.5925
X17.4154Y-12.9547
X17.4283Y-9.7047
X17.4283Y-12.6801
X17.4409Y-8.2677
X17.4409Y-13.7008
X17.4724Y-8.6575
X17.4764Y-8.8287
X17.4874Y-12.6801
X17.5307Y-9.7047
X17.5512Y-9.0413
X17.5571Y-9.0886
X17.5906Y-12.9547
X17.6291Y-9.7047
X17.6299Y-8.9744
X17.6319Y-9.0807
X17.6378Y-8.2677
X17.6378Y-8.502
X17.6378Y-13.7008
X17.6594Y-8.5906
X17.7087Y-13.4685
X17.7197Y-12.8425
X17.7717Y-13.0472
X17.7776Y-12.9528
X17.8091Y-8.6496
X17.815Y-13.0669
X17.8209Y-12.9469
X17.8346Y-8.2677
X17.8346Y-13.7008
X17.8898Y-8.9744
X17.9035Y-9.0866
X17.9244Y-9.4144
X17.939Y-13.4705
X17.9665Y-8.5039
X17.9717Y-12.7451
X17.9831Y-9.4139
X17.9843Y-8.5984
X17.9941Y-12.9449
X18.0236Y-13.2205
X18.0315Y-8.2677
X18.0315Y-13.7008
X18.0421Y-9.4139
X18.0492Y-8.6476
X18.0531Y-13.063
X18.0748Y-13.189
X18.0945Y-8.6969
X18.0945Y-13.4823
X18.1012Y-9.4139
X18.1276Y-13.2756
X18.1417Y-9.0827
X18.1476Y-8.9744
X18.1602Y-9.4139
X18.1614Y-8.5079
X18.1732Y-12.9449
X18.1776Y-13.3031
X18.1791Y-9.1024
X18.1811Y-9.0413
X18.2193Y-9.4139
X18.2205Y-8.5827
X18.2224Y-13.0689
X18.2276Y-13.3268
X18.2283Y-8.2677
X18.2283Y-13.7008
X18.2496Y-8.6575
X18.2776Y-8.5827
X18.2776Y-13.3504
X18.278Y-9.4139
X18.2933Y-12.9449
X18.2972Y-13.124
X18.2992Y-8.7205
X18.2992Y-13.4862
X18.3189Y-12.9744
X18.3306Y-13.249
X18.337Y-9.4139
X18.3504Y-8.748
X18.374Y-9.0433
X18.376Y-9.0925
X18.3937Y-8.5827
X18.3937Y-8.7717
X18.4232Y-13.5256
X18.4252Y-8.2677
X18.4252Y-13.7008
X18.4449Y-8.7953
X18.4587Y-8.502
X18.4756Y-9.7236
X18.4843Y-13.1929
X18.498Y-12.9724
X18.4992Y-12.6801
X18.5Y-8.5866
X18.5Y-8.6811
X18.5Y-8.8622
X18.5106Y-13.1378
X18.5374Y-13.2756
X18.5453Y-9.0984
X18.5472Y-9.0472
X18.5583Y-12.6801
X18.5874Y-13.3031
X18.6016Y-9.7236
X18.6067Y-8.9764
X18.6083Y-9.1004
X18.6122Y-9.0453
X18.6122Y-13.5236
X18.6173Y-12.6801
X18.622Y-8.2677
X18.622Y-13.7008
X18.6299Y-8.5787
X18.6374Y-13.3268
X18.6591Y-8.6575
X18.6764Y-12.6801
X18.6811Y-13.0669
X18.687Y-12.9744
X18.6874Y-13.3504
X18.7039Y-9.7205
X18.7087Y-8.7205
X18.7354Y-12.6801
X18.7362Y-13.252
X18.7402Y-12.9744
X18.7559Y-8.748
X18.7835Y-9.0453
X18.7913Y-9.0984
X18.7945Y-12.6801
X18.8063Y-9.7236
X18.8071Y-8.7717
X18.8189Y-8.2677
X18.8189Y-13.7008
X18.8535Y-12.6801
X18.8583Y-8.7953
X18.9035Y-13.5
X18.9087Y-9.7236
X18.9126Y-12.6801
X18.9134Y-8.8622
X18.9173Y-12.9724
X18.9587Y-9.0413
X18.9626Y-9.1004
X18.9665Y-8.6496
X18.9783Y-13.2146
X18.9882Y-13.1555
X19.0071Y-9.7165
X19.0157Y-8.2677
X19.0157Y-13.7008
X19.0236Y-8.8839
X19.0256Y-9.0236
X19.0315Y-8.5039
X19.0315Y-8.5846
X19.0886Y-13.4902
X19.0945Y-12.9764
X19.0984Y-13.0669
X19.1016Y-9.7236
X19.1201Y-8.6594
X19.1299Y-8.8386
X19.1339Y-13.2146
X19.1398Y-13.0807
X19.1476Y-12.9547
X19.1673Y-9.0945
X19.1961Y-9.7126
X19.2126Y-8.2677
X19.2126Y-13.7008
X19.2736Y-8.8819
X19.2776Y-13.0787
X19.2913Y-9.0236
X19.2972Y-13.4921
X19.3031Y-13.1634
X19.3425Y-12.9469
X19.4094Y-8.2677
X19.4094Y-13.7008
X19.4409Y-8.8327
X19.4469Y-9.0965
X19.4488Y-13.0807
X19.4567Y-8.5
X19.4587Y-8.5886
X19.4646Y-13.2126
X19.4941Y-13.4921
X19.5217Y-8.6594
X19.5374Y-8.8799
X19.5394Y-9.0197
X19.5394Y-12.9469
X19.5583Y-9.4144
X19.6063Y-8.2677
X19.6063Y-13.7008
X19.6173Y-9.4144
X19.637Y-12.7598
X19.6378Y-13.1713
X19.6417Y-13.0807
X19.6614Y-8.9921
X19.6673Y-8.5846
X19.6713Y-8.6496
X19.6732Y-8.6969
X19.6764Y-9.4144
X19.6791Y-12.9469
X19.6811Y-13.2283
X19.6921Y-12.7598
X19.7126Y-9.0965
X19.7126Y-13.189
X19.7146Y-9.0413
X19.7323Y-13.4921
X19.7354Y-9.4144
X19.7551Y-12.7598
X19.765Y-13.2756
X19.7736Y-12.9469
X19.7736Y-13.0748
X19.7945Y-9.4144
X19.7953Y-8.5748
X19.8031Y-8.2677
X19.8031Y-13.7008
X19.815Y-13.3031
X19.8248Y-12.9508
X19.8248Y-12.998
X19.8276Y-8.6575
X19.8535Y-9.4144
X19.865Y-13.3268
X19.8701Y-8.5886
X19.874Y-8.7205
X19.874Y-9.0965
X19.876Y-9.0413
X19.8799Y-8.5079
X19.9126Y-9.4144
X19.915Y-13.3504
X19.9154Y-13.4941
X19.9291Y-8.748
X19.939Y-13.0
X19.9409Y-12.9528
X19.9646Y-13.252
X19.9717Y-9.4144
X19.9724Y-8.7717
X19.9724Y-12.8642
X20.0Y-8.2677
X20.0Y-13.7008
X20.0224Y-12.8642
X20.0276Y-8.7953
X20.0335Y-8.5886
X20.0386Y-9.7157
X20.0551Y-13.5236
X20.0622Y-12.689
X20.0689Y-9.0453
X20.0709Y-9.0965
X20.0724Y-12.8642
X20.0748Y-8.6732
X20.0787Y-8.8661
X20.1181Y-13.1299
X20.1213Y-12.689
X20.1252Y-8.9764
X20.126Y-13.1929
X20.1299Y-9.0925
X20.1319Y-9.0354
X20.1339Y-12.9449
X20.1476Y-13.0059
X20.1732Y-13.063
X20.1764Y-9.7126
X20.1776Y-13.2756
X20.1803Y-12.689
X20.1969Y-8.2677
X20.1969Y-13.7008
X20.2087Y-8.5787
X20.2264Y-12.9488
X20.2276Y-13.3031
X20.2362Y-13.0039
X20.237Y-8.6575
X20.2394Y-12.689
X20.2441Y-13.5236
X20.2776Y-13.3268
X20.2835Y-8.7205
X20.2854Y-8.5846
X20.2906Y-9.7157
X20.2984Y-12.689
X20.3012Y-8.5059
X20.3189Y-9.0571
X20.3189Y-9.0866
X20.3276Y-13.3504
X20.3386Y-8.7441
X20.3575Y-12.689
X20.378Y-13.248
X20.3799Y-13.5197
X20.3858Y-8.7717
X20.389Y-9.7126
X20.3937Y-8.2677
X20.3937Y-13.7008
X20.4075Y-12.9488
X20.4094Y-13.0039
X20.4165Y-12.689
X20.437Y-8.7953
X20.4705Y-8.5827
X20.4756Y-12.689
X20.4783Y-9.0512
X20.4783Y-9.1004
X20.4835Y-9.7087
X20.4921Y-8.8622
X20.5236Y-13.5236
X20.5551Y-9.0945
X20.5689Y-8.8484
X20.5728Y-12.9449
X20.5787Y-13.002
X20.5787Y-13.2146
X20.5787Y-13.4016
X20.5858Y-9.7087
X20.5866Y-13.0669
X20.5906Y-8.2677
X20.5906Y-13.7008
X20.6142Y-8.6555
X20.6417Y-13.0846
X20.6437Y-8.5866
X20.6437Y-9.0886
X20.6752Y-12.9783
X20.6803Y-9.7126
X20.7165Y-13.3996
X20.7165Y-13.4941
X20.7461Y-13.0917
X20.748Y-13.2146
X20.752Y-8.5059
X20.7539Y-9.0965
X20.7827Y-9.7126
X20.7874Y-8.2677
X20.7874Y-13.7008
X20.8287Y-8.8425
X20.8504Y-13.3976
X20.8563Y-8.6575
X20.8622Y-13.4961
X20.8898Y-8.5846
X20.8996Y-9.0906
X20.9232Y-12.9724
X20.9618Y-13.0961
X20.9705Y-13.2126
X20.9843Y-8.2677
X20.9843Y-13.7008
X21.0079Y-8.8445
X21.0335Y-13.4035
X21.0394Y-9.0925
X21.0571Y-13.4941
X21.1122Y-8.6594
X21.1291Y-9.3986
X21.1437Y-8.9823
X21.1457Y-8.5846
X21.1516Y-13.2126
X21.1555Y-9.0413
X21.1559Y-13.1
X21.1594Y-8.502
X21.1634Y-9.0866
X21.1673Y-12.9705
X21.1811Y-8.2677
X21.1811Y-8.9764
X21.1811Y-13.7008
X21.1882Y-9.3986
X21.1988Y-13.3957
X21.2047Y-13.2283
X21.2146Y-8.8366
X21.2421Y-13.0177
X21.2441Y-12.9705
X21.2472Y-9.3986
X21.2598Y-8.6969
X21.2598Y-13.189
X21.2748Y-12.7598
X21.2992Y-13.4882
X21.3063Y-9.3986
X21.3094Y-13.2795
X21.3484Y-9.0453
X21.3484Y-9.0965
X21.3594Y-13.3031
X21.3654Y-9.3986
X21.378Y-8.2677
X21.378Y-13.7008
X21.3819Y-8.5748
X21.4094Y-13.3268
X21.415Y-8.6575
X21.4232Y-13.0138
X21.4244Y-9.3986
X21.4272Y-12.9724
X21.4415Y-12.8819
X21.4594Y-13.3504
X21.4646Y-8.7205
X21.4835Y-9.3986
X21.4862Y-13.502
X21.5079Y-13.252
X21.5157Y-8.748
X21.5276Y-8.5
X21.5315Y-9.0374
X21.5354Y-9.0984
X21.5425Y-9.3986
X21.5669Y-8.7717
X21.5748Y-8.2677
X21.5748Y-13.7008
X21.5827Y-13.0276
X21.5866Y-12.9626
X21.5945Y-9.0413
X21.5945Y-13.0866
X21.5965Y-9.0925
X21.5984Y-8.9803
X21.6142Y-8.7953
X21.6378Y-12.9685
X21.6398Y-13.0236
X21.6575Y-11.5157
X21.665Y-8.8602
X21.6654Y-8.6772
X21.6713Y-11.8386
X21.6732Y-13.1929
X21.6921Y-12.6841
X21.7106Y-13.5354
X21.7244Y-13.2756
X21.7512Y-12.6841
X21.7697Y-9.0984
X21.7717Y-8.2677
X21.7717Y-9.0472
X21.7717Y-13.7008
X21.7724Y-13.3031
X21.7953Y-8.5787
X21.8102Y-12.6841
X21.8209Y-13.3248
X21.8248Y-12.9665
X21.8248Y-13.0138
X21.8276Y-8.6575
X21.8622Y-8.5098
X21.8693Y-12.6841
X21.874Y-8.7165
X21.874Y-13.3504
X21.9252Y-8.748
X21.9252Y-13.2559
X21.9283Y-12.6841
X21.9331Y-11.5276
X21.9409Y-9.0472
X21.9429Y-9.0984
X21.9449Y-11.8425
X21.9567Y-13.5236
X21.9685Y-8.2677
X21.9685Y-13.7008
X21.9724Y-8.7717
X21.9874Y-12.6841
X21.9921Y-12.9646
X21.9941Y-13.0157
X22.0059Y-9.0394
X22.0079Y-13.0906
X22.0098Y-8.5748
X22.0118Y-8.9803
X22.0236Y-8.7953
X22.0465Y-12.6841
X22.061Y-12.9606
X22.061Y-13.0197
X22.0689Y-13.3878
X22.0925Y-9.1142
X22.1055Y-12.6841
X22.1102Y-11.7933
X22.1122Y-12.1634
X22.1161Y-12.5
X22.1161Y-13.2677
X22.1339Y-8.6673
X22.1437Y-13.0098
X22.1575Y-11.5295
X22.1654Y-8.2677
X22.1654Y-13.7008
X22.1713Y-12.815
X22.1791Y-13.1555
X22.187Y-12.9626
X22.2106Y-9.0413
X22.2421Y-9.2539
X22.2657Y-8.7657
X22.2933Y-9.1161
X22.2953Y-9.4587
X22.311Y-13.3425
X22.3366Y-13.0157
X22.3386Y-12.0079
X22.3386Y-12.4744
X22.3406Y-12.1831
X22.3445Y-11.5374
X22.3445Y-11.7421
X22.3504Y-12.811
X22.3524Y-9.4921
X22.3543Y-9.2559
X22.3622Y-13.7008
X22.3799Y-12.9606
X22.3819Y-13.1516
X22.4252Y-8.9252
X22.4291Y-13.0906
X22.5197Y-8.4252
X22.5197Y-8.622
X22.5197Y-8.8189
X22.5197Y-9.0157
X22.5197Y-9.2126
X22.5197Y-9.4094
X22.5197Y-9.6063
X22.5197Y-9.8031
X22.5197Y-10.0
X22.5197Y-10.1969
X22.5197Y-10.3937
X22.5197Y-10.5906
X22.5197Y-10.7874
X22.5197Y-10.9843
X22.5197Y-11.1811
X22.5197Y-11.378
X22.5197Y-11.5748
X22.5197Y-11.7717
X22.5197Y-11.9685
X22.5197Y-12.1654
X22.5197Y-12.3622
X22.5197Y-12.5591
X22.5197Y-12.7559
X22.5197Y-12.9528
X22.5197Y-13.1496
X22.5197Y-13.3465
X22.5197Y-13.5433
T2
X7.4764Y-9.9094
X7.4764Y-10.2717
X7.4764Y-10.5906
X7.4764Y-10.937
X7.4764Y-11.2756
X7.4764Y-11.6142
X7.4764Y-11.9449
X7.4764Y-12.2717
X7.4764Y-12.6181
X7.4764Y-12.9803
X8.3189Y-9.9213
X8.3189Y-10.2756
X8.3189Y-10.6102
X8.3189Y-10.9449
X8.3189Y-11.2756
X8.3189Y-11.6142
X8.3189Y-11.9449
X8.3189Y-12.2756
X8.3189Y-12.622
X8.3189Y-12.9724
X8.3189Y-13.3504
X9.1614Y-9.9213
X9.1614Y-10.2677
X9.1614Y-10.5984
X9.1614Y-10.9409
X9.1614Y-11.2677
X9.1614Y-11.6063
X9.1614Y-11.9409
X9.1614Y-12.2756
X9.1614Y-12.622
X9.1614Y-12.9646
X9.1614Y-13.3268
X9.6575Y-11.185
X9.6575Y-11.2283
X9.6575Y-11.2717
X9.6575Y-11.315
X9.6693Y-12.5551
X9.6693Y-12.7795
X9.6772Y-12.4252
X9.6772Y-12.4685
X9.6772Y-12.5118
X9.6772Y-12.8819
X9.6772Y-12.9213
X9.6772Y-12.9646
X9.6811Y-11.6811
X9.6811Y-12.8425
X9.685Y-13.1181
X9.685Y-13.1614
X9.685Y-13.2087
X9.685Y-13.252
X9.6887Y-12.0036
X9.6969Y-13.3504
X9.7008Y-12.748
X9.7047Y-11.185
X9.7047Y-11.2283
X9.7047Y-11.2717
X9.7047Y-11.315
X9.7047Y-11.5591
X9.7047Y-11.6024
X9.7047Y-11.6457
X9.7126Y-11.8858
X9.7126Y-11.9291
X9.7126Y-11.9724
X9.7283Y-12.4016
X9.7283Y-12.4488
X9.7283Y-12.4961
X9.7283Y-12.5433
X9.7283Y-13.3189
X9.7323Y-12.7165
X9.7323Y-12.9102
X9.7323Y-12.9606
X9.7463Y-12.864
X9.748Y-13.2402
X9.748Y-13.2835
X9.7598Y-11.8701
X9.7598Y-11.9134
X9.7598Y-11.9567
X9.7598Y-12.0
X9.7638Y-12.685
X9.7756Y-12.4291
X9.7756Y-12.4724
X9.7756Y-12.5157
X9.7756Y-12.5591
X9.7756Y-12.8346
X9.8072Y-11.7793
X9.8385Y-11.748
X9.8441Y-10.911
X9.8583Y-11.1506
X9.8583Y-11.4567
X9.859Y-11.7943
X9.8661Y-11.3583
X9.8739Y-11.7126
X9.8815Y-10.8736
X9.8975Y-11.7598
X9.9016Y-11.4567
X9.9036Y-11.1506
X9.9094Y-11.3583
X9.913Y-10.8421
X9.9291Y-11.7126
X9.9425Y-10.8126
X9.9449Y-11.1496
X9.9449Y-11.4567
X9.9469Y-11.7598
X9.9488Y-11.3583
X9.9632Y-10.3898
X9.9835Y-10.437
X9.9854Y-10.4843
X9.9882Y-11.1496
X9.9882Y-11.3583
X9.9882Y-11.4567
X9.9882Y-11.7598
X10.0118Y-10.3898
X10.0268Y-10.4843
X10.0268Y-10.437
X10.0354Y-10.5315
X10.0681Y-10.4843
X10.0709Y-10.3898
X10.074Y-10.437
X10.0748Y-10.5315
X10.1094Y-10.4843
X10.1142Y-10.5315
X10.1181Y-10.3898
X10.1252Y-10.437
X10.1535Y-10.5315
X10.3263Y-10.2717
X10.3732Y-10.2717
X10.4244Y-10.2717
X10.4756Y-10.2717
T3
X9.952Y-10.6693
X9.952Y-10.9646
X9.952Y-12.2441
X9.952Y-12.5394
X10.0504Y-10.6693
X10.0504Y-10.9646
X10.0504Y-12.2441
X10.0504Y-12.5394
X10.1488Y-10.6693
X10.1488Y-10.9646
X10.1488Y-12.2441
X10.1488Y-12.5394
X10.2472Y-9.5866
X10.2472Y-9.685
X10.2472Y-9.7835
X10.2472Y-9.8819
X10.2472Y-9.9803
X10.2472Y-10.0787
X10.2472Y-10.1772
X10.2472Y-10.2756
X10.2472Y-10.6693
X10.2472Y-10.9646
X10.2472Y-11.1614
X10.2472Y-11.2598
X10.2472Y-11.3583
X10.2472Y-11.4567
X10.2472Y-11.5551
X10.2472Y-11.6535
X10.2472Y-11.752
X10.2472Y-11.8504
X10.2472Y-12.2441
X10.2472Y-12.5394
X10.3457Y-10.6693
X10.3457Y-10.9646
X10.3457Y-12.2441
X10.3457Y-12.5394
X10.4441Y-10.6693
X10.4441Y-10.9646
X10.4441Y-12.2441
X10.4441Y-12.5394
X10.5425Y-10.6693
X10.5425Y-10.9646
X10.5425Y-12.2441
X10.5425Y-12.5394
X10.6409Y-9.5866
X10.6409Y-9.8819
X10.6409Y-10.6693
X10.6409Y-10.9646
X10.6409Y-11.1614
X10.6409Y-11.4567
X10.6409Y-12.2441
X10.6409Y-12.5394
X10.7394Y-9.5866
X10.7394Y-9.8819
X10.7394Y-11.1614
X10.7394Y-11.4567
X10.8378Y-9.5866
X10.8378Y-9.8819
X10.8378Y-11.1614
X10.8378Y-11.4567
X10.9362Y-9.5866
X10.9362Y-9.8819
X10.9362Y-11.1614
X10.9362Y-11.4567
X11.0346Y-9.5866
X11.0346Y-9.8819
X11.0346Y-10.2756
X11.0346Y-10.374
X11.0346Y-10.4724
X11.0346Y-10.5709
X11.0346Y-10.6693
X11.0346Y-10.7677
X11.0346Y-10.8661
X11.0346Y-10.9646
X11.0346Y-11.1614
X11.0346Y-11.4567
X11.0346Y-11.8504
X11.0346Y-11.9488
X11.0346Y-12.0472
X11.0346Y-12.1457
X11.0346Y-12.2441
X11.0346Y-12.3425
X11.0346Y-12.4409
X11.0346Y-12.5394
X11.1331Y-9.5866
X11.1331Y-9.8819
X11.1331Y-11.1614
X11.1331Y-11.4567
X11.2315Y-9.5866
X11.2315Y-9.8819
X11.2315Y-11.1614
X11.2315Y-11.4567
X11.3299Y-9.5866
X11.3299Y-9.8819
X11.3299Y-11.1614
X11.3299Y-11.4567
X11.5268Y-10.6693
X11.5268Y-10.9646
X11.5268Y-12.2441
X11.5268Y-12.5394
X11.6252Y-10.6693
X11.6252Y-10.9646
X11.6252Y-12.2441
X11.6252Y-12.5394
X11.7236Y-10.6693
X11.7236Y-10.9646
X11.7236Y-12.2441
X11.7236Y-12.5394
X11.822Y-9.5866
X11.822Y-9.685
X11.822Y-9.7835
X11.822Y-9.8819
X11.822Y-9.9803
X11.822Y-10.0787
X11.822Y-10.1772
X11.822Y-10.2756
X11.822Y-10.6693
X11.822Y-10.9646
X11.822Y-11.1614
X11.822Y-11.2598
X11.822Y-11.3583
X11.822Y-11.4567
X11.822Y-11.5551
X11.822Y-11.6535
X11.822Y-11.752
X11.822Y-11.8504
X11.822Y-12.2441
X11.822Y-12.5394
X11.9205Y-10.6693
X11.9205Y-10.9646
X11.9205Y-12.2441
X11.9205Y-12.5394
X12.0189Y-10.6693
X12.0189Y-10.9646
X12.0189Y-12.2441
X12.0189Y-12.5394
X12.1173Y-10.6693
X12.1173Y-10.9646
X12.1173Y-12.2441
X12.1173Y-12.5394
X12.2157Y-9.5866
X12.2157Y-9.8819
X12.2157Y-10.6693
X12.2157Y-10.9646
X12.2157Y-11.1614
X12.2157Y-11.4567
X12.2157Y-12.2441
X12.2157Y-12.5394
X12.3142Y-9.5866
X12.3142Y-9.8819
X12.3142Y-11.1614
X12.3142Y-11.4567
X12.4126Y-9.5866
X12.4126Y-9.8819
X12.4126Y-11.1614
X12.4126Y-11.4567
X12.511Y-9.5866
X12.511Y-9.8819
X12.511Y-11.1614
X12.511Y-11.4567
X12.6094Y-9.5866
X12.6094Y-9.8819
X12.6094Y-10.2756
X12.6094Y-10.374
X12.6094Y-10.4724
X12.6094Y-10.5709
X12.6094Y-10.6693
X12.6094Y-10.7677
X12.6094Y-10.8661
X12.6094Y-10.9646
X12.6094Y-11.1614
X12.6094Y-11.4567
X12.6094Y-11.8504
X12.6094Y-11.9488
X12.6094Y-12.0472
X12.6094Y-12.1457
X12.6094Y-12.2441
X12.6094Y-12.3425
X12.6094Y-12.4409
X12.6094Y-12.5394
X12.7079Y-9.5866
X12.7079Y-9.8819
X12.7079Y-11.1614
X12.7079Y-11.4567
X12.8063Y-9.5866
X12.8063Y-9.8819
X12.8063Y-11.1614
X12.8063Y-11.4567
X12.9047Y-9.5866
X12.9047Y-9.8819
X12.9047Y-11.1614
X12.9047Y-11.4567
X13.1016Y-10.6693
X13.1016Y-10.9646
X13.1016Y-12.2441
X13.1016Y-12.5394
X13.2Y-10.6693
X13.2Y-10.9646
X13.2Y-12.2441
X13.2Y-12.5394
X13.2984Y-10.6693
X13.2984Y-10.9646
X13.2984Y-12.2441
X13.2984Y-12.5394
X13.3969Y-9.5866
X13.3969Y-9.685
X13.3969Y-9.7835
X13.3969Y-9.8819
X13.3969Y-9.9803
X13.3969Y-10.0787
X13.3969Y-10.1772
X13.3969Y-10.2756
X13.3969Y-10.6693
X13.3969Y-10.9646
X13.3969Y-11.1614
X13.3969Y-11.2598
X13.3969Y-11.3583
X13.3969Y-11.4567
X13.3969Y-11.5551
X13.3969Y-11.6535
X13.3969Y-11.752
X13.3969Y-11.8504
X13.3969Y-12.2441
X13.3969Y-12.5394
X13.4953Y-10.6693
X13.4953Y-10.9646
X13.4953Y-12.2441
X13.4953Y-12.5394
X13.5937Y-10.6693
X13.5937Y-10.9646
X13.5937Y-12.2441
X13.5937Y-12.5394
X13.6921Y-10.6693
X13.6921Y-10.9646
X13.6921Y-12.2441
X13.6921Y-12.5394
X13.7906Y-9.5866
X13.7906Y-9.8819
X13.7906Y-10.6693
X13.7906Y-10.9646
X13.7906Y-11.1614
X13.7906Y-11.4567
X13.7906Y-12.2441
X13.7906Y-12.5394
X13.889Y-9.5866
X13.889Y-9.8819
X13.889Y-11.1614
X13.889Y-11.4567
X13.9874Y-9.5866
X13.9874Y-9.8819
X13.9874Y-11.1614
X13.9874Y-11.4567
X14.0858Y-9.5866
X14.0858Y-9.8819
X14.0858Y-11.1614
X14.0858Y-11.4567
X14.1843Y-9.5866
X14.1843Y-9.8819
X14.1843Y-10.2756
X14.1843Y-10.374
X14.1843Y-10.4724
X14.1843Y-10.5709
X14.1843Y-10.6693
X14.1843Y-10.7677
X14.1843Y-10.8661
X14.1843Y-10.9646
X14.1843Y-11.1614
X14.1843Y-11.4567
X14.1843Y-11.8504
X14.1843Y-11.9488
X14.1843Y-12.0472
X14.1843Y-12.1457
X14.1843Y-12.2441
X14.1843Y-12.3425
X14.1843Y-12.4409
X14.1843Y-12.5394
X14.2827Y-9.5866
X14.2827Y-9.8819
X14.2827Y-11.1614
X14.2827Y-11.4567
X14.3811Y-9.5866
X14.3811Y-9.8819
X14.3811Y-11.1614
X14.3811Y-11.4567
X14.4795Y-9.5866
X14.4795Y-9.8819
X14.4795Y-11.1614
X14.4795Y-11.4567
X14.6764Y-10.6693
X14.6764Y-10.9646
X14.6764Y-12.2441
X14.6764Y-12.5394
X14.7748Y-10.6693
X14.7748Y-10.9646
X14.7748Y-12.2441
X14.7748Y-12.5394
X14.8732Y-10.6693
X14.8732Y-10.9646
X14.8732Y-12.2441
X14.8732Y-12.5394
X14.9717Y-9.5866
X14.9717Y-9.685
X14.9717Y-9.7835
X14.9717Y-9.8819
X14.9717Y-9.9803
X14.9717Y-10.0787
X14.9717Y-10.1772
X14.9717Y-10.2756
X14.9717Y-10.6693
X14.9717Y-10.9646
X14.9717Y-11.1614
X14.9717Y-11.2598
X14.9717Y-11.3583
X14.9717Y-11.4567
X14.9717Y-11.5551
X14.9717Y-11.6535
X14.9717Y-11.752
X14.9717Y-11.8504
X14.9717Y-12.2441
X14.9717Y-12.5394
X15.0701Y-10.6693
X15.0701Y-10.9646
X15.0701Y-12.2441
X15.0701Y-12.5394
X15.1685Y-10.6693
X15.1685Y-10.9646
X15.1685Y-12.2441
X15.1685Y-12.5394
X15.2669Y-10.6693
X15.2669Y-10.9646
X15.2669Y-12.2441
X15.2669Y-12.5394
X15.3654Y-9.5866
X15.3654Y-9.8819
X15.3654Y-10.6693
X15.3654Y-10.9646
X15.3654Y-11.1614
X15.3654Y-11.4567
X15.3654Y-12.2441
X15.3654Y-12.5394
X15.4638Y-9.5866
X15.4638Y-9.8819
X15.4638Y-11.1614
X15.4638Y-11.4567
X15.5622Y-9.5866
X15.5622Y-9.8819
X15.5622Y-11.1614
X15.5622Y-11.4567
X15.6606Y-9.5866
X15.6606Y-9.8819
X15.6606Y-11.1614
X15.6606Y-11.4567
X15.7591Y-9.5866
X15.7591Y-9.8819
X15.7591Y-10.2756
X15.7591Y-10.374
X15.7591Y-10.4724
X15.7591Y-10.5709
X15.7591Y-10.6693
X15.7591Y-10.7677
X15.7591Y-10.8661
X15.7591Y-10.9646
X15.7591Y-11.1614
X15.7591Y-11.4567
X15.7591Y-11.8504
X15.7591Y-11.9488
X15.7591Y-12.0472
X15.7591Y-12.1457
X15.7591Y-12.2441
X15.7591Y-12.3425
X15.7591Y-12.4409
X15.7591Y-12.5394
X15.8575Y-9.5866
X15.8575Y-9.8819
X15.8575Y-11.1614
X15.8575Y-11.4567
X15.9559Y-9.5866
X15.9559Y-9.8819
X15.9559Y-11.1614
X15.9559Y-11.4567
X16.0543Y-9.5866
X16.0543Y-9.8819
X16.0543Y-11.1614
X16.0543Y-11.4567
X16.2512Y-10.6693
X16.2512Y-10.9646
X16.2512Y-12.2441
X16.2512Y-12.5394
X16.3496Y-10.6693
X16.3496Y-10.9646
X16.3496Y-12.2441
X16.3496Y-12.5394
X16.448Y-10.6693
X16.448Y-10.9646
X16.448Y-12.2441
X16.448Y-12.5394
X16.5465Y-9.5866
X16.5465Y-9.685
X16.5465Y-9.7835
X16.5465Y-9.8819
X16.5465Y-9.9803
X16.5465Y-10.0787
X16.5465Y-10.1772
X16.5465Y-10.2756
X16.5465Y-10.6693
X16.5465Y-10.9646
X16.5465Y-11.1614
X16.5465Y-11.2598
X16.5465Y-11.3583
X16.5465Y-11.4567
X16.5465Y-11.5551
X16.5465Y-11.6535
X16.5465Y-11.752
X16.5465Y-11.8504
X16.5465Y-12.2441
X16.5465Y-12.5394
X16.6449Y-10.6693
X16.6449Y-10.9646
X16.6449Y-12.2441
X16.6449Y-12.5394
X16.7433Y-10.6693
X16.7433Y-10.9646
X16.7433Y-12.2441
X16.7433Y-12.5394
X16.8417Y-10.6693
X16.8417Y-10.9646
X16.8417Y-12.2441
X16.8417Y-12.5394
X16.9402Y-9.5866
X16.9402Y-9.8819
X16.9402Y-10.6693
X16.9402Y-10.9646
X16.9402Y-11.1614
X16.9402Y-11.4567
X16.9402Y-12.2441
X16.9402Y-12.5394
X17.0386Y-9.5866
X17.0386Y-9.8819
X17.0386Y-11.1614
X17.0386Y-11.4567
X17.137Y-9.5866
X17.137Y-9.8819
X17.137Y-11.1614
X17.137Y-11.4567
X17.2354Y-9.5866
X17.2354Y-9.8819
X17.2354Y-11.1614
X17.2354Y-11.4567
X17.3339Y-9.5866
X17.3339Y-9.8819
X17.3339Y-10.2756
X17.3339Y-10.374
X17.3339Y-10.4724
X17.3339Y-10.5709
X17.3339Y-10.6693
X17.3339Y-10.7677
X17.3339Y-10.8661
X17.3339Y-10.9646
X17.3339Y-11.1614
X17.3339Y-11.4567
X17.3339Y-11.8504
X17.3339Y-11.9488
X17.3339Y-12.0472
X17.3339Y-12.1457
X17.3339Y-12.2441
X17.3339Y-12.3425
X17.3339Y-12.4409
X17.3339Y-12.5394
X17.4323Y-9.5866
X17.4323Y-9.8819
X17.4323Y-11.1614
X17.4323Y-11.4567
X17.5307Y-9.5866
X17.5307Y-9.8819
X17.5307Y-11.1614
X17.5307Y-11.4567
X17.6291Y-9.5866
X17.6291Y-9.8819
X17.6291Y-11.1614
X17.6291Y-11.4567
X17.826Y-10.6693
X17.826Y-10.9646
X17.826Y-12.2441
X17.826Y-12.5394
X17.9244Y-10.6693
X17.9244Y-10.9646
X17.9244Y-12.2441
X17.9244Y-12.5394
X18.0228Y-10.6693
X18.0228Y-10.9646
X18.0228Y-12.2441
X18.0228Y-12.5394
X18.1213Y-9.5866
X18.1213Y-9.685
X18.1213Y-9.7835
X18.1213Y-9.8819
X18.1213Y-9.9803
X18.1213Y-10.0787
X18.1213Y-10.1772
X18.1213Y-10.2756
X18.1213Y-10.6693
X18.1213Y-10.9646
X18.1213Y-11.1614
X18.1213Y-11.2598
X18.1213Y-11.3583
X18.1213Y-11.4567
X18.1213Y-11.5551
X18.1213Y-11.6535
X18.1213Y-11.752
X18.1213Y-11.8504
X18.1213Y-12.2441
X18.1213Y-12.5394
X18.2197Y-10.6693
X18.2197Y-10.9646
X18.2197Y-12.2441
X18.2197Y-12.5394
X18.3181Y-10.6693
X18.3181Y-10.9646
X18.3181Y-12.2441
X18.3181Y-12.5394
X18.4165Y-10.6693
X18.4165Y-10.9646
X18.4165Y-12.2441
X18.4165Y-12.5394
X18.515Y-9.5866
X18.515Y-9.8819
X18.515Y-10.6693
X18.515Y-10.9646
X18.515Y-11.1614
X18.515Y-11.4567
X18.515Y-12.2441
X18.515Y-12.5394
X18.6134Y-9.5866
X18.6134Y-9.8819
X18.6134Y-11.1614
X18.6134Y-11.4567
X18.7118Y-9.5866
X18.7118Y-9.8819
X18.7118Y-11.1614
X18.7118Y-11.4567
X18.8102Y-9.5866
X18.8102Y-9.8819
X18.8102Y-11.1614
X18.8102Y-11.4567
X18.9087Y-9.5866
X18.9087Y-9.8819
X18.9087Y-10.2756
X18.9087Y-10.374
X18.9087Y-10.4724
X18.9087Y-10.5709
X18.9087Y-10.6693
X18.9087Y-10.7677
X18.9087Y-10.8661
X18.9087Y-10.9646
X18.9087Y-11.1614
X18.9087Y-11.4567
X18.9087Y-11.8504
X18.9087Y-11.9488
X18.9087Y-12.0472
X18.9087Y-12.1457
X18.9087Y-12.2441
X18.9087Y-12.3425
X18.9087Y-12.4409
X18.9087Y-12.5394
X19.0071Y-9.5866
X19.0071Y-9.8819
X19.0071Y-11.1614
X19.0071Y-11.4567
X19.1055Y-9.5866
X19.1055Y-9.8819
X19.1055Y-11.1614
X19.1055Y-11.4567
X19.2039Y-9.5866
X19.2039Y-9.8819
X19.2039Y-11.1614
X19.2039Y-11.4567
X19.4008Y-10.6693
X19.4008Y-10.9646
X19.4008Y-12.2441
X19.4008Y-12.5394
X19.4992Y-10.6693
X19.4992Y-10.9646
X19.4992Y-12.2441
X19.4992Y-12.5394
X19.5976Y-10.6693
X19.5976Y-10.9646
X19.5976Y-12.2441
X19.5976Y-12.5394
X19.6961Y-9.5866
X19.6961Y-9.685
X19.6961Y-9.7835
X19.6961Y-9.8819
X19.6961Y-9.9803
X19.6961Y-10.0787
X19.6961Y-10.1772
X19.6961Y-10.2756
X19.6961Y-10.6693
X19.6961Y-10.9646
X19.6961Y-11.1614
X19.6961Y-11.2598
X19.6961Y-11.3583
X19.6961Y-11.4567
X19.6961Y-11.5551
X19.6961Y-11.6535
X19.6961Y-11.752
X19.6961Y-11.8504
X19.6961Y-12.2441
X19.6961Y-12.5394
X19.7945Y-10.6693
X19.7945Y-10.9646
X19.7945Y-12.2441
X19.7945Y-12.5394
X19.8929Y-10.6693
X19.8929Y-10.9646
X19.8929Y-12.2441
X19.8929Y-12.5394
X19.9913Y-10.6693
X19.9913Y-10.9646
X19.9913Y-12.2441
X19.9913Y-12.5394
X20.0898Y-9.5866
X20.0898Y-9.8819
X20.0898Y-10.6693
X20.0898Y-10.9646
X20.0898Y-11.1614
X20.0898Y-11.4567
X20.0898Y-12.2441
X20.0898Y-12.5394
X20.1882Y-9.5866
X20.1882Y-9.8819
X20.1882Y-11.1614
X20.1882Y-11.4567
X20.2866Y-9.5866
X20.2866Y-9.8819
X20.2866Y-11.1614
X20.2866Y-11.4567
X20.385Y-9.5866
X20.385Y-9.8819
X20.385Y-11.1614
X20.385Y-11.4567
X20.4835Y-9.5866
X20.4835Y-9.8819
X20.4835Y-10.2756
X20.4835Y-10.374
X20.4835Y-10.4724
X20.4835Y-10.5709
X20.4835Y-10.6693
X20.4835Y-10.7677
X20.4835Y-10.8661
X20.4835Y-10.9646
X20.4835Y-11.1614
X20.4835Y-11.4567
X20.4835Y-11.8504
X20.4835Y-11.9488
X20.4835Y-12.0472
X20.4835Y-12.1457
X20.4835Y-12.2441
X20.4835Y-12.3425
X20.4835Y-12.4409
X20.4835Y-12.5394
X20.5819Y-9.5866
X20.5819Y-9.8819
X20.5819Y-11.1614
X20.5819Y-11.4567
X20.6803Y-9.5866
X20.6803Y-9.8819
X20.6803Y-11.1614
X20.6803Y-11.4567
X20.7787Y-9.5866
X20.7787Y-9.8819
X20.7787Y-11.1614
X20.7787Y-11.4567
X20.9756Y-10.6693
X20.9756Y-10.9646
X20.9756Y-12.2441
X20.9756Y-12.5394
X21.074Y-10.6693
X21.074Y-10.9646
X21.074Y-12.2441
X21.074Y-12.5394
X21.1724Y-10.6693
X21.1724Y-10.9646
X21.1724Y-12.2441
X21.1724Y-12.5394
X21.2709Y-9.5866
X21.2709Y-9.685
X21.2709Y-9.7835
X21.2709Y-9.8819
X21.2709Y-9.9803
X21.2709Y-10.0787
X21.2709Y-10.1772
X21.2709Y-10.2756
X21.2709Y-10.6693
X21.2709Y-10.9646
X21.2709Y-11.1614
X21.2709Y-11.2598
X21.2709Y-11.3583
X21.2709Y-11.4567
X21.2709Y-11.5551
X21.2709Y-11.6535
X21.2709Y-11.752
X21.2709Y-11.8504
X21.2709Y-12.2441
X21.2709Y-12.5394
X21.3693Y-10.6693
X21.3693Y-10.9646
X21.3693Y-12.2441
X21.3693Y-12.5394
X21.4677Y-10.6693
X21.4677Y-10.9646
X21.4677Y-12.2441
X21.4677Y-12.5394
X21.5661Y-10.6693
X21.5661Y-10.9646
X21.5661Y-12.2441
X21.5661Y-12.5394
X21.6646Y-9.5866
X21.6646Y-9.8819
X21.6646Y-10.6693
X21.6646Y-10.9646
X21.6646Y-11.1614
X21.6646Y-11.4567
X21.6646Y-12.2441
X21.6646Y-12.5394
X21.763Y-9.5866
X21.763Y-9.8819
X21.763Y-11.1614
X21.763Y-11.4567
X21.8614Y-9.5866
X21.8614Y-9.8819
X21.8614Y-11.1614
X21.8614Y-11.4567
X21.9598Y-9.5866
X21.9598Y-9.8819
X21.9598Y-11.1614
X21.9598Y-11.4567
X22.0583Y-9.5866
X22.0583Y-9.8819
X22.0583Y-10.2756
X22.0583Y-10.374
X22.0583Y-10.4724
X22.0583Y-10.5709
X22.0583Y-10.6693
X22.0583Y-10.7677
X22.0583Y-10.8661
X22.0583Y-10.9646
X22.0583Y-11.1614
X22.0583Y-11.4567
X22.0583Y-11.8504
X22.0583Y-11.9488
X22.0583Y-12.0472
X22.0583Y-12.1457
X22.0583Y-12.2441
X22.0583Y-12.3425
X22.0583Y-12.4409
X22.0583Y-12.5394
X22.1567Y-9.5866
X22.1567Y-9.8819
X22.1567Y-11.1614
X22.1567Y-11.4567
X22.2551Y-9.5866
X22.2551Y-9.8819
X22.2551Y-11.1614
X22.2551Y-11.4567
X22.3535Y-9.5866
X22.3535Y-9.8819
X22.3535Y-11.1614
X22.3535Y-11.4567
T4
X7.1929Y-9.6496
X7.2717Y-9.6496
X7.3504Y-9.6496
X8.0512Y-9.6024
X8.1299Y-9.6024
X8.2087Y-9.6024
X8.437Y-9.4291
X8.437Y-9.5079
X8.437Y-9.5866
T5
X7.2835Y-8.3858
X7.2835Y-8.4843
X8.0787Y-8.5369
X8.0787Y-8.6353
T6
X9.2354Y-8.6748
X9.2756Y-8.5748
X9.3157Y-8.6748
X9.3559Y-8.5748
X9.3961Y-8.6748
X9.4362Y-8.5748
X9.4764Y-8.6748
X9.5165Y-8.5748
T7
G00X7.1535Y-8.7756
M15
G01X7.1535Y-8.8622
M16
G05
G00X7.3307Y-9.0079
M15
G01X7.2441Y-9.0079
M16
G05
G00X7.4016Y-8.7677
M15
G01X7.4016Y-8.8701
M16
G05
M30
